SplineFontDB: 3.0
FontName: Bristol-Bold
FullName: Bristol Bold
FamilyName: Bristol
Weight: Bold
Copyright: Copyright (c) 2011 by Pablo Impallari. www.impallari.com Igino Marini. www.ikern.com. All rights reserved.
Version: 1.005
DefaultBaseFilename: Bristol-700
ItalicAngle: 0
UnderlinePosition: -100
UnderlineWidth: 50
Ascent: 800
Descent: 200
InvalidEm: 0
sfntRevision: 0x00010148
LayerCount: 2
Layer: 0 1 "Back" 1
Layer: 1 1 "Fore" 0
XUID: [1021 805 -1179658985 4581673]
FSType: 0
OS2Version: 3
OS2_WeightWidthSlopeOnly: 0
OS2_UseTypoMetrics: 1
CreationTime: 1321858544
ModificationTime: 1431274971
PfmFamily: 17
TTFWeight: 700
TTFWidth: 5
LineGap: 0
VLineGap: 0
Panose: 2 11 8 3 5 2 2 2 0 4
OS2TypoAscent: 965
OS2TypoAOffset: 0
OS2TypoDescent: -250
OS2TypoDOffset: 0
OS2TypoLinegap: 0
OS2WinAscent: 965
OS2WinAOffset: 0
OS2WinDescent: 250
OS2WinDOffset: 0
HheadAscent: 965
HheadAOffset: 0
HheadDescent: -250
HheadDOffset: 0
OS2SubXSize: 700
OS2SubYSize: 650
OS2SubXOff: 0
OS2SubYOff: 140
OS2SupXSize: 700
OS2SupYSize: 650
OS2SupXOff: 0
OS2SupYOff: 477
OS2StrikeYSize: 50
OS2StrikeYPos: 250
OS2CapHeight: 700
OS2XHeight: 500
OS2FamilyClass: 2050
OS2Vendor: 'PYRS'
OS2CodePages: 00000001.00000000
OS2UnicodeRanges: 8000002f.1000000b.00000000.00000000
Lookup: 1 0 0 "'aalt' Access All Alternates in Latin lookup 0" { "'aalt' Access All Alternates in Latin lookup 0 subtable"  } ['aalt' ('latn' <'dflt' > ) ]
Lookup: 1 0 0 "'smcp' Lowercase to Small Capitals in Latin lookup 1" { "'smcp' Lowercase to Small Capitals in Latin lookup 1 subtable"  } ['smcp' ('latn' <'dflt' > ) ]
Lookup: 258 0 0 "'kern' Horizontal Kerning in Latin lookup 0" { "'kern' Horizontal Kerning in Latin lookup 0 per glyph data 0"  "'kern' Horizontal Kerning in Latin lookup 0 kerning class 1"  } ['kern' ('latn' <'dflt' > ) ]
MarkAttachClasses: 1
DEI: 91125
KernClass2: 88+ 75 "'kern' Horizontal Kerning in Latin lookup 0 kerning class 1"
 8 quotedbl
 9 ampersand
 9 parenleft
 5 comma
 20 hyphen endash emdash
 6 period

StartChar: .notdef
Encoding: 65536 -1 0
Width: 250
Flags: W
LayerCount: 2
Back
Fore
SplineSet
179 240 m 1,0,-1
 55 240 l 1,1,-1
 55 370 l 1,2,-1
 179 370 l 1,3,-1
 179 240 l 1,0,-1
EndSplineSet
EndChar

StartChar: exclam
Encoding: 33 33 2
Width: 250
Flags: W
LayerCount: 2
Back
Fore
SplineSet
187 750 m 1,0,-1
 167 200 l 1,1,-1
 83 200 l 1,2,-1
 63 750 l 1,3,-1
 187 750 l 1,0,-1
187 0 m 1,4,-1
 63 0 l 1,5,-1
 63 124 l 1,6,-1
 187 124 l 1,7,-1
 187 0 l 1,4,-1
EndSplineSet
EndChar

StartChar: quotedbl
Encoding: 34 34 3
Width: 396
Flags: W
LayerCount: 2
Back
Fore
SplineSet
360 750 m 1,0,-1
 340 450 l 1,1,-1
 256 450 l 1,2,-1
 236 750 l 1,3,-1
 360 750 l 1,0,-1
160 750 m 1,4,-1
 140 450 l 1,5,-1
 56 450 l 1,6,-1
 36 750 l 1,7,-1
 160 750 l 1,4,-1
EndSplineSet
EndChar

StartChar: numbersign
Encoding: 35 35 4
Width: 710
Flags: W
LayerCount: 2
Back
Fore
SplineSet
678 512 m 1,0,-1
 644 414 l 1,1,-1
 530 414 l 1,2,-1
 492 309 l 1,3,-1
 617 309 l 1,4,-1
 570 211 l 1,5,-1
 453 211 l 1,6,-1
 369 -11 l 1,7,-1
 273 -11 l 1,8,-1
 357 211 l 1,9,-1
 245 211 l 1,10,-1
 159 -11 l 1,11,-1
 65 -11 l 1,12,-1
 149 211 l 1,13,-1
 31 211 l 1,14,-1
 76 309 l 1,15,-1
 188 309 l 1,16,-1
 226 414 l 1,17,-1
 105 414 l 1,18,-1
 137 512 l 1,19,-1
 263 512 l 1,20,-1
 337 700 l 1,21,-1
 431 700 l 1,22,-1
 359 512 l 1,23,-1
 473 512 l 1,24,-1
 545 700 l 1,25,-1
 639 700 l 1,26,-1
 567 512 l 1,27,-1
 678 512 l 1,0,-1
436 414 m 1,28,-1
 322 414 l 1,29,-1
 282 309 l 1,30,-1
 396 309 l 1,31,-1
 436 414 l 1,28,-1
EndSplineSet
EndChar

StartChar: dollar
Encoding: 36 36 5
Width: 524
Flags: W
LayerCount: 2
Back
Fore
SplineSet
298 80 m 1,0,-1
 314 -32 l 1,1,-1
 207 -32 l 1,2,-1
 223 79 l 1,3,4
 104 85 104 85 48 119 c 1,5,-1
 65 246 l 1,6,7
 132 183 132 183 253 183 c 0,8,9
 355 183 355 183 355 236 c 0,10,11
 355 262 355 262 331.5 277.5 c 128,-1,12
 308 293 308 293 273 305.5 c 128,-1,13
 238 318 238 318 197.5 330 c 128,-1,14
 157 342 157 342 122 359.5 c 128,-1,15
 87 377 87 377 63.5 404 c 128,-1,16
 40 431 40 431 40 473 c 0,17,18
 40 501 40 501 50.5 528 c 128,-1,19
 61 555 61 555 83.5 577 c 128,-1,20
 106 599 106 599 140.5 613.5 c 128,-1,21
 175 628 175 628 223 633 c 1,22,-1
 207 748 l 1,23,-1
 314 748 l 1,24,-1
 298 633 l 1,25,26
 345 630 345 630 389.5 618.5 c 128,-1,27
 434 607 434 607 457 594 c 1,28,-1
 446 481 l 1,29,30
 346 533 346 533 274 533 c 0,31,32
 162 533 162 533 162 485 c 0,33,34
 162 461 162 461 186 447 c 128,-1,35
 210 433 210 433 246.5 422 c 128,-1,36
 283 411 283 411 325.5 400 c 128,-1,37
 368 389 368 389 404.5 369.5 c 128,-1,38
 441 350 441 350 465 318.5 c 128,-1,39
 489 287 489 287 489 237 c 0,40,41
 489 213 489 213 481 187.5 c 128,-1,42
 473 162 473 162 451.5 140 c 128,-1,43
 430 118 430 118 393 101.5 c 128,-1,44
 356 85 356 85 298 80 c 1,0,-1
EndSplineSet
EndChar

StartChar: percent
Encoding: 37 37 6
Width: 842
Flags: W
LayerCount: 2
Back
Fore
SplineSet
654 -9 m 0,0,1
 585 -9 585 -9 544.5 40.5 c 128,-1,2
 504 90 504 90 504 172 c 0,3,4
 504 214 504 214 515.5 249 c 128,-1,5
 527 284 527 284 548 308.5 c 128,-1,6
 569 333 569 333 597.5 346.5 c 128,-1,7
 626 360 626 360 659 360 c 256,8,9
 692 360 692 360 719.5 347 c 128,-1,10
 747 334 747 334 767 310.5 c 128,-1,11
 787 287 787 287 798 254 c 128,-1,12
 809 221 809 221 809 180 c 0,13,14
 809 137 809 137 798 102 c 128,-1,15
 787 67 787 67 766.5 42.5 c 128,-1,16
 746 18 746 18 717.5 4.5 c 128,-1,17
 689 -9 689 -9 654 -9 c 0,0,1
673 700 m 1,18,-1
 251 -12 l 1,19,-1
 147 -12 l 1,20,-1
 569 700 l 1,21,-1
 673 700 l 1,18,-1
184 335 m 0,22,23
 115 335 115 335 74.5 384.5 c 128,-1,24
 34 434 34 434 34 516 c 0,25,26
 34 558 34 558 45.5 593 c 128,-1,27
 57 628 57 628 78 652.5 c 128,-1,28
 99 677 99 677 127.5 690.5 c 128,-1,29
 156 704 156 704 189 704 c 256,30,31
 222 704 222 704 249.5 691 c 128,-1,32
 277 678 277 678 297 654.5 c 128,-1,33
 317 631 317 631 328 598 c 128,-1,34
 339 565 339 565 339 524 c 0,35,36
 339 481 339 481 328 446 c 128,-1,37
 317 411 317 411 296.5 386.5 c 128,-1,38
 276 362 276 362 247.5 348.5 c 128,-1,39
 219 335 219 335 184 335 c 0,22,23
658 288 m 0,40,41
 627 288 627 288 605 259 c 128,-1,42
 583 230 583 230 583 172 c 0,43,44
 583 117 583 117 603 90 c 128,-1,45
 623 63 623 63 655 63 c 0,46,47
 730 63 730 63 730 180 c 0,48,49
 730 234 730 234 709 261 c 128,-1,50
 688 288 688 288 658 288 c 0,40,41
188 632 m 0,51,52
 157 632 157 632 135 603 c 128,-1,53
 113 574 113 574 113 516 c 0,54,55
 113 461 113 461 133 434 c 128,-1,56
 153 407 153 407 185 407 c 0,57,58
 260 407 260 407 260 524 c 0,59,60
 260 578 260 578 239 605 c 128,-1,61
 218 632 218 632 188 632 c 0,51,52
EndSplineSet
EndChar

StartChar: ampersand
Encoding: 38 38 7
Width: 627
Flags: W
LayerCount: 2
Back
Fore
SplineSet
624 0 m 1,0,-1
 480 0 l 1,1,-1
 449 34 l 1,2,3
 376 -24 376 -24 265 -24 c 0,4,5
 207 -24 207 -24 163.5 -9 c 128,-1,6
 120 6 120 6 90.5 32 c 128,-1,7
 61 58 61 58 46.5 93 c 128,-1,8
 32 128 32 128 32 168 c 0,9,10
 32 231 32 231 64.5 278 c 128,-1,11
 97 325 97 325 154 367 c 1,12,13
 79 461 79 461 79 538 c 0,14,15
 79 576 79 576 95.5 606.5 c 128,-1,16
 112 637 112 637 140 658.5 c 128,-1,17
 168 680 168 680 204.5 691.5 c 128,-1,18
 241 703 241 703 282 703 c 0,19,20
 357 703 357 703 399 664.5 c 128,-1,21
 441 626 441 626 441 560 c 0,22,23
 441 530 441 530 431 505.5 c 128,-1,24
 421 481 421 481 403 459 c 128,-1,25
 385 437 385 437 358.5 415.5 c 128,-1,26
 332 394 332 394 299 371 c 1,27,-1
 439 211 l 1,28,29
 443 231 443 231 445.5 266 c 128,-1,30
 448 301 448 301 449 352 c 1,31,-1
 568 352 l 1,32,33
 568 212 568 212 519 120 c 1,34,-1
 624 0 l 1,0,-1
276 604 m 0,35,36
 243 604 243 604 222 585.5 c 128,-1,37
 201 567 201 567 201 533 c 0,38,39
 201 490 201 490 247 432 c 1,40,41
 332 492 332 492 332 546 c 0,42,43
 332 604 332 604 276 604 c 0,35,36
386 105 m 1,44,-1
 213 300 l 1,45,46
 161 245 161 245 161 179 c 0,47,48
 161 133 161 133 188.5 102 c 128,-1,49
 216 71 216 71 282 71 c 256,50,51
 348 71 348 71 386 105 c 1,44,-1
EndSplineSet
EndChar

StartChar: quotesingle
Encoding: 39 39 8
Width: 196
Flags: W
LayerCount: 2
Back
Fore
SplineSet
160 750 m 1,0,-1
 140 450 l 1,1,-1
 56 450 l 1,2,-1
 36 750 l 1,3,-1
 160 750 l 1,0,-1
EndSplineSet
EndChar

StartChar: parenleft
Encoding: 40 40 9
Width: 277
Flags: W
LayerCount: 2
Back
Fore
SplineSet
255 -136 m 1,0,-1
 142 -136 l 1,1,2
 116 -90 116 -90 97.5 -43.5 c 128,-1,3
 79 3 79 3 66 55.5 c 128,-1,4
 53 108 53 108 47 169.5 c 128,-1,5
 41 231 41 231 41 307 c 256,6,7
 41 383 41 383 47.5 445 c 128,-1,8
 54 507 54 507 66.5 560 c 128,-1,9
 79 613 79 613 98 659 c 128,-1,10
 117 705 117 705 142 750 c 1,11,-1
 255 750 l 1,12,13
 142 550 142 550 142 307 c 256,14,15
 142 64 142 64 255 -136 c 1,0,-1
EndSplineSet
EndChar

StartChar: parenright
Encoding: 41 41 10
Width: 277
Flags: W
LayerCount: 2
Back
Fore
SplineSet
135 -136 m 1,0,-1
 22 -136 l 1,1,2
 135 64 135 64 135 307 c 256,3,4
 135 550 135 550 22 750 c 1,5,-1
 135 750 l 1,6,7
 160 705 160 705 178.5 659 c 128,-1,8
 197 613 197 613 210 560 c 128,-1,9
 223 507 223 507 229.5 445 c 128,-1,10
 236 383 236 383 236 307 c 0,11,12
 236 232 236 232 229.5 170 c 128,-1,13
 223 108 223 108 210.5 55.5 c 128,-1,14
 198 3 198 3 179 -44 c 128,-1,15
 160 -91 160 -91 135 -136 c 1,0,-1
EndSplineSet
EndChar

StartChar: asterisk
Encoding: 42 42 11
Width: 446
Flags: W
LayerCount: 2
Back
Fore
SplineSet
309 412 m 1,0,-1
 225 549 l 1,1,-1
 139 409 l 1,2,-1
 72 474 l 1,3,-1
 193 565 l 1,4,-1
 31 617 l 1,5,-1
 78 699 l 1,6,-1
 211 592 l 1,7,-1
 176 749 l 1,8,-1
 270 749 l 1,9,-1
 234 592 l 1,10,-1
 368 699 l 1,11,-1
 415 617 l 1,12,-1
 256 567 l 1,13,-1
 376 477 l 1,14,-1
 309 412 l 1,0,-1
EndSplineSet
EndChar

StartChar: plus
Encoding: 43 43 12
Width: 458
Flags: W
LayerCount: 2
Back
Fore
SplineSet
414 230 m 1,0,-1
 276 230 l 1,1,-1
 276 102 l 1,2,-1
 182 102 l 1,3,-1
 182 230 l 1,4,-1
 44 230 l 1,5,-1
 44 324 l 1,6,-1
 182 324 l 1,7,-1
 182 452 l 1,8,-1
 276 452 l 1,9,-1
 276 324 l 1,10,-1
 414 324 l 1,11,-1
 414 230 l 1,0,-1
EndSplineSet
EndChar

StartChar: comma
Encoding: 44 44 13
Width: 232
Flags: W
LayerCount: 2
Back
Fore
SplineSet
178 0 m 1,0,-1
 80 -110 l 1,1,-1
 54 -96 l 1,2,-1
 87 -10 l 1,3,-1
 54 0 l 1,4,-1
 54 130 l 1,5,-1
 178 130 l 1,6,-1
 178 0 l 1,0,-1
EndSplineSet
EndChar

StartChar: hyphen
Encoding: 45 45 14
Width: 418
Flags: W
LayerCount: 2
Back
Fore
SplineSet
364 230 m 1,0,-1
 54 230 l 1,1,-1
 54 324 l 1,2,-1
 364 324 l 1,3,-1
 364 230 l 1,0,-1
EndSplineSet
EndChar

StartChar: period
Encoding: 46 46 15
Width: 232
Flags: W
LayerCount: 2
Back
Fore
SplineSet
178 0 m 1,0,-1
 54 0 l 1,1,-1
 54 130 l 1,2,-1
 178 130 l 1,3,-1
 178 0 l 1,0,-1
EndSplineSet
EndChar

StartChar: slash
Encoding: 47 47 16
Width: 551
Flags: W
LayerCount: 2
Back
Fore
SplineSet
518 700 m 1,0,-1
 153 -85 l 1,1,-1
 19 -85 l 1,2,-1
 384 700 l 1,3,-1
 518 700 l 1,0,-1
EndSplineSet
EndChar

StartChar: zero
Encoding: 48 48 17
Width: 706
Flags: W
LayerCount: 2
Back
Fore
SplineSet
347 -14 m 0,0,1
 282 -14 282 -14 228.5 11.5 c 128,-1,2
 175 37 175 37 137.5 83.5 c 128,-1,3
 100 130 100 130 79.5 195 c 128,-1,4
 59 260 59 260 59 339 c 0,5,6
 59 421 59 421 82 489.5 c 128,-1,7
 105 558 105 558 145.5 608 c 128,-1,8
 186 658 186 658 240.5 686 c 128,-1,9
 295 714 295 714 359 714 c 0,10,11
 421 714 421 714 474 687 c 128,-1,12
 527 660 527 660 565.5 612 c 128,-1,13
 604 564 604 564 625.5 498.5 c 128,-1,14
 647 433 647 433 647 356 c 0,15,16
 647 273 647 273 626 205 c 128,-1,17
 605 137 605 137 566 88.5 c 128,-1,18
 527 40 527 40 471.5 13 c 128,-1,19
 416 -14 416 -14 347 -14 c 0,0,1
357 601 m 0,20,21
 322 601 322 601 291 583.5 c 128,-1,22
 260 566 260 566 237 533 c 128,-1,23
 214 500 214 500 200.5 451 c 128,-1,24
 187 402 187 402 187 339 c 0,25,26
 187 218 187 218 231.5 159.5 c 128,-1,27
 276 101 276 101 349 101 c 0,28,29
 427 101 427 101 474 163.5 c 128,-1,30
 521 226 521 226 521 356 c 0,31,32
 521 415 521 415 508 460.5 c 128,-1,33
 495 506 495 506 472.5 537.5 c 128,-1,34
 450 569 450 569 420.5 585 c 128,-1,35
 391 601 391 601 357 601 c 0,20,21
EndSplineSet
EndChar

StartChar: one
Encoding: 49 49 18
Width: 369
Flags: W
LayerCount: 2
Back
Fore
SplineSet
272 0 m 1,0,-1
 144 0 l 1,1,-1
 144 519 l 1,2,3
 102 490 102 490 56 483 c 1,4,-1
 45 591 l 1,5,6
 61 595 61 595 81 606 c 128,-1,7
 101 617 101 617 119.5 632.5 c 128,-1,8
 138 648 138 648 152.5 665.5 c 128,-1,9
 167 683 167 683 174 700 c 1,10,-1
 272 700 l 1,11,-1
 272 0 l 1,0,-1
EndSplineSet
EndChar

StartChar: two
Encoding: 50 50 19
Width: 529
Flags: W
LayerCount: 2
Back
Fore
SplineSet
472 0 m 1,0,-1
 44 0 l 1,1,2
 110 95 110 95 156.5 166.5 c 128,-1,3
 203 238 203 238 234.5 290 c 128,-1,4
 266 342 266 342 284 378 c 128,-1,5
 302 414 302 414 311.5 438.5 c 128,-1,6
 321 463 321 463 323.5 479 c 128,-1,7
 326 495 326 495 326 507 c 0,8,9
 326 555 326 555 300.5 581 c 128,-1,10
 275 607 275 607 229 607 c 0,11,12
 139 607 139 607 68 500 c 1,13,-1
 52 615 l 1,14,15
 62 633 62 633 80.5 650.5 c 128,-1,16
 99 668 99 668 125 682 c 128,-1,17
 151 696 151 696 184 705 c 128,-1,18
 217 714 217 714 255 714 c 0,19,20
 305 714 305 714 341.5 698.5 c 128,-1,21
 378 683 378 683 401.5 657 c 128,-1,22
 425 631 425 631 436 597 c 128,-1,23
 447 563 447 563 447 526 c 0,24,25
 447 491 447 491 437 452 c 128,-1,26
 427 413 427 413 405 365 c 128,-1,27
 383 317 383 317 348 258 c 128,-1,28
 313 199 313 199 264 124 c 1,29,-1
 472 124 l 1,30,-1
 472 0 l 1,0,-1
EndSplineSet
EndChar

StartChar: three
Encoding: 51 51 20
Width: 539
Flags: W
LayerCount: 2
Back
Fore
SplineSet
224 -14 m 0,0,1
 196 -14 196 -14 165.5 -8.5 c 128,-1,2
 135 -3 135 -3 108.5 5 c 128,-1,3
 82 13 82 13 62 22.5 c 128,-1,4
 42 32 42 32 36 40 c 1,5,-1
 67 158 l 1,6,7
 89 137 89 137 132.5 123 c 128,-1,8
 176 109 176 109 219 109 c 0,9,10
 354 109 354 109 354 211 c 0,11,12
 354 238 354 238 347.5 260.5 c 128,-1,13
 341 283 341 283 326 298.5 c 128,-1,14
 311 314 311 314 286.5 322.5 c 128,-1,15
 262 331 262 331 226 331 c 2,16,-1
 136 331 l 1,17,-1
 147 430 l 1,18,-1
 193 430 l 2,19,20
 326 430 326 430 326 522 c 0,21,22
 326 606 326 606 223 606 c 0,23,24
 137 606 137 606 100 572 c 1,25,-1
 80 668 l 1,26,27
 98 686 98 686 141 700 c 128,-1,28
 184 714 184 714 238 714 c 0,29,30
 302 714 302 714 344 696.5 c 128,-1,31
 386 679 386 679 411 652 c 128,-1,32
 436 625 436 625 445.5 592 c 128,-1,33
 455 559 455 559 455 528 c 0,34,35
 455 437 455 437 388 388 c 1,36,37
 480 332 480 332 480 217 c 0,38,39
 480 162 480 162 459.5 119 c 128,-1,40
 439 76 439 76 404 46.5 c 128,-1,41
 369 17 369 17 322.5 1.5 c 128,-1,42
 276 -14 276 -14 224 -14 c 0,0,1
EndSplineSet
EndChar

StartChar: four
Encoding: 52 52 21
Width: 581
Flags: W
LayerCount: 2
Back
Fore
SplineSet
524 190 m 1,0,-1
 439 190 l 1,1,-1
 439 0 l 1,2,-1
 311 0 l 1,3,-1
 311 190 l 1,4,-1
 10 190 l 1,5,-1
 332 700 l 1,6,-1
 439 700 l 1,7,-1
 439 294 l 1,8,-1
 524 294 l 1,9,-1
 524 190 l 1,0,-1
311 294 m 1,10,-1
 311 504 l 1,11,-1
 184 294 l 1,12,-1
 311 294 l 1,10,-1
EndSplineSet
EndChar

StartChar: five
Encoding: 53 53 22
Width: 537
Flags: W
LayerCount: 2
Back
Fore
SplineSet
232 -13 m 0,0,1
 203 -13 203 -13 171.5 -7 c 128,-1,2
 140 -1 140 -1 113 7.5 c 128,-1,3
 86 16 86 16 68 25.5 c 128,-1,4
 50 35 50 35 49 43 c 2,5,-1
 79 159 l 1,6,7
 137 107 137 107 228 107 c 0,8,9
 286 107 286 107 324.5 135.5 c 128,-1,10
 363 164 363 164 363 226 c 0,11,12
 363 250 363 250 355.5 270 c 128,-1,13
 348 290 348 290 328.5 303.5 c 128,-1,14
 309 317 309 317 276 324.5 c 128,-1,15
 243 332 243 332 192 332 c 2,16,-1
 85 332 l 1,17,-1
 129 700 l 1,18,-1
 450 700 l 1,19,-1
 437 576 l 1,20,-1
 225 576 l 1,21,-1
 208 439 l 1,22,23
 354 437 354 437 420.5 387.5 c 128,-1,24
 487 338 487 338 487 231 c 0,25,26
 487 173 487 173 466.5 127.5 c 128,-1,27
 446 82 446 82 411 51 c 128,-1,28
 376 20 376 20 330 3.5 c 128,-1,29
 284 -13 284 -13 232 -13 c 0,0,1
EndSplineSet
EndChar

StartChar: six
Encoding: 54 54 23
Width: 562
Flags: W
LayerCount: 2
Back
Fore
SplineSet
276 -14 m 0,0,1
 177 -14 177 -14 117.5 50.5 c 128,-1,2
 58 115 58 115 58 253 c 0,3,4
 58 318 58 318 73.5 376.5 c 128,-1,5
 89 435 89 435 114.5 484.5 c 128,-1,6
 140 534 140 534 172 574 c 128,-1,7
 204 614 204 614 237.5 642 c 128,-1,8
 271 670 271 670 302.5 685 c 128,-1,9
 334 700 334 700 358 700 c 1,10,-1
 442 650 l 1,11,12
 428 650 428 650 405.5 639 c 128,-1,13
 383 628 383 628 356.5 609 c 128,-1,14
 330 590 330 590 303 564 c 128,-1,15
 276 538 276 538 253 508.5 c 128,-1,16
 230 479 230 479 213.5 446.5 c 128,-1,17
 197 414 197 414 193 382 c 1,18,19
 224 421 224 421 309 421 c 0,20,21
 355 421 355 421 394 407.5 c 128,-1,22
 433 394 433 394 461 368.5 c 128,-1,23
 489 343 489 343 504.5 305 c 128,-1,24
 520 267 520 267 520 219 c 0,25,26
 520 172 520 172 502.5 129.5 c 128,-1,27
 485 87 485 87 453 55 c 128,-1,28
 421 23 421 23 376 4.5 c 128,-1,29
 331 -14 331 -14 276 -14 c 0,0,1
301 317 m 0,30,31
 247 317 247 317 214.5 288.5 c 128,-1,32
 182 260 182 260 182 203 c 0,33,34
 182 179 182 179 191.5 159.5 c 128,-1,35
 201 140 201 140 216 127 c 128,-1,36
 231 114 231 114 250 107 c 128,-1,37
 269 100 269 100 289 100 c 0,38,39
 314 100 314 100 335 109.5 c 128,-1,40
 356 119 356 119 371 135.5 c 128,-1,41
 386 152 386 152 394 174 c 128,-1,42
 402 196 402 196 402 221 c 0,43,44
 402 239 402 239 395.5 256.5 c 128,-1,45
 389 274 389 274 376 287.5 c 128,-1,46
 363 301 363 301 344 309 c 128,-1,47
 325 317 325 317 301 317 c 0,30,31
EndSplineSet
EndChar

StartChar: seven
Encoding: 55 55 24
Width: 510
Flags: W
LayerCount: 2
Back
Fore
SplineSet
503 700 m 1,0,-1
 211 0 l 1,1,-1
 77 0 l 1,2,-1
 317 576 l 1,3,-1
 43 576 l 1,4,-1
 43 700 l 1,5,-1
 503 700 l 1,0,-1
EndSplineSet
EndChar

StartChar: eight
Encoding: 56 56 25
Width: 602
Flags: W
LayerCount: 2
Back
Fore
SplineSet
291 -14 m 0,0,1
 233 -14 233 -14 189 2 c 128,-1,2
 145 18 145 18 115.5 45 c 128,-1,3
 86 72 86 72 71 108 c 128,-1,4
 56 144 56 144 56 185 c 0,5,6
 56 297 56 297 164 377 c 1,7,8
 95 432 95 432 95 537 c 0,9,10
 95 575 95 575 106.5 607.5 c 128,-1,11
 118 640 118 640 143.5 663.5 c 128,-1,12
 169 687 169 687 209 700.5 c 128,-1,13
 249 714 249 714 305 714 c 0,14,15
 358 714 358 714 396.5 702 c 128,-1,16
 435 690 435 690 459.5 668.5 c 128,-1,17
 484 647 484 647 496 617.5 c 128,-1,18
 508 588 508 588 508 552 c 0,19,20
 508 458 508 458 422 386 c 1,21,22
 479 360 479 360 512.5 312 c 128,-1,23
 546 264 546 264 546 204 c 0,24,25
 546 163 546 163 530 124 c 128,-1,26
 514 85 514 85 482 54 c 128,-1,27
 450 23 450 23 402 4.5 c 128,-1,28
 354 -14 354 -14 291 -14 c 0,0,1
300 614 m 0,29,30
 251 614 251 614 229 589.5 c 128,-1,31
 207 565 207 565 207 525 c 0,32,33
 207 449 207 449 295 425 c 1,34,35
 390 451 390 451 390 530 c 0,36,37
 390 567 390 567 369 590.5 c 128,-1,38
 348 614 348 614 300 614 c 0,29,30
304 332 m 1,39,40
 278 328 278 328 255.5 316.5 c 128,-1,41
 233 305 233 305 215.5 287.5 c 128,-1,42
 198 270 198 270 188 246.5 c 128,-1,43
 178 223 178 223 178 195 c 0,44,45
 178 144 178 144 209.5 116 c 128,-1,46
 241 88 241 88 296 88 c 0,47,48
 354 88 354 88 387 118.5 c 128,-1,49
 420 149 420 149 420 200 c 0,50,51
 420 254 420 254 387.5 287.5 c 128,-1,52
 355 321 355 321 304 332 c 1,39,40
EndSplineSet
EndChar

StartChar: nine
Encoding: 57 57 26
Width: 564
Flags: W
LayerCount: 2
Back
Fore
SplineSet
286 714 m 0,0,1
 335 714 335 714 375.5 698 c 128,-1,2
 416 682 416 682 445 649 c 128,-1,3
 474 616 474 616 489.5 566 c 128,-1,4
 505 516 505 516 505 448 c 0,5,6
 505 385 505 385 491.5 327 c 128,-1,7
 478 269 478 269 455.5 219.5 c 128,-1,8
 433 170 433 170 403 129.5 c 128,-1,9
 373 89 373 89 339.5 60 c 128,-1,10
 306 31 306 31 271.5 15.5 c 128,-1,11
 237 0 237 0 204 0 c 1,12,-1
 123 50 l 1,13,14
 138 50 138 50 162 59.5 c 128,-1,15
 186 69 186 69 213 86.5 c 128,-1,16
 240 104 240 104 268 128.5 c 128,-1,17
 296 153 296 153 319 183 c 128,-1,18
 342 213 342 213 357.5 247 c 128,-1,19
 373 281 373 281 375 317 c 1,20,21
 367 308 367 308 351 301 c 128,-1,22
 335 294 335 294 316.5 289 c 128,-1,23
 298 284 298 284 280.5 281.5 c 128,-1,24
 263 279 263 279 253 279 c 0,25,26
 205 279 205 279 166.5 292 c 128,-1,27
 128 305 128 305 100 330.5 c 128,-1,28
 72 356 72 356 57 393 c 128,-1,29
 42 430 42 430 42 478 c 0,30,31
 42 527 42 527 59.5 570.5 c 128,-1,32
 77 614 77 614 109.5 645.5 c 128,-1,33
 142 677 142 677 187 695.5 c 128,-1,34
 232 714 232 714 286 714 c 0,0,1
265 383 m 0,35,36
 317 383 317 383 350.5 412 c 128,-1,37
 384 441 384 441 384 496 c 0,38,39
 384 523 384 523 375.5 543 c 128,-1,40
 367 563 367 563 352.5 575.5 c 128,-1,41
 338 588 338 588 319 594 c 128,-1,42
 300 600 300 600 279 600 c 0,43,44
 253 600 253 600 232.5 590.5 c 128,-1,45
 212 581 212 581 197.5 564.5 c 128,-1,46
 183 548 183 548 175 527 c 128,-1,47
 167 506 167 506 167 483 c 0,48,49
 167 441 167 441 191.5 412 c 128,-1,50
 216 383 216 383 265 383 c 0,35,36
EndSplineSet
EndChar

StartChar: colon
Encoding: 58 58 27
Width: 232
Flags: W
LayerCount: 2
Back
Fore
SplineSet
178 310 m 1,0,-1
 54 310 l 1,1,-1
 54 440 l 1,2,-1
 178 440 l 1,3,-1
 178 310 l 1,0,-1
178 0 m 1,4,-1
 54 0 l 1,5,-1
 54 130 l 1,6,-1
 178 130 l 1,7,-1
 178 0 l 1,4,-1
EndSplineSet
EndChar

StartChar: semicolon
Encoding: 59 59 28
Width: 247
Flags: W
LayerCount: 2
Back
Fore
SplineSet
180 310 m 1,0,-1
 56 310 l 1,1,-1
 56 440 l 1,2,-1
 180 440 l 1,3,-1
 180 310 l 1,0,-1
180 0 m 1,4,-1
 82 -110 l 1,5,-1
 56 -96 l 1,6,-1
 89 -10 l 1,7,-1
 56 0 l 1,8,-1
 56 130 l 1,9,-1
 180 130 l 1,10,-1
 180 0 l 1,4,-1
EndSplineSet
EndChar

StartChar: less
Encoding: 60 60 29
Width: 446
Flags: W
LayerCount: 2
Back
Fore
SplineSet
388 78 m 1,0,-1
 241 78 l 1,1,-1
 29 284 l 1,2,-1
 241 490 l 1,3,-1
 388 490 l 1,4,-1
 176 284 l 1,5,-1
 388 78 l 1,0,-1
EndSplineSet
EndChar

StartChar: equal
Encoding: 61 61 30
Width: 494
Flags: W
LayerCount: 2
Back
Fore
SplineSet
432 310 m 1,0,-1
 62 310 l 1,1,-1
 62 404 l 1,2,-1
 432 404 l 1,3,-1
 432 310 l 1,0,-1
432 150 m 1,4,-1
 62 150 l 1,5,-1
 62 244 l 1,6,-1
 432 244 l 1,7,-1
 432 150 l 1,4,-1
EndSplineSet
EndChar

StartChar: greater
Encoding: 62 62 31
Width: 446
Flags: W
LayerCount: 2
Back
Fore
SplineSet
417 284 m 1,0,-1
 205 78 l 1,1,-1
 58 78 l 1,2,-1
 270 284 l 1,3,-1
 58 490 l 1,4,-1
 205 490 l 1,5,-1
 417 284 l 1,0,-1
EndSplineSet
EndChar

StartChar: question
Encoding: 63 63 32
Width: 442
Flags: W
LayerCount: 2
Back
Fore
SplineSet
244 200 m 1,0,-1
 160 200 l 1,1,2
 157 245 157 245 157 253 c 0,3,4
 157 301 157 301 176.5 339 c 128,-1,5
 196 377 196 377 219.5 412.5 c 128,-1,6
 243 448 243 448 262.5 483 c 128,-1,7
 282 518 282 518 282 559 c 0,8,9
 282 605 282 605 254 628.5 c 128,-1,10
 226 652 226 652 181 652 c 0,11,12
 104 652 104 652 57 587 c 1,13,-1
 29 679 l 1,14,15
 77 750 77 750 189 750 c 0,16,17
 238 750 238 750 277 733 c 128,-1,18
 316 716 316 716 343 688.5 c 128,-1,19
 370 661 370 661 384.5 627 c 128,-1,20
 399 593 399 593 399 560 c 0,21,22
 399 526 399 526 383 491.5 c 128,-1,23
 367 457 367 457 344 426 c 2,24,-1
 299 363 l 2,25,26
 276 331 276 331 260 292 c 128,-1,27
 244 253 244 253 244 213 c 2,28,-1
 244 200 l 1,0,-1
264 0 m 1,29,-1
 140 0 l 1,30,-1
 140 124 l 1,31,-1
 264 124 l 1,32,-1
 264 0 l 1,29,-1
EndSplineSet
EndChar

StartChar: at
Encoding: 64 64 33
Width: 714
Flags: W
LayerCount: 2
Back
Fore
SplineSet
541 379 m 1,0,1
 490 432 490 432 419 432 c 0,2,3
 373 432 373 432 327.5 407 c 128,-1,4
 282 382 282 382 246 342.5 c 128,-1,5
 210 303 210 303 187.5 252.5 c 128,-1,6
 165 202 165 202 165 151 c 0,7,8
 165 103 165 103 187 71.5 c 128,-1,9
 209 40 209 40 260 40 c 0,10,11
 281 40 281 40 306 48.5 c 128,-1,12
 331 57 331 57 355 72.5 c 128,-1,13
 379 88 379 88 400.5 109 c 128,-1,14
 422 130 422 130 436 156 c 1,15,16
 436 155 436 155 435.5 150.5 c 128,-1,17
 435 146 435 146 434.5 141 c 128,-1,18
 434 136 434 136 433.5 131 c 128,-1,19
 433 126 433 126 433 125 c 0,20,21
 433 93 433 93 446 67.5 c 128,-1,22
 459 42 459 42 488 42 c 0,23,24
 503 42 503 42 521 47.5 c 128,-1,25
 539 53 539 53 557 62 c 128,-1,26
 575 71 575 71 592 82.5 c 128,-1,27
 609 94 609 94 621 106 c 1,28,29
 597 63 597 63 562 27.5 c 128,-1,30
 527 -8 527 -8 484 -33.5 c 128,-1,31
 441 -59 441 -59 392.5 -73 c 128,-1,32
 344 -87 344 -87 293 -87 c 0,33,34
 236 -87 236 -87 190 -69.5 c 128,-1,35
 144 -52 144 -52 111.5 -19 c 128,-1,36
 79 14 79 14 62 62 c 128,-1,37
 45 110 45 110 45 170 c 0,38,39
 45 250 45 250 75 320 c 128,-1,40
 105 390 105 390 157 441.5 c 128,-1,41
 209 493 209 493 277 523 c 128,-1,42
 345 553 345 553 422 553 c 0,43,44
 480 553 480 553 526.5 535 c 128,-1,45
 573 517 573 517 605 484 c 128,-1,46
 637 451 637 451 654 404 c 128,-1,47
 671 357 671 357 671 299 c 0,48,49
 671 273 671 273 668.5 245 c 128,-1,50
 666 217 666 217 658 191.5 c 128,-1,51
 650 166 650 166 633.5 145 c 128,-1,52
 617 124 617 124 589 111 c 0,53,54
 550 94 550 94 523 94 c 0,55,56
 486 94 486 94 486 147 c 0,57,58
 486 160 486 160 491 184 c 128,-1,59
 496 208 496 208 504 238.5 c 128,-1,60
 512 269 512 269 521.5 305 c 128,-1,61
 531 341 531 341 541 379 c 1,0,1
420 371 m 0,62,63
 467 371 467 371 474 349 c 1,64,65
 468 310 468 310 447.5 267.5 c 128,-1,66
 427 225 427 225 400 189 c 128,-1,67
 373 153 373 153 343.5 129.5 c 128,-1,68
 314 106 314 106 289 106 c 0,69,70
 267 106 267 106 256 124 c 128,-1,71
 245 142 245 142 245 170 c 0,72,73
 245 209 245 209 262 245.5 c 128,-1,74
 279 282 279 282 305.5 309.5 c 128,-1,75
 332 337 332 337 362.5 354 c 128,-1,76
 393 371 393 371 420 371 c 0,62,63
EndSplineSet
EndChar

StartChar: A
Encoding: 65 65 34
Width: 625
Flags: W
LayerCount: 2
Back
Fore
SplineSet
622 0 m 1,0,-1
 489 0 l 1,1,-1
 429 169 l 1,2,-1
 196 169 l 1,3,-1
 136 0 l 1,4,-1
 3 0 l 1,5,-1
 252 700 l 1,6,-1
 373 700 l 1,7,-1
 622 0 l 1,0,-1
385 293 m 1,8,-1
 312 498 l 1,9,-1
 240 293 l 1,10,-1
 385 293 l 1,8,-1
EndSplineSet
EndChar

StartChar: B
Encoding: 66 66 35
Width: 626
Flags: W
LayerCount: 2
Back
Fore
SplineSet
347 0 m 2,0,-1
 77 0 l 1,1,-1
 77 700 l 1,2,-1
 266 700 l 2,3,4
 327 700 327 700 376.5 693.5 c 128,-1,5
 426 687 426 687 461 667.5 c 128,-1,6
 496 648 496 648 515 613 c 128,-1,7
 534 578 534 578 534 520 c 0,8,9
 534 424 534 424 475 374 c 1,10,11
 538 350 538 350 567.5 311 c 128,-1,12
 597 272 597 272 597 206 c 0,13,14
 597 148 597 148 575.5 108.5 c 128,-1,15
 554 69 554 69 519 45 c 128,-1,16
 484 21 484 21 439 10.5 c 128,-1,17
 394 0 394 0 347 0 c 2,0,-1
318 591 m 2,18,-1
 205 591 l 1,19,-1
 205 419 l 1,20,-1
 330 419 l 2,21,22
 364 419 364 419 389.5 437.5 c 128,-1,23
 415 456 415 456 415 501 c 0,24,25
 415 552 415 552 390.5 571.5 c 128,-1,26
 366 591 366 591 318 591 c 2,18,-1
338 318 m 2,27,-1
 205 318 l 1,28,-1
 205 109 l 1,29,-1
 331 109 l 2,30,31
 397 109 397 109 431 132.5 c 128,-1,32
 465 156 465 156 465 213 c 0,33,34
 465 318 465 318 338 318 c 2,27,-1
EndSplineSet
EndChar

StartChar: C
Encoding: 67 67 36
Width: 609
Flags: W
LayerCount: 2
Back
Fore
SplineSet
380 -14 m 0,0,1
 305 -14 305 -14 241.5 12 c 128,-1,2
 178 38 178 38 132 86 c 128,-1,3
 86 134 86 134 60.5 201 c 128,-1,4
 35 268 35 268 35 350 c 256,5,6
 35 432 35 432 61 499 c 128,-1,7
 87 566 87 566 132.5 614 c 128,-1,8
 178 662 178 662 241.5 688 c 128,-1,9
 305 714 305 714 380 714 c 0,10,11
 494 714 494 714 579 673 c 1,12,-1
 565 551 l 1,13,14
 466 591 466 591 380 591 c 0,15,16
 330 591 330 591 292 573.5 c 128,-1,17
 254 556 254 556 228 524.5 c 128,-1,18
 202 493 202 493 188.5 448.5 c 128,-1,19
 175 404 175 404 175 350 c 256,20,21
 175 296 175 296 188.5 251.5 c 128,-1,22
 202 207 202 207 228 175.5 c 128,-1,23
 254 144 254 144 292 126.5 c 128,-1,24
 330 109 330 109 380 109 c 0,25,26
 466 109 466 109 565 149 c 1,27,-1
 579 27 l 1,28,29
 494 -14 494 -14 380 -14 c 0,0,1
EndSplineSet
EndChar

StartChar: D
Encoding: 68 68 37
Width: 720
Flags: W
LayerCount: 2
Back
Fore
SplineSet
339 0 m 2,0,-1
 77 0 l 1,1,-1
 77 700 l 1,2,-1
 339 700 l 2,3,4
 415 700 415 700 478.5 675.5 c 128,-1,5
 542 651 542 651 587.5 605.5 c 128,-1,6
 633 560 633 560 658.5 495.5 c 128,-1,7
 684 431 684 431 684 350 c 256,8,9
 684 269 684 269 658.5 204 c 128,-1,10
 633 139 633 139 587.5 94 c 128,-1,11
 542 49 542 49 478.5 24.5 c 128,-1,12
 415 0 415 0 339 0 c 2,0,-1
339 577 m 2,13,-1
 205 577 l 1,14,-1
 205 123 l 1,15,-1
 339 123 l 2,16,17
 439 123 439 123 491.5 182.5 c 128,-1,18
 544 242 544 242 544 350 c 256,19,20
 544 458 544 458 491.5 517.5 c 128,-1,21
 439 577 439 577 339 577 c 2,13,-1
EndSplineSet
EndChar

StartChar: E
Encoding: 69 69 38
Width: 568
Flags: W
LayerCount: 2
Back
Fore
SplineSet
535 0 m 1,0,-1
 77 0 l 1,1,-1
 77 700 l 1,2,-1
 525 700 l 1,3,-1
 525 576 l 1,4,-1
 208 576 l 1,5,-1
 208 427 l 1,6,-1
 454 427 l 1,7,-1
 454 303 l 1,8,-1
 208 303 l 1,9,-1
 208 124 l 1,10,-1
 535 124 l 1,11,-1
 535 0 l 1,0,-1
EndSplineSet
EndChar

StartChar: F
Encoding: 70 70 39
Width: 525
Flags: W
LayerCount: 2
Back
Fore
SplineSet
508 576 m 1,0,-1
 205 576 l 1,1,-1
 205 427 l 1,2,-1
 439 427 l 1,3,-1
 439 303 l 1,4,-1
 205 303 l 1,5,-1
 205 0 l 1,6,-1
 77 0 l 1,7,-1
 77 700 l 1,8,-1
 508 700 l 1,9,-1
 508 576 l 1,0,-1
EndSplineSet
EndChar

StartChar: G
Encoding: 71 71 40
Width: 664
Flags: W
LayerCount: 2
Back
Fore
SplineSet
377 -14 m 0,0,1
 303 -14 303 -14 240 12 c 128,-1,2
 177 38 177 38 131.5 86 c 128,-1,3
 86 134 86 134 60.5 201.5 c 128,-1,4
 35 269 35 269 35 351 c 0,5,6
 35 432 35 432 60.5 499 c 128,-1,7
 86 566 86 566 132 613.5 c 128,-1,8
 178 661 178 661 242.5 687.5 c 128,-1,9
 307 714 307 714 384 714 c 0,10,11
 409 714 409 714 438.5 711 c 128,-1,12
 468 708 468 708 496.5 702.5 c 128,-1,13
 525 697 525 697 550.5 689.5 c 128,-1,14
 576 682 576 682 594 673 c 1,15,-1
 580 551 l 1,16,17
 484 591 484 591 387 591 c 0,18,19
 334 591 334 591 294.5 574 c 128,-1,20
 255 557 255 557 228.5 525.5 c 128,-1,21
 202 494 202 494 188.5 450.5 c 128,-1,22
 175 407 175 407 175 353 c 0,23,24
 175 297 175 297 189 252 c 128,-1,25
 203 207 203 207 231 175.5 c 128,-1,26
 259 144 259 144 299.5 126.5 c 128,-1,27
 340 109 340 109 393 109 c 0,28,29
 434 109 434 109 489 120 c 1,30,-1
 489 245 l 1,31,-1
 412 245 l 1,32,-1
 412 351 l 1,33,-1
 617 351 l 1,34,-1
 617 39 l 1,35,36
 599 28 599 28 570 18.5 c 128,-1,37
 541 9 541 9 507.5 1.5 c 128,-1,38
 474 -6 474 -6 439.5 -10 c 128,-1,39
 405 -14 405 -14 377 -14 c 0,0,1
EndSplineSet
EndChar

StartChar: H
Encoding: 72 72 41
Width: 740
Flags: W
LayerCount: 2
Back
Fore
SplineSet
663 0 m 1,0,-1
 535 0 l 1,1,-1
 535 303 l 1,2,-1
 205 303 l 1,3,-1
 205 0 l 1,4,-1
 77 0 l 1,5,-1
 77 700 l 1,6,-1
 205 700 l 1,7,-1
 205 427 l 1,8,-1
 535 427 l 1,9,-1
 535 700 l 1,10,-1
 663 700 l 1,11,-1
 663 0 l 1,0,-1
EndSplineSet
EndChar

StartChar: I
Encoding: 73 73 42
Width: 282
Flags: W
LayerCount: 2
Back
Fore
SplineSet
205 0 m 1,0,-1
 77 0 l 1,1,-1
 77 700 l 1,2,-1
 205 700 l 1,3,-1
 205 0 l 1,0,-1
EndSplineSet
EndChar

StartChar: J
Encoding: 74 74 43
Width: 282
Flags: W
LayerCount: 2
Back
Fore
SplineSet
43 -172 m 2,0,-1
 7 -172 l 1,1,-1
 -3 -76 l 1,2,-1
 24 -76 l 2,3,4
 53 -76 53 -76 65 -57 c 128,-1,5
 77 -38 77 -38 77 4 c 2,6,-1
 77 700 l 1,7,-1
 205 700 l 1,8,-1
 205 -24 l 2,9,10
 205 -97 205 -97 163 -134.5 c 128,-1,11
 121 -172 121 -172 43 -172 c 2,0,-1
EndSplineSet
EndChar

StartChar: K
Encoding: 75 75 44
Width: 621
Flags: W
LayerCount: 2
Back
Fore
SplineSet
618 0 m 1,0,-1
 474 0 l 1,1,-1
 230 370 l 1,2,-1
 474 700 l 1,3,-1
 618 700 l 1,4,-1
 374 370 l 1,5,-1
 618 0 l 1,0,-1
205 0 m 1,6,-1
 77 0 l 1,7,-1
 77 700 l 1,8,-1
 205 700 l 1,9,-1
 205 0 l 1,6,-1
EndSplineSet
EndChar

StartChar: L
Encoding: 76 76 45
Width: 500
Flags: W
LayerCount: 2
Back
Fore
SplineSet
493 0 m 1,0,-1
 77 0 l 1,1,-1
 77 700 l 1,2,-1
 205 700 l 1,3,-1
 205 124 l 1,4,-1
 493 124 l 1,5,-1
 493 0 l 1,0,-1
EndSplineSet
EndChar

StartChar: M
Encoding: 77 77 46
Width: 833
Flags: W
LayerCount: 2
Back
Fore
SplineSet
789 0 m 1,0,-1
 656 0 l 1,1,-1
 596 469 l 1,2,-1
 417 147 l 1,3,-1
 237 468 l 1,4,-1
 177 0 l 1,5,-1
 44 0 l 1,6,-1
 141 700 l 1,7,-1
 246 700 l 1,8,-1
 417 381 l 1,9,-1
 587 700 l 1,10,-1
 692 700 l 1,11,-1
 789 0 l 1,0,-1
EndSplineSet
EndChar

StartChar: N
Encoding: 78 78 47
Width: 707
Flags: W
LayerCount: 2
Back
Fore
SplineSet
630 0 m 1,0,-1
 525 0 l 1,1,-1
 205 480 l 1,2,-1
 205 0 l 1,3,-1
 77 0 l 1,4,-1
 77 700 l 1,5,-1
 203 700 l 1,6,-1
 502 248 l 1,7,-1
 502 700 l 1,8,-1
 630 700 l 1,9,-1
 630 0 l 1,0,-1
EndSplineSet
EndChar

StartChar: O
Encoding: 79 79 48
Width: 760
Flags: W
LayerCount: 2
Back
Fore
SplineSet
628 86 m 0,0,1
 532 -14 532 -14 380 -14 c 0,2,3
 305 -14 305 -14 241.5 12 c 128,-1,4
 178 38 178 38 132 86 c 128,-1,5
 86 134 86 134 60.5 201 c 128,-1,6
 35 268 35 268 35 350 c 256,7,8
 35 432 35 432 61 499 c 128,-1,9
 87 566 87 566 132.5 614 c 128,-1,10
 178 662 178 662 241.5 688 c 128,-1,11
 305 714 305 714 380 714 c 256,12,13
 455 714 455 714 518.5 687.5 c 128,-1,14
 582 661 582 661 628 613 c 128,-1,15
 674 565 674 565 699.5 498 c 128,-1,16
 725 431 725 431 725 350 c 0,17,18
 725 186 725 186 628 86 c 0,0,1
532 525 m 0,19,20
 479 591 479 591 380 591 c 0,21,22
 330 591 330 591 292 573.5 c 128,-1,23
 254 556 254 556 228 524.5 c 128,-1,24
 202 493 202 493 188.5 448.5 c 128,-1,25
 175 404 175 404 175 350 c 256,26,27
 175 296 175 296 188.5 251.5 c 128,-1,28
 202 207 202 207 228 175.5 c 128,-1,29
 254 144 254 144 292 126.5 c 128,-1,30
 330 109 330 109 380 109 c 256,31,32
 430 109 430 109 468 126.5 c 128,-1,33
 506 144 506 144 532 175.5 c 128,-1,34
 558 207 558 207 571.5 251.5 c 128,-1,35
 585 296 585 296 585 350 c 0,36,37
 585 458 585 458 532 525 c 0,19,20
EndSplineSet
EndChar

StartChar: P
Encoding: 80 80 49
Width: 596
Flags: W
LayerCount: 2
Back
Fore
SplineSet
330 230 m 2,0,-1
 205 230 l 1,1,-1
 205 0 l 1,2,-1
 77 0 l 1,3,-1
 77 700 l 1,4,-1
 275 700 l 2,5,6
 351 700 351 700 407.5 691.5 c 128,-1,7
 464 683 464 683 501 658.5 c 128,-1,8
 538 634 538 634 556.5 590.5 c 128,-1,9
 575 547 575 547 575 478 c 0,10,11
 575 405 575 405 552 357.5 c 128,-1,12
 529 310 529 310 493 281.5 c 128,-1,13
 457 253 457 253 413.5 241.5 c 128,-1,14
 370 230 370 230 330 230 c 2,0,-1
310 593 m 2,15,-1
 205 593 l 1,16,-1
 205 350 l 1,17,-1
 313 350 l 2,18,19
 384 350 384 350 414.5 378.5 c 128,-1,20
 445 407 445 407 445 477 c 0,21,22
 445 508 445 508 438.5 530 c 128,-1,23
 432 552 432 552 416.5 566 c 128,-1,24
 401 580 401 580 375 586.5 c 128,-1,25
 349 593 349 593 310 593 c 2,15,-1
EndSplineSet
EndChar

StartChar: Q
Encoding: 81 81 50
Width: 760
Flags: W
LayerCount: 2
Back
Fore
SplineSet
725 79 m 1,0,-1
 651 -10 l 1,1,-1
 582 47 l 1,2,3
 499 -14 499 -14 380 -14 c 0,4,5
 305 -14 305 -14 241.5 12 c 128,-1,6
 178 38 178 38 132 86 c 128,-1,7
 86 134 86 134 60.5 201 c 128,-1,8
 35 268 35 268 35 350 c 256,9,10
 35 432 35 432 61 499 c 128,-1,11
 87 566 87 566 132.5 614 c 128,-1,12
 178 662 178 662 241.5 688 c 128,-1,13
 305 714 305 714 380 714 c 256,14,15
 455 714 455 714 518.5 687.5 c 128,-1,16
 582 661 582 661 628 613 c 128,-1,17
 674 565 674 565 699.5 498 c 128,-1,18
 725 431 725 431 725 350 c 0,19,20
 725 225 725 225 663 130 c 1,21,-1
 725 79 l 1,0,-1
380 109 m 0,22,23
 436 109 436 109 480 132 c 1,24,-1
 396 203 l 1,25,-1
 470 292 l 1,26,-1
 558 218 l 1,27,28
 585 273 585 273 585 350 c 0,29,30
 585 404 585 404 571.5 448.5 c 128,-1,31
 558 493 558 493 532 524.5 c 128,-1,32
 506 556 506 556 468 573.5 c 128,-1,33
 430 591 430 591 380 591 c 256,34,35
 330 591 330 591 292 573.5 c 128,-1,36
 254 556 254 556 228 524.5 c 128,-1,37
 202 493 202 493 188.5 448.5 c 128,-1,38
 175 404 175 404 175 350 c 256,39,40
 175 296 175 296 188.5 251.5 c 128,-1,41
 202 207 202 207 228 175.5 c 128,-1,42
 254 144 254 144 292 126.5 c 128,-1,43
 330 109 330 109 380 109 c 0,22,23
EndSplineSet
EndChar

StartChar: R
Encoding: 82 82 51
Width: 626
Flags: W
LayerCount: 2
Back
Fore
SplineSet
613 0 m 1,0,-1
 480 0 l 1,1,-1
 335 260 l 1,2,-1
 205 260 l 1,3,-1
 205 0 l 1,4,-1
 77 0 l 1,5,-1
 77 700 l 1,6,-1
 333 700 l 2,7,8
 574 700 574 700 574 498 c 0,9,10
 574 423 574 423 543 376 c 128,-1,11
 512 329 512 329 455 294 c 1,12,-1
 613 0 l 1,0,-1
304 593 m 2,13,-1
 205 593 l 1,14,-1
 205 380 l 1,15,-1
 299 380 l 2,16,17
 380 380 380 380 410 407.5 c 128,-1,18
 440 435 440 435 440 489 c 0,19,20
 440 542 440 542 411 567.5 c 128,-1,21
 382 593 382 593 304 593 c 2,13,-1
EndSplineSet
EndChar

StartChar: S
Encoding: 83 83 52
Width: 580
Flags: W
LayerCount: 2
Back
Fore
SplineSet
280 -14 m 0,0,1
 205 -14 205 -14 143 1 c 128,-1,2
 81 16 81 16 48 37 c 1,3,-1
 63 183 l 1,4,5
 95 152 95 152 152.5 130.5 c 128,-1,6
 210 109 210 109 283 109 c 0,7,8
 408 109 408 109 408 185 c 0,9,10
 408 207 408 207 397.5 224.5 c 128,-1,11
 387 242 387 242 370.5 255 c 128,-1,12
 354 268 354 268 334.5 277 c 128,-1,13
 315 286 315 286 296 292 c 2,14,-1
 202 325 l 1,15,-1
 162 342 l 2,16,17
 99 368 99 368 70 404 c 128,-1,18
 41 440 41 440 38 504 c 0,19,20
 38 544 38 544 53 581.5 c 128,-1,21
 68 619 68 619 99 648.5 c 128,-1,22
 130 678 130 678 178 696 c 128,-1,23
 226 714 226 714 291 714 c 0,24,25
 324 714 324 714 357.5 709 c 128,-1,26
 391 704 391 704 421 696.5 c 128,-1,27
 451 689 451 689 475 679 c 128,-1,28
 499 669 499 669 514 660 c 1,29,-1
 501 529 l 1,30,31
 385 592 385 592 296 592 c 0,32,33
 270 592 270 592 247 588 c 128,-1,34
 224 584 224 584 206.5 575 c 128,-1,35
 189 566 189 566 178.5 552 c 128,-1,36
 168 538 168 538 168 518 c 0,37,38
 168 492 168 492 180.5 477.5 c 128,-1,39
 193 463 193 463 217.5 452 c 128,-1,40
 242 441 242 441 279 429.5 c 128,-1,41
 316 418 316 418 365 399 c 2,42,-1
 419 378 l 2,43,44
 440 370 440 370 463 355 c 128,-1,45
 486 340 486 340 505.5 318 c 128,-1,46
 525 296 525 296 538 266.5 c 128,-1,47
 551 237 551 237 551 200 c 0,48,49
 551 168 551 168 543 131 c 128,-1,50
 535 94 535 94 507 61.5 c 128,-1,51
 479 29 479 29 425 7.5 c 128,-1,52
 371 -14 371 -14 280 -14 c 0,0,1
EndSplineSet
EndChar

StartChar: T
Encoding: 84 84 53
Width: 554
Flags: W
LayerCount: 2
Back
Fore
SplineSet
539 576 m 1,0,-1
 341 576 l 1,1,-1
 341 0 l 1,2,-1
 213 0 l 1,3,-1
 213 576 l 1,4,-1
 15 576 l 1,5,-1
 15 700 l 1,6,-1
 539 700 l 1,7,-1
 539 576 l 1,0,-1
EndSplineSet
EndChar

StartChar: U
Encoding: 85 85 54
Width: 718
Flags: W
LayerCount: 2
Back
Fore
SplineSet
69 300 m 2,0,-1
 69 700 l 1,1,-1
 197 700 l 1,2,-1
 197 343 l 2,3,4
 197 287 197 287 205 243.5 c 128,-1,5
 213 200 213 200 231.5 170 c 128,-1,6
 250 140 250 140 281 124.5 c 128,-1,7
 312 109 312 109 359 109 c 0,8,9
 405 109 405 109 436.5 124.5 c 128,-1,10
 468 140 468 140 486.5 170 c 128,-1,11
 505 200 505 200 513 243.5 c 128,-1,12
 521 287 521 287 521 343 c 2,13,-1
 521 700 l 1,14,-1
 649 700 l 1,15,-1
 649 300 l 2,16,17
 649 153 649 153 576 69.5 c 128,-1,18
 503 -14 503 -14 359 -14 c 256,19,20
 215 -14 215 -14 142 69.5 c 128,-1,21
 69 153 69 153 69 300 c 2,0,-1
EndSplineSet
EndChar

StartChar: V
Encoding: 86 86 55
Width: 657
Flags: W
LayerCount: 2
Back
Fore
SplineSet
654 700 m 1,0,-1
 408 0 l 1,1,-1
 252 0 l 1,2,-1
 0 700 l 1,3,-1
 133 700 l 1,4,-1
 329 169 l 1,5,-1
 522 700 l 1,6,-1
 654 700 l 1,0,-1
EndSplineSet
EndChar

StartChar: W
Encoding: 87 87 56
Width: 963
Flags: W
LayerCount: 2
Back
Fore
SplineSet
957 700 m 1,0,-1
 752 0 l 1,1,-1
 639 0 l 1,2,-1
 483 467 l 1,3,-1
 328 0 l 1,4,-1
 207 0 l 1,5,-1
 10 700 l 1,6,-1
 143 700 l 1,7,-1
 283 203 l 1,8,-1
 439 700 l 1,9,-1
 528 700 l 1,10,-1
 690 216 l 1,11,-1
 824 700 l 1,12,-1
 957 700 l 1,0,-1
EndSplineSet
EndChar

StartChar: X
Encoding: 88 88 57
Width: 627
Flags: W
LayerCount: 2
Back
Fore
SplineSet
629 0 m 1,0,-1
 481 0 l 1,1,-1
 311 257 l 1,2,-1
 146 0 l 1,3,-1
 -1 0 l 1,4,-1
 246 349 l 1,5,-1
 10 700 l 1,6,-1
 158 700 l 1,7,-1
 320 454 l 1,8,-1
 468 700 l 1,9,-1
 615 700 l 1,10,-1
 385 363 l 1,11,-1
 629 0 l 1,0,-1
EndSplineSet
EndChar

StartChar: Y
Encoding: 89 89 58
Width: 598
Flags: W
LayerCount: 2
Back
Fore
SplineSet
605 700 m 1,0,-1
 363 310 l 1,1,-1
 363 0 l 1,2,-1
 235 0 l 1,3,-1
 235 310 l 1,4,-1
 -7 700 l 1,5,-1
 129 700 l 1,6,-1
 299 424 l 1,7,-1
 469 700 l 1,8,-1
 605 700 l 1,0,-1
EndSplineSet
EndChar

StartChar: Z
Encoding: 90 90 59
Width: 548
Flags: W
LayerCount: 2
Back
Fore
SplineSet
541 700 m 1,0,-1
 219 124 l 1,1,-1
 496 124 l 1,2,-1
 496 0 l 1,3,-1
 8 0 l 1,4,-1
 330 576 l 1,5,-1
 53 576 l 1,6,-1
 53 700 l 1,7,-1
 541 700 l 1,0,-1
EndSplineSet
EndChar

StartChar: bracketleft
Encoding: 91 91 60
Width: 335
Flags: W
LayerCount: 2
Back
Fore
SplineSet
324 -136 m 1,0,-1
 67 -136 l 1,1,-1
 67 750 l 1,2,-1
 324 750 l 1,3,-1
 324 641 l 1,4,-1
 180 641 l 1,5,-1
 180 -27 l 1,6,-1
 324 -27 l 1,7,-1
 324 -136 l 1,0,-1
EndSplineSet
EndChar

StartChar: backslash
Encoding: 92 92 61
Width: 551
Flags: W
LayerCount: 2
Back
Fore
SplineSet
532 -85 m 1,0,-1
 398 -85 l 1,1,-1
 33 700 l 1,2,-1
 167 700 l 1,3,-1
 532 -85 l 1,0,-1
EndSplineSet
EndChar

StartChar: bracketright
Encoding: 93 93 62
Width: 340
Flags: W
LayerCount: 2
Back
Fore
SplineSet
273 -136 m 1,0,-1
 16 -136 l 1,1,-1
 16 -12 l 1,2,-1
 160 -12 l 1,3,-1
 160 626 l 1,4,-1
 16 626 l 1,5,-1
 16 750 l 1,6,-1
 273 750 l 1,7,-1
 273 -136 l 1,0,-1
EndSplineSet
EndChar

StartChar: asciicircum
Encoding: 94 94 63
Width: 511
Flags: W
LayerCount: 2
Back
Fore
SplineSet
461 400 m 1,0,-1
 255 612 l 1,1,-1
 49 400 l 1,2,-1
 49 547 l 1,3,-1
 255 759 l 1,4,-1
 461 547 l 1,5,-1
 461 400 l 1,0,-1
EndSplineSet
EndChar

StartChar: underscore
Encoding: 95 95 64
Width: 558
Flags: W
LayerCount: 2
Back
Fore
SplineSet
559 -130 m 1,0,-1
 -1 -130 l 1,1,-1
 -1 -36 l 1,2,-1
 559 -36 l 1,3,-1
 559 -130 l 1,0,-1
EndSplineSet
EndChar

StartChar: grave
Encoding: 96 96 65
Width: 303
Flags: W
LayerCount: 2
Back
Fore
SplineSet
245 585 m 1,0,-1
 58 646 l 1,1,-1
 58 750 l 1,2,-1
 245 659 l 1,3,-1
 245 585 l 1,0,-1
EndSplineSet
EndChar

StartChar: a
Encoding: 97 97 66
Width: 498
Flags: W
LayerCount: 2
Back
Fore
SplineSet
487 92 m 1,0,-1
 476 -10 l 1,1,-1
 431 -10 l 2,2,3
 350 -10 350 -10 319 48 c 1,4,5
 267 -10 267 -10 166 -10 c 0,6,7
 135 -10 135 -10 108.5 0.5 c 128,-1,8
 82 11 82 11 62.5 30.5 c 128,-1,9
 43 50 43 50 32 77.5 c 128,-1,10
 21 105 21 105 21 140 c 0,11,12
 21 191 21 191 51 225 c 128,-1,13
 81 259 81 259 124 279.5 c 128,-1,14
 167 300 167 300 215.5 309 c 128,-1,15
 264 318 264 318 302 319 c 1,16,17
 300 364 300 364 280 382.5 c 128,-1,18
 260 401 260 401 212 401 c 0,19,20
 153 401 153 401 75 363 c 1,21,-1
 64 464 l 1,22,23
 157 508 157 508 246 508 c 0,24,25
 427 508 427 508 427 307 c 2,26,-1
 427 172 l 2,27,28
 427 145 427 145 428.5 129 c 128,-1,29
 430 113 430 113 434.5 104.5 c 128,-1,30
 439 96 439 96 448 94 c 128,-1,31
 457 92 457 92 471 92 c 2,32,-1
 487 92 l 1,0,-1
303 121 m 1,33,-1
 303 235 l 1,34,35
 274 233 274 233 246.5 227 c 128,-1,36
 219 221 219 221 198 209.5 c 128,-1,37
 177 198 177 198 164 182 c 128,-1,38
 151 166 151 166 151 145 c 0,39,40
 151 85 151 85 218 85 c 0,41,42
 265 85 265 85 303 121 c 1,33,-1
EndSplineSet
Substitution2: "'smcp' Lowercase to Small Capitals in Latin lookup 1 subtable" A.sc
Substitution2: "'aalt' Access All Alternates in Latin lookup 0 subtable" A.sc
EndChar

StartChar: b
Encoding: 98 98 67
Width: 571
Flags: W
LayerCount: 2
Back
Fore
SplineSet
298 -10 m 0,0,1
 231 -10 231 -10 175 28 c 1,2,-1
 173 0 l 1,3,-1
 57 0 l 1,4,-1
 57 750 l 1,5,-1
 181 750 l 1,6,-1
 181 475 l 1,7,8
 230 508 230 508 298 508 c 0,9,10
 355 508 355 508 400.5 488 c 128,-1,11
 446 468 446 468 477.5 433 c 128,-1,12
 509 398 509 398 526 350.5 c 128,-1,13
 543 303 543 303 543 249 c 256,14,15
 543 195 543 195 526.5 148 c 128,-1,16
 510 101 510 101 479 65.5 c 128,-1,17
 448 30 448 30 402 10 c 128,-1,18
 356 -10 356 -10 298 -10 c 0,0,1
290 406 m 0,19,20
 232 406 232 406 203.5 364 c 128,-1,21
 175 322 175 322 175 249 c 256,22,23
 175 176 175 176 203.5 134 c 128,-1,24
 232 92 232 92 290 92 c 0,25,26
 350 92 350 92 383 134.5 c 128,-1,27
 416 177 416 177 416 249 c 256,28,29
 416 321 416 321 383 363.5 c 128,-1,30
 350 406 350 406 290 406 c 0,19,20
EndSplineSet
Substitution2: "'smcp' Lowercase to Small Capitals in Latin lookup 1 subtable" B.sc
Substitution2: "'aalt' Access All Alternates in Latin lookup 0 subtable" B.sc
EndChar

StartChar: c
Encoding: 99 99 68
Width: 448
Flags: W
LayerCount: 2
Back
Fore
SplineSet
271 -10 m 0,0,1
 213 -10 213 -10 168 10 c 128,-1,2
 123 30 123 30 92 64.5 c 128,-1,3
 61 99 61 99 44.5 146.5 c 128,-1,4
 28 194 28 194 28 249 c 256,5,6
 28 304 28 304 44.5 351 c 128,-1,7
 61 398 61 398 92 433 c 128,-1,8
 123 468 123 468 168 488 c 128,-1,9
 213 508 213 508 271 508 c 0,10,11
 363 508 363 508 421 471 c 1,12,-1
 410 365 l 1,13,14
 348 406 348 406 281 406 c 0,15,16
 221 406 221 406 188 363.5 c 128,-1,17
 155 321 155 321 155 249 c 256,18,19
 155 177 155 177 188 134.5 c 128,-1,20
 221 92 221 92 281 92 c 0,21,22
 348 92 348 92 410 133 c 1,23,-1
 421 27 l 1,24,25
 363 -10 363 -10 271 -10 c 0,0,1
EndSplineSet
Substitution2: "'smcp' Lowercase to Small Capitals in Latin lookup 1 subtable" C.sc
Substitution2: "'aalt' Access All Alternates in Latin lookup 0 subtable" C.sc
EndChar

StartChar: d
Encoding: 100 100 69
Width: 571
Flags: W
LayerCount: 2
Back
Fore
SplineSet
514 0 m 1,0,-1
 397 0 l 1,1,-1
 395 28 l 1,2,3
 339 -10 339 -10 273 -10 c 0,4,5
 214 -10 214 -10 168.5 10 c 128,-1,6
 123 30 123 30 92 65.5 c 128,-1,7
 61 101 61 101 44.5 148 c 128,-1,8
 28 195 28 195 28 249 c 256,9,10
 28 303 28 303 45 350.5 c 128,-1,11
 62 398 62 398 93.5 433 c 128,-1,12
 125 468 125 468 170.5 488 c 128,-1,13
 216 508 216 508 273 508 c 0,14,15
 340 508 340 508 390 475 c 1,16,-1
 390 750 l 1,17,-1
 514 750 l 1,18,-1
 514 0 l 1,0,-1
281 406 m 0,19,20
 221 406 221 406 188 363.5 c 128,-1,21
 155 321 155 321 155 249 c 256,22,23
 155 177 155 177 188 134.5 c 128,-1,24
 221 92 221 92 281 92 c 0,25,26
 339 92 339 92 367.5 134 c 128,-1,27
 396 176 396 176 396 249 c 256,28,29
 396 322 396 322 367.5 364 c 128,-1,30
 339 406 339 406 281 406 c 0,19,20
EndSplineSet
Substitution2: "'smcp' Lowercase to Small Capitals in Latin lookup 1 subtable" D.sc
Substitution2: "'aalt' Access All Alternates in Latin lookup 0 subtable" D.sc
EndChar

StartChar: e
Encoding: 101 101 70
Width: 515
Flags: W
LayerCount: 2
Back
Fore
SplineSet
480 223 m 1,0,-1
 157 223 l 1,1,2
 167 158 167 158 209.5 125 c 128,-1,3
 252 92 252 92 306 92 c 0,4,5
 323 92 323 92 343 95 c 128,-1,6
 363 98 363 98 383.5 103.5 c 128,-1,7
 404 109 404 109 424 116.5 c 128,-1,8
 444 124 444 124 460 133 c 1,9,-1
 466 28 l 1,10,11
 393 -10 393 -10 299 -10 c 0,12,13
 233 -10 233 -10 182.5 10 c 128,-1,14
 132 30 132 30 97.5 64.5 c 128,-1,15
 63 99 63 99 45.5 146.5 c 128,-1,16
 28 194 28 194 28 249 c 0,17,18
 28 303 28 303 44.5 350 c 128,-1,19
 61 397 61 397 92 432.5 c 128,-1,20
 123 468 123 468 167.5 488 c 128,-1,21
 212 508 212 508 268 508 c 0,22,23
 315 508 315 508 355.5 492.5 c 128,-1,24
 396 477 396 477 425.5 448.5 c 128,-1,25
 455 420 455 420 471.5 380 c 128,-1,26
 488 340 488 340 488 291 c 0,27,28
 488 263 488 263 480 223 c 1,0,-1
160 307 m 1,29,-1
 362 307 l 1,30,31
 362 346 362 346 340 376 c 128,-1,32
 318 406 318 406 272 406 c 256,33,34
 226 406 226 406 198 379 c 128,-1,35
 170 352 170 352 160 307 c 1,29,-1
EndSplineSet
Substitution2: "'smcp' Lowercase to Small Capitals in Latin lookup 1 subtable" E.sc
Substitution2: "'aalt' Access All Alternates in Latin lookup 0 subtable" E.sc
EndChar

StartChar: f
Encoding: 102 102 71
Width: 340
Flags: W
LayerCount: 2
Back
Fore
SplineSet
322 398 m 1,0,-1
 212 398 l 1,1,-1
 212 0 l 1,2,-1
 88 0 l 1,3,-1
 88 398 l 1,4,-1
 17 398 l 1,5,-1
 28 500 l 1,6,-1
 88 500 l 1,7,-1
 88 619 l 2,8,9
 88 645 88 645 96 669 c 128,-1,10
 104 693 104 693 119 711 c 128,-1,11
 134 729 134 729 156.5 739.5 c 128,-1,12
 179 750 179 750 208 750 c 0,13,14
 255 750 255 750 321 744 c 1,15,-1
 310 641 l 1,16,17
 299 643 299 643 286 644.5 c 128,-1,18
 273 646 273 646 257 646 c 0,19,20
 230 646 230 646 221 630 c 128,-1,21
 212 614 212 614 212 568 c 2,22,-1
 212 500 l 1,23,-1
 322 500 l 1,24,-1
 322 398 l 1,0,-1
EndSplineSet
Substitution2: "'smcp' Lowercase to Small Capitals in Latin lookup 1 subtable" F.sc
Substitution2: "'aalt' Access All Alternates in Latin lookup 0 subtable" F.sc
EndChar

StartChar: g
Encoding: 103 103 72
Width: 501
Flags: W
LayerCount: 2
Back
Fore
SplineSet
260 -250 m 0,0,1
 202 -250 202 -250 158 -238 c 128,-1,2
 114 -226 114 -226 84 -206 c 128,-1,3
 54 -186 54 -186 39 -159 c 128,-1,4
 24 -132 24 -132 24 -102 c 0,5,6
 24 -33 24 -33 106 10 c 1,7,8
 61 38 61 38 61 82 c 256,9,10
 61 126 61 126 111 150 c 1,11,12
 34 206 34 206 34 311 c 0,13,14
 34 353 34 353 48 389 c 128,-1,15
 62 425 62 425 88.5 451.5 c 128,-1,16
 115 478 115 478 152.5 493 c 128,-1,17
 190 508 190 508 237 508 c 0,18,19
 304 508 304 508 351 478 c 1,20,21
 391 500 391 500 458 500 c 2,22,-1
 490 500 l 1,23,-1
 482 422 l 1,24,-1
 437 422 l 2,25,26
 429 422 429 422 421.5 422 c 128,-1,27
 414 422 414 422 409 421 c 1,28,29
 439 374 439 374 439 311 c 0,30,31
 439 270 439 270 425.5 234 c 128,-1,32
 412 198 412 198 386.5 171.5 c 128,-1,33
 361 145 361 145 323 129.5 c 128,-1,34
 285 114 285 114 237 114 c 0,35,36
 224 114 224 114 211 115.5 c 128,-1,37
 198 117 198 117 184 119 c 1,38,39
 173 114 173 114 173 103 c 0,40,41
 173 85 173 85 200.5 78 c 128,-1,42
 228 71 228 71 298 62 c 0,43,44
 331 58 331 58 365.5 50.5 c 128,-1,45
 400 43 400 43 428.5 26.5 c 128,-1,46
 457 10 457 10 476.5 -17.5 c 128,-1,47
 496 -45 496 -45 499 -89 c 0,48,49
 499 -164 499 -164 437 -207 c 128,-1,50
 375 -250 375 -250 260 -250 c 0,0,1
237 417 m 256,51,52
 192 417 192 417 168.5 388.5 c 128,-1,53
 145 360 145 360 145 311 c 256,54,55
 145 262 145 262 168.5 233.5 c 128,-1,56
 192 205 192 205 237 205 c 256,57,58
 282 205 282 205 305 233.5 c 128,-1,59
 328 262 328 262 328 311 c 256,60,61
 328 360 328 360 305 388.5 c 128,-1,62
 282 417 282 417 237 417 c 256,51,52
256 -30 m 0,63,64
 229 -27 229 -27 196 -21 c 1,65,66
 127 -44 127 -44 127 -90 c 0,67,68
 127 -123 127 -123 160.5 -142.5 c 128,-1,69
 194 -162 194 -162 254 -162 c 256,70,71
 314 -162 314 -162 351.5 -144 c 128,-1,72
 389 -126 389 -126 389 -94 c 256,73,74
 389 -62 389 -62 351.5 -49 c 128,-1,75
 314 -36 314 -36 256 -30 c 0,63,64
EndSplineSet
Substitution2: "'smcp' Lowercase to Small Capitals in Latin lookup 1 subtable" G.sc
Substitution2: "'aalt' Access All Alternates in Latin lookup 0 subtable" G.sc
EndChar

StartChar: h
Encoding: 104 104 73
Width: 551
Flags: W
LayerCount: 2
Back
Fore
SplineSet
498 0 m 1,0,-1
 374 0 l 1,1,-1
 374 269 l 2,2,3
 374 339 374 339 350.5 372.5 c 128,-1,4
 327 406 327 406 275 406 c 0,5,6
 218 406 218 406 181 363 c 1,7,-1
 181 0 l 1,8,-1
 57 0 l 1,9,-1
 57 750 l 1,10,-1
 181 750 l 1,11,-1
 181 474 l 1,12,13
 233 508 233 508 285 508 c 0,14,15
 498 508 498 508 498 269 c 2,16,-1
 498 0 l 1,0,-1
EndSplineSet
Substitution2: "'smcp' Lowercase to Small Capitals in Latin lookup 1 subtable" H.sc
Substitution2: "'aalt' Access All Alternates in Latin lookup 0 subtable" H.sc
EndChar

StartChar: i
Encoding: 105 105 74
Width: 240
Flags: W
LayerCount: 2
Back
Fore
SplineSet
182 576 m 1,0,-1
 58 576 l 1,1,-1
 58 700 l 1,2,-1
 182 700 l 1,3,-1
 182 576 l 1,0,-1
182 0 m 1,4,-1
 58 0 l 1,5,-1
 58 500 l 1,6,-1
 182 500 l 1,7,-1
 182 0 l 1,4,-1
EndSplineSet
Substitution2: "'smcp' Lowercase to Small Capitals in Latin lookup 1 subtable" I.sc
Substitution2: "'aalt' Access All Alternates in Latin lookup 0 subtable" I.sc
EndChar

StartChar: j
Encoding: 106 106 75
Width: 240
Flags: W
LayerCount: 2
Back
Fore
SplineSet
54 -242 m 2,0,-1
 9 -242 l 1,1,-1
 -2 -140 l 1,2,3
 18 -140 18 -140 30 -138.5 c 128,-1,4
 42 -137 42 -137 48 -129.5 c 128,-1,5
 54 -122 54 -122 56 -106 c 128,-1,6
 58 -90 58 -90 58 -60 c 2,7,-1
 58 500 l 1,8,-1
 182 500 l 1,9,-1
 182 -111 l 2,10,11
 182 -169 182 -169 150 -205.5 c 128,-1,12
 118 -242 118 -242 54 -242 c 2,0,-1
182 576 m 1,13,-1
 58 576 l 1,14,-1
 58 700 l 1,15,-1
 182 700 l 1,16,-1
 182 576 l 1,13,-1
EndSplineSet
Substitution2: "'smcp' Lowercase to Small Capitals in Latin lookup 1 subtable" J.sc
Substitution2: "'aalt' Access All Alternates in Latin lookup 0 subtable" J.sc
EndChar

StartChar: k
Encoding: 107 107 76
Width: 485
Flags: W
LayerCount: 2
Back
Fore
SplineSet
181 0 m 1,0,-1
 57 0 l 1,1,-1
 57 750 l 1,2,-1
 181 750 l 1,3,-1
 181 295 l 1,4,-1
 340 500 l 1,5,-1
 480 500 l 1,6,-1
 297 260 l 1,7,-1
 480 0 l 1,8,-1
 340 0 l 1,9,-1
 181 222 l 1,10,-1
 181 0 l 1,0,-1
EndSplineSet
Substitution2: "'smcp' Lowercase to Small Capitals in Latin lookup 1 subtable" K.sc
Substitution2: "'aalt' Access All Alternates in Latin lookup 0 subtable" K.sc
EndChar

StartChar: l
Encoding: 108 108 77
Width: 263
Flags: W
LayerCount: 2
Back
Fore
SplineSet
242 92 m 1,0,-1
 231 -10 l 1,1,-1
 186 -10 l 2,2,3
 122 -10 122 -10 90 26.5 c 128,-1,4
 58 63 58 63 58 121 c 2,5,-1
 58 750 l 1,6,-1
 182 750 l 1,7,-1
 182 172 l 2,8,9
 182 143 182 143 183.5 127 c 128,-1,10
 185 111 185 111 191 103.5 c 128,-1,11
 197 96 197 96 209 94 c 128,-1,12
 221 92 221 92 242 92 c 1,0,-1
EndSplineSet
Substitution2: "'smcp' Lowercase to Small Capitals in Latin lookup 1 subtable" L.sc
Substitution2: "'aalt' Access All Alternates in Latin lookup 0 subtable" L.sc
EndChar

StartChar: m
Encoding: 109 109 78
Width: 866
Flags: W
LayerCount: 2
Back
Fore
SplineSet
813 0 m 1,0,-1
 689 0 l 1,1,-1
 689 269 l 2,2,3
 689 341 689 341 668 373.5 c 128,-1,4
 647 406 647 406 596 406 c 0,5,6
 540 406 540 406 518.5 380 c 128,-1,7
 497 354 497 354 497 309 c 2,8,-1
 497 0 l 1,9,-1
 374 0 l 1,10,-1
 374 269 l 2,11,12
 374 308 374 308 368.5 334.5 c 128,-1,13
 363 361 363 361 351 377 c 128,-1,14
 339 393 339 393 320 399.5 c 128,-1,15
 301 406 301 406 274 406 c 0,16,17
 217 406 217 406 182 365 c 1,18,-1
 182 0 l 1,19,-1
 58 0 l 1,20,-1
 58 500 l 1,21,-1
 160 500 l 1,22,-1
 167 461 l 1,23,24
 225 508 225 508 295 508 c 0,25,26
 341 508 341 508 382 488.5 c 128,-1,27
 423 469 423 469 448 432 c 1,28,29
 455 446 455 446 470.5 459.5 c 128,-1,30
 486 473 486 473 507.5 484 c 128,-1,31
 529 495 529 495 556 501.5 c 128,-1,32
 583 508 583 508 614 508 c 0,33,34
 663 508 663 508 700.5 491 c 128,-1,35
 738 474 738 474 763 443 c 128,-1,36
 788 412 788 412 800.5 367.5 c 128,-1,37
 813 323 813 323 813 269 c 2,38,-1
 813 0 l 1,0,-1
EndSplineSet
Substitution2: "'smcp' Lowercase to Small Capitals in Latin lookup 1 subtable" M.sc
Substitution2: "'aalt' Access All Alternates in Latin lookup 0 subtable" M.sc
EndChar

StartChar: n
Encoding: 110 110 79
Width: 552
Flags: W
LayerCount: 2
Back
Fore
SplineSet
499 0 m 1,0,-1
 375 0 l 1,1,-1
 375 269 l 2,2,3
 375 339 375 339 351.5 372.5 c 128,-1,4
 328 406 328 406 276 406 c 0,5,6
 219 406 219 406 182 363 c 1,7,-1
 182 0 l 1,8,-1
 58 0 l 1,9,-1
 58 500 l 1,10,-1
 174 500 l 1,11,-1
 176 470 l 1,12,13
 229 508 229 508 286 508 c 0,14,15
 499 508 499 508 499 269 c 2,16,-1
 499 0 l 1,0,-1
EndSplineSet
Substitution2: "'smcp' Lowercase to Small Capitals in Latin lookup 1 subtable" N.sc
Substitution2: "'aalt' Access All Alternates in Latin lookup 0 subtable" N.sc
EndChar

StartChar: o
Encoding: 111 111 80
Width: 562
Flags: W
LayerCount: 2
Back
Fore
SplineSet
465 65 m 0,0,1
 397 -10 397 -10 281 -10 c 0,2,3
 223 -10 223 -10 176.5 10 c 128,-1,4
 130 30 130 30 97 65 c 128,-1,5
 64 100 64 100 46 147 c 128,-1,6
 28 194 28 194 28 249 c 0,7,8
 28 303 28 303 46 350.5 c 128,-1,9
 64 398 64 398 97 433 c 128,-1,10
 130 468 130 468 176.5 488 c 128,-1,11
 223 508 223 508 281 508 c 256,12,13
 339 508 339 508 386 487.5 c 128,-1,14
 433 467 433 467 466 432 c 128,-1,15
 499 397 499 397 516.5 350 c 128,-1,16
 534 303 534 303 534 249 c 0,17,18
 534 140 534 140 465 65 c 0,0,1
373 363 m 0,19,20
 340 406 340 406 281 406 c 0,21,22
 221 406 221 406 188 363 c 128,-1,23
 155 320 155 320 155 249 c 256,24,25
 155 178 155 178 188 135 c 128,-1,26
 221 92 221 92 281 92 c 256,27,28
 341 92 341 92 374 136 c 128,-1,29
 407 180 407 180 407 249 c 0,30,31
 407 320 407 320 373 363 c 0,19,20
EndSplineSet
Substitution2: "'smcp' Lowercase to Small Capitals in Latin lookup 1 subtable" O.sc
Substitution2: "'aalt' Access All Alternates in Latin lookup 0 subtable" O.sc
EndChar

StartChar: p
Encoding: 112 112 81
Width: 572
Flags: W
LayerCount: 2
Back
Fore
SplineSet
299 -10 m 0,0,1
 232 -10 232 -10 182 24 c 1,2,-1
 182 -242 l 1,3,-1
 58 -242 l 1,4,-1
 58 500 l 1,5,-1
 166 500 l 1,6,-1
 176 471 l 1,7,8
 231 508 231 508 299 508 c 0,9,10
 356 508 356 508 401.5 488 c 128,-1,11
 447 468 447 468 478.5 433 c 128,-1,12
 510 398 510 398 527 350.5 c 128,-1,13
 544 303 544 303 544 249 c 256,14,15
 544 195 544 195 527.5 148 c 128,-1,16
 511 101 511 101 480 65.5 c 128,-1,17
 449 30 449 30 403 10 c 128,-1,18
 357 -10 357 -10 299 -10 c 0,0,1
291 406 m 0,19,20
 233 406 233 406 204.5 364 c 128,-1,21
 176 322 176 322 176 249 c 256,22,23
 176 176 176 176 204.5 134 c 128,-1,24
 233 92 233 92 291 92 c 0,25,26
 351 92 351 92 384 134.5 c 128,-1,27
 417 177 417 177 417 249 c 256,28,29
 417 321 417 321 384 363.5 c 128,-1,30
 351 406 351 406 291 406 c 0,19,20
EndSplineSet
Substitution2: "'smcp' Lowercase to Small Capitals in Latin lookup 1 subtable" P.sc
Substitution2: "'aalt' Access All Alternates in Latin lookup 0 subtable" P.sc
EndChar

StartChar: q
Encoding: 113 113 82
Width: 572
Flags: W
LayerCount: 2
Back
Fore
SplineSet
273 -10 m 0,0,1
 214 -10 214 -10 168.5 10 c 128,-1,2
 123 30 123 30 92 65.5 c 128,-1,3
 61 101 61 101 44.5 148 c 128,-1,4
 28 195 28 195 28 249 c 256,5,6
 28 303 28 303 45 350.5 c 128,-1,7
 62 398 62 398 93.5 433 c 128,-1,8
 125 468 125 468 170.5 488 c 128,-1,9
 216 508 216 508 273 508 c 0,10,11
 341 508 341 508 396 471 c 1,12,-1
 406 500 l 1,13,-1
 514 500 l 1,14,-1
 514 -242 l 1,15,-1
 390 -242 l 1,16,-1
 390 24 l 1,17,18
 340 -10 340 -10 273 -10 c 0,0,1
281 406 m 0,19,20
 221 406 221 406 188 363.5 c 128,-1,21
 155 321 155 321 155 249 c 256,22,23
 155 177 155 177 188 134.5 c 128,-1,24
 221 92 221 92 281 92 c 0,25,26
 339 92 339 92 367.5 134 c 128,-1,27
 396 176 396 176 396 249 c 256,28,29
 396 322 396 322 367.5 364 c 128,-1,30
 339 406 339 406 281 406 c 0,19,20
EndSplineSet
Substitution2: "'smcp' Lowercase to Small Capitals in Latin lookup 1 subtable" Q.sc
Substitution2: "'aalt' Access All Alternates in Latin lookup 0 subtable" Q.sc
EndChar

StartChar: r
Encoding: 114 114 83
Width: 342
Flags: W
LayerCount: 2
Back
Fore
SplineSet
343 508 m 1,0,-1
 319 391 l 1,1,-1
 273 391 l 2,2,3
 243 391 243 391 218 377 c 128,-1,4
 193 363 193 363 182 341 c 1,5,-1
 182 0 l 1,6,-1
 58 0 l 1,7,-1
 58 500 l 1,8,-1
 174 500 l 1,9,-1
 177 447 l 1,10,11
 235 508 235 508 310 508 c 2,12,-1
 343 508 l 1,0,-1
EndSplineSet
Substitution2: "'smcp' Lowercase to Small Capitals in Latin lookup 1 subtable" R.sc
Substitution2: "'aalt' Access All Alternates in Latin lookup 0 subtable" R.sc
EndChar

StartChar: s
Encoding: 115 115 84
Width: 423
Flags: W
LayerCount: 2
Back
Fore
SplineSet
200 -10 m 0,0,1
 86 -10 86 -10 31 27 c 1,2,-1
 42 133 l 1,3,4
 54 124 54 124 72.5 115 c 128,-1,5
 91 106 91 106 111.5 99 c 128,-1,6
 132 92 132 92 154 87.5 c 128,-1,7
 176 83 176 83 196 83 c 0,8,9
 238 83 238 83 255 99 c 128,-1,10
 272 115 272 115 272 138 c 0,11,12
 272 160 272 160 260 171.5 c 128,-1,13
 248 183 248 183 225.5 191.5 c 128,-1,14
 203 200 203 200 171 209.5 c 128,-1,15
 139 219 139 219 99 239 c 0,16,17
 69 256 69 256 54 280.5 c 128,-1,18
 39 305 39 305 36 349 c 0,19,20
 36 380 36 380 46.5 408.5 c 128,-1,21
 57 437 57 437 79 459 c 128,-1,22
 101 481 101 481 135.5 494.5 c 128,-1,23
 170 508 170 508 219 508 c 0,24,25
 265 508 265 508 309.5 497 c 128,-1,26
 354 486 354 486 376 471 c 1,27,-1
 365 365 l 1,28,29
 354 375 354 375 338.5 385 c 128,-1,30
 323 395 323 395 305 402.5 c 128,-1,31
 287 410 287 410 267 414.5 c 128,-1,32
 247 419 247 419 228 419 c 0,33,34
 192 419 192 419 168.5 405.5 c 128,-1,35
 145 392 145 392 145 364 c 0,36,37
 145 340 145 340 160.5 328 c 128,-1,38
 176 316 176 316 202 306 c 2,39,-1
 219 301 l 2,40,41
 225 299 225 299 238.5 295.5 c 128,-1,42
 252 292 252 292 259 290 c 0,43,44
 290 281 290 281 315.5 269 c 128,-1,45
 341 257 341 257 359 239 c 128,-1,46
 377 221 377 221 386.5 196 c 128,-1,47
 396 171 396 171 396 137 c 0,48,49
 396 -10 396 -10 200 -10 c 0,0,1
EndSplineSet
Substitution2: "'smcp' Lowercase to Small Capitals in Latin lookup 1 subtable" S.sc
Substitution2: "'aalt' Access All Alternates in Latin lookup 0 subtable" S.sc
EndChar

StartChar: t
Encoding: 116 116 85
Width: 344
Flags: W
LayerCount: 2
Back
Fore
SplineSet
321 92 m 1,0,-1
 310 -10 l 1,1,-1
 221 -10 l 2,2,3
 188 -10 188 -10 163 0.5 c 128,-1,4
 138 11 138 11 121 28.5 c 128,-1,5
 104 46 104 46 95.5 70 c 128,-1,6
 87 94 87 94 87 121 c 2,7,-1
 87 398 l 1,8,-1
 16 398 l 1,9,-1
 27 500 l 1,10,-1
 87 500 l 1,11,-1
 87 610 l 1,12,-1
 211 623 l 1,13,-1
 211 500 l 1,14,-1
 321 500 l 1,15,-1
 321 398 l 1,16,-1
 211 398 l 1,17,-1
 211 172 l 2,18,19
 211 143 211 143 213 127 c 128,-1,20
 215 111 215 111 222.5 103 c 128,-1,21
 230 95 230 95 245 93.5 c 128,-1,22
 260 92 260 92 287 92 c 2,23,-1
 321 92 l 1,0,-1
EndSplineSet
Substitution2: "'smcp' Lowercase to Small Capitals in Latin lookup 1 subtable" T.sc
Substitution2: "'aalt' Access All Alternates in Latin lookup 0 subtable" T.sc
EndChar

StartChar: u
Encoding: 117 117 86
Width: 552
Flags: W
LayerCount: 2
Back
Fore
SplineSet
494 0 m 1,0,-1
 378 0 l 1,1,-1
 376 30 l 1,2,3
 324 -10 324 -10 265 -10 c 0,4,5
 53 -10 53 -10 53 231 c 2,6,-1
 53 500 l 1,7,-1
 177 500 l 1,8,-1
 177 231 l 2,9,10
 177 161 177 161 200.5 127.5 c 128,-1,11
 224 94 224 94 276 94 c 0,12,13
 334 94 334 94 370 136 c 1,14,-1
 370 500 l 1,15,-1
 494 500 l 1,16,-1
 494 0 l 1,0,-1
EndSplineSet
Substitution2: "'smcp' Lowercase to Small Capitals in Latin lookup 1 subtable" U.sc
Substitution2: "'aalt' Access All Alternates in Latin lookup 0 subtable" U.sc
EndChar

StartChar: v
Encoding: 118 118 87
Width: 496
Flags: W
LayerCount: 2
Back
Fore
SplineSet
493 500 m 1,0,-1
 301 0 l 1,1,-1
 195 0 l 1,2,-1
 3 500 l 1,3,-1
 125 500 l 1,4,-1
 248 154 l 1,5,-1
 371 500 l 1,6,-1
 493 500 l 1,0,-1
EndSplineSet
Substitution2: "'smcp' Lowercase to Small Capitals in Latin lookup 1 subtable" V.sc
Substitution2: "'aalt' Access All Alternates in Latin lookup 0 subtable" V.sc
EndChar

StartChar: w
Encoding: 119 119 88
Width: 726
Flags: W
LayerCount: 2
Back
Fore
SplineSet
716 500 m 1,0,-1
 570 0 l 1,1,-1
 466 0 l 1,2,-1
 363 326 l 1,3,-1
 260 0 l 1,4,-1
 156 0 l 1,5,-1
 10 500 l 1,6,-1
 131 500 l 1,7,-1
 217 151 l 1,8,-1
 311 490 l 1,9,-1
 415 490 l 1,10,-1
 508 151 l 1,11,-1
 595 500 l 1,12,-1
 716 500 l 1,0,-1
EndSplineSet
Substitution2: "'smcp' Lowercase to Small Capitals in Latin lookup 1 subtable" W.sc
Substitution2: "'aalt' Access All Alternates in Latin lookup 0 subtable" W.sc
EndChar

StartChar: x
Encoding: 120 120 89
Width: 491
Flags: W
LayerCount: 2
Back
Fore
SplineSet
481 0 m 1,0,-1
 333 0 l 1,1,-1
 242 141 l 1,2,-1
 158 0 l 1,3,-1
 10 0 l 1,4,-1
 171 250 l 1,5,-1
 10 500 l 1,6,-1
 158 500 l 1,7,-1
 249 359 l 1,8,-1
 333 500 l 1,9,-1
 481 500 l 1,10,-1
 319 250 l 1,11,-1
 481 0 l 1,0,-1
EndSplineSet
Substitution2: "'smcp' Lowercase to Small Capitals in Latin lookup 1 subtable" X.sc
Substitution2: "'aalt' Access All Alternates in Latin lookup 0 subtable" X.sc
EndChar

StartChar: y
Encoding: 121 121 90
Width: 537
Flags: W
LayerCount: 2
Back
Fore
SplineSet
535 500 m 1,0,-1
 222 -242 l 1,1,-1
 98 -242 l 1,2,-1
 209 33 l 1,3,-1
 1 500 l 1,4,-1
 139 500 l 1,5,-1
 267 178 l 1,6,-1
 397 500 l 1,7,-1
 535 500 l 1,0,-1
EndSplineSet
Substitution2: "'smcp' Lowercase to Small Capitals in Latin lookup 1 subtable" Y.sc
Substitution2: "'aalt' Access All Alternates in Latin lookup 0 subtable" Y.sc
EndChar

StartChar: z
Encoding: 122 122 91
Width: 472
Flags: W
LayerCount: 2
Back
Fore
SplineSet
452 500 m 1,0,-1
 231 110 l 1,1,-1
 441 110 l 1,2,-1
 441 0 l 1,3,-1
 21 0 l 1,4,-1
 242 390 l 1,5,-1
 31 390 l 1,6,-1
 31 500 l 1,7,-1
 452 500 l 1,0,-1
EndSplineSet
Substitution2: "'smcp' Lowercase to Small Capitals in Latin lookup 1 subtable" Z.sc
Substitution2: "'aalt' Access All Alternates in Latin lookup 0 subtable" Z.sc
EndChar

StartChar: braceleft
Encoding: 123 123 92
Width: 319
Flags: W
LayerCount: 2
Back
Fore
SplineSet
89 29 m 0,0,1
 89 36 89 36 90 55 c 128,-1,2
 91 74 91 74 92.5 95.5 c 128,-1,3
 94 117 94 117 95 137 c 128,-1,4
 96 157 96 157 96 166 c 0,5,6
 96 220 96 220 78.5 251.5 c 128,-1,7
 61 283 61 283 14 307 c 1,8,9
 37 319 37 319 52.5 332 c 128,-1,10
 68 345 68 345 78 361.5 c 128,-1,11
 88 378 88 378 92 399 c 128,-1,12
 96 420 96 420 96 449 c 0,13,14
 96 458 96 458 95 478 c 128,-1,15
 94 498 94 498 92.5 519.5 c 128,-1,16
 91 541 91 541 90 560 c 128,-1,17
 89 579 89 579 89 585 c 0,18,19
 89 668 89 668 138.5 709 c 128,-1,20
 188 750 188 750 307 750 c 1,21,-1
 307 641 l 1,22,-1
 287 641 l 2,23,24
 252 641 252 641 232.5 635 c 128,-1,25
 213 629 213 629 202.5 615.5 c 128,-1,26
 192 602 192 602 189.5 580.5 c 128,-1,27
 187 559 187 559 187 529 c 0,28,29
 187 518 187 518 188.5 493 c 128,-1,30
 190 468 190 468 190 418 c 0,31,32
 190 338 190 338 139 307 c 1,33,34
 190 275 190 275 190 204 c 0,35,36
 190 199 190 199 189.5 187 c 128,-1,37
 189 175 189 175 188.5 161.5 c 128,-1,38
 188 148 188 148 187.5 135 c 128,-1,39
 187 122 187 122 187 115 c 2,40,-1
 187 60 l 2,41,42
 188 35 188 35 192.5 18 c 128,-1,43
 197 1 197 1 208 -9 c 128,-1,44
 219 -19 219 -19 238 -23.5 c 128,-1,45
 257 -28 257 -28 287 -28 c 0,46,47
 292 -28 292 -28 297 -27.5 c 128,-1,48
 302 -27 302 -27 307 -27 c 1,49,-1
 307 -136 l 1,50,51
 190 -136 190 -136 139.5 -96 c 128,-1,52
 89 -56 89 -56 89 29 c 0,0,1
EndSplineSet
EndChar

StartChar: bar
Encoding: 124 124 93
Width: 234
Flags: W
LayerCount: 2
Back
Fore
SplineSet
167 -210 m 1,0,-1
 67 -210 l 1,1,-1
 67 750 l 1,2,-1
 167 750 l 1,3,-1
 167 -210 l 1,0,-1
EndSplineSet
EndChar

StartChar: braceright
Encoding: 125 125 94
Width: 319
Flags: W
LayerCount: 2
Back
Fore
SplineSet
230 29 m 0,0,1
 230 -56 230 -56 179.5 -96 c 128,-1,2
 129 -136 129 -136 12 -136 c 1,3,-1
 12 -27 l 1,4,5
 17 -27 17 -27 22 -27.5 c 128,-1,6
 27 -28 27 -28 32 -28 c 0,7,8
 72 -28 72 -28 92.5 -19.5 c 128,-1,9
 113 -11 113 -11 122 6.5 c 128,-1,10
 131 24 131 24 131.5 51 c 128,-1,11
 132 78 132 78 132 115 c 0,12,13
 132 122 132 122 131.5 135 c 128,-1,14
 131 148 131 148 130.5 161.5 c 128,-1,15
 130 175 130 175 129.5 187 c 128,-1,16
 129 199 129 199 129 204 c 0,17,18
 129 275 129 275 180 307 c 1,19,20
 129 338 129 338 129 418 c 0,21,22
 129 424 129 424 129.5 435.5 c 128,-1,23
 130 447 130 447 130.5 459.5 c 128,-1,24
 131 472 131 472 131.5 483.5 c 128,-1,25
 132 495 132 495 132 500 c 0,26,27
 132 539 132 539 131 566 c 128,-1,28
 130 593 130 593 121 609.5 c 128,-1,29
 112 626 112 626 91.5 633.5 c 128,-1,30
 71 641 71 641 32 641 c 2,31,-1
 12 641 l 1,32,-1
 12 750 l 1,33,34
 131 750 131 750 180.5 709 c 128,-1,35
 230 668 230 668 230 585 c 0,36,37
 230 579 230 579 229 560.5 c 128,-1,38
 228 542 228 542 226.5 520 c 128,-1,39
 225 498 225 498 224 478 c 128,-1,40
 223 458 223 458 223 449 c 0,41,42
 223 420 223 420 227 399 c 128,-1,43
 231 378 231 378 241 361.5 c 128,-1,44
 251 345 251 345 266.5 332 c 128,-1,45
 282 319 282 319 305 307 c 1,46,47
 258 283 258 283 240.5 251.5 c 128,-1,48
 223 220 223 220 223 166 c 0,49,50
 223 157 223 157 224 137 c 128,-1,51
 225 117 225 117 226.5 95 c 128,-1,52
 228 73 228 73 229 54 c 128,-1,53
 230 35 230 35 230 29 c 0,0,1
EndSplineSet
EndChar

StartChar: asciitilde
Encoding: 126 126 95
Width: 466
Flags: W
LayerCount: 2
Back
Fore
SplineSet
304 176 m 0,0,1
 291 176 291 176 272 182.5 c 128,-1,2
 253 189 253 189 234.5 197 c 128,-1,3
 216 205 216 205 200 211.5 c 128,-1,4
 184 218 184 218 177 218 c 0,5,6
 157 218 157 218 145 203.5 c 128,-1,7
 133 189 133 189 129 171 c 1,8,-1
 46 191 l 1,9,10
 48 215 48 215 59.5 233.5 c 128,-1,11
 71 252 71 252 88.5 265.5 c 128,-1,12
 106 279 106 279 127.5 286 c 128,-1,13
 149 293 149 293 171 293 c 0,14,15
 186 293 186 293 203.5 286.5 c 128,-1,16
 221 280 221 280 237.5 272 c 128,-1,17
 254 264 254 264 267.5 257.5 c 128,-1,18
 281 251 281 251 289 251 c 0,19,20
 311 251 311 251 327 266 c 128,-1,21
 343 281 343 281 346 298 c 1,22,-1
 422 278 l 1,23,24
 419 257 419 257 409 238.5 c 128,-1,25
 399 220 399 220 383.5 206 c 128,-1,26
 368 192 368 192 348 184 c 128,-1,27
 328 176 328 176 304 176 c 0,0,1
EndSplineSet
EndChar

StartChar: exclamdown
Encoding: 161 161 97
Width: 230
Flags: W
LayerCount: 2
Back
Fore
SplineSet
53 -250 m 1,0,-1
 73 300 l 1,1,-1
 157 300 l 1,2,-1
 177 -250 l 1,3,-1
 53 -250 l 1,0,-1
53 500 m 1,4,-1
 177 500 l 1,5,-1
 177 376 l 1,6,-1
 53 376 l 1,7,-1
 53 500 l 1,4,-1
EndSplineSet
EndChar

StartChar: cent
Encoding: 162 162 98
Width: 476
Flags: W
LayerCount: 2
Back
Fore
SplineSet
324 -32 m 1,0,-1
 217 -32 l 1,1,-1
 233 91 l 1,2,3
 185 98 185 98 147.5 120.5 c 128,-1,4
 110 143 110 143 85 177.5 c 128,-1,5
 60 212 60 212 47 255.5 c 128,-1,6
 34 299 34 299 34 347 c 0,7,8
 34 396 34 396 47 439.5 c 128,-1,9
 60 483 60 483 85.5 517.5 c 128,-1,10
 111 552 111 552 148 575 c 128,-1,11
 185 598 185 598 233 605 c 1,12,-1
 217 748 l 1,13,-1
 324 748 l 1,14,-1
 308 606 l 1,15,16
 352 604 352 604 378.5 593.5 c 128,-1,17
 405 583 405 583 427 570 c 1,18,-1
 416 464 l 1,19,20
 354 505 354 505 292 505 c 0,21,22
 226 505 226 505 193.5 461.5 c 128,-1,23
 161 418 161 418 161 348 c 256,24,25
 161 278 161 278 193.5 234.5 c 128,-1,26
 226 191 226 191 292 191 c 0,27,28
 354 191 354 191 416 232 c 1,29,-1
 427 126 l 1,30,31
 406 112 406 112 379.5 102 c 128,-1,32
 353 92 353 92 308 89 c 1,33,-1
 324 -32 l 1,0,-1
EndSplineSet
EndChar

StartChar: sterling
Encoding: 163 163 99
Width: 525
Flags: W
LayerCount: 2
Back
Fore
SplineSet
423 551 m 1,0,1
 411 582 411 582 395 594.5 c 128,-1,2
 379 607 379 607 348 607 c 0,3,4
 322 607 322 607 307 599 c 128,-1,5
 292 591 292 591 285 575 c 128,-1,6
 278 559 278 559 276.5 535 c 128,-1,7
 275 511 275 511 275 480 c 2,8,-1
 275 407 l 1,9,-1
 460 407 l 1,10,-1
 436 303 l 1,11,-1
 270 303 l 1,12,13
 268 275 268 275 266 253.5 c 128,-1,14
 264 232 264 232 259.5 212 c 128,-1,15
 255 192 255 192 248.5 171.5 c 128,-1,16
 242 151 242 151 231 124 c 1,17,-1
 465 124 l 1,18,-1
 465 0 l 1,19,-1
 31 0 l 1,20,21
 89 70 89 70 114.5 144 c 128,-1,22
 140 218 140 218 148 303 c 1,23,-1
 59 303 l 1,24,-1
 83 407 l 1,25,-1
 154 407 l 1,26,-1
 154 500 l 2,27,28
 154 537 154 537 160.5 574 c 128,-1,29
 167 611 167 611 186.5 640 c 128,-1,30
 206 669 206 669 241.5 687.5 c 128,-1,31
 277 706 277 706 335 706 c 0,32,33
 364 706 364 706 391.5 700.5 c 128,-1,34
 419 695 419 695 441 684 c 128,-1,35
 463 673 463 673 478.5 655 c 128,-1,36
 494 637 494 637 500 612 c 1,37,-1
 423 551 l 1,0,1
EndSplineSet
EndChar

StartChar: currency
Encoding: 164 164 100
Width: 628
Flags: W
LayerCount: 2
Back
Fore
SplineSet
574 69 m 1,0,-1
 514 19 l 1,1,-1
 439 118 l 1,2,3
 386 89 386 89 314 89 c 256,4,5
 242 89 242 89 189 118 c 1,6,-1
 115 19 l 1,7,-1
 55 69 l 1,8,-1
 127 166 l 1,9,10
 61 238 61 238 61 348 c 0,11,12
 61 459 61 459 128 530 c 1,13,-1
 55 627 l 1,14,-1
 115 677 l 1,15,-1
 189 578 l 1,16,17
 245 607 245 607 314 607 c 256,18,19
 383 607 383 607 439 577 c 1,20,-1
 514 677 l 1,21,-1
 574 627 l 1,22,-1
 501 529 l 1,23,24
 567 457 567 457 567 348 c 256,25,26
 567 239 567 239 500 166 c 1,27,-1
 574 69 l 1,0,-1
406 462 m 0,28,29
 373 505 373 505 314 505 c 0,30,31
 254 505 254 505 221 462 c 128,-1,32
 188 419 188 419 188 348 c 256,33,34
 188 277 188 277 221 234 c 128,-1,35
 254 191 254 191 314 191 c 256,36,37
 374 191 374 191 407 235 c 128,-1,38
 440 279 440 279 440 348 c 0,39,40
 440 419 440 419 406 462 c 0,28,29
EndSplineSet
EndChar

StartChar: yen
Encoding: 165 165 101
Width: 706
Flags: W
LayerCount: 2
Back
Fore
SplineSet
435 337 m 1,0,-1
 583 337 l 1,1,-1
 557 268 l 1,2,-1
 417 268 l 1,3,-1
 417 207 l 1,4,-1
 583 207 l 1,5,-1
 557 138 l 1,6,-1
 417 138 l 1,7,-1
 417 0 l 1,8,-1
 289 0 l 1,9,-1
 289 138 l 1,10,-1
 124 138 l 1,11,-1
 149 207 l 1,12,-1
 289 207 l 1,13,-1
 289 268 l 1,14,-1
 124 268 l 1,15,-1
 148 337 l 1,16,-1
 271 337 l 1,17,-1
 27 700 l 1,18,-1
 160 700 l 1,19,-1
 353 424 l 1,20,-1
 546 700 l 1,21,-1
 679 700 l 1,22,-1
 435 337 l 1,0,-1
EndSplineSet
EndChar

StartChar: brokenbar
Encoding: 166 166 102
Width: 224
Flags: W
LayerCount: 2
Back
Fore
SplineSet
156 284 m 1,0,-1
 68 284 l 1,1,-1
 68 750 l 1,2,-1
 156 750 l 1,3,-1
 156 284 l 1,0,-1
156 -210 m 1,4,-1
 68 -210 l 1,5,-1
 68 190 l 1,6,-1
 156 190 l 1,7,-1
 156 -210 l 1,4,-1
EndSplineSet
EndChar

StartChar: section
Encoding: 167 167 103
Width: 460
Flags: W
LayerCount: 2
Back
Fore
SplineSet
335 186 m 1,0,1
 378 150 378 150 378 82 c 0,2,3
 378 49 378 49 368.5 19 c 128,-1,4
 359 -11 359 -11 338.5 -34.5 c 128,-1,5
 318 -58 318 -58 285.5 -71.5 c 128,-1,6
 253 -85 253 -85 207 -85 c 0,7,8
 188 -85 188 -85 166 -81.5 c 128,-1,9
 144 -78 144 -78 124 -72.5 c 128,-1,10
 104 -67 104 -67 87.5 -59.5 c 128,-1,11
 71 -52 71 -52 64 -44 c 1,12,-1
 73 61 l 1,13,14
 143 11 143 11 202 11 c 0,15,16
 292 11 292 11 292 69 c 0,17,18
 292 96 292 96 273.5 112.5 c 128,-1,19
 255 129 255 129 226.5 141.5 c 128,-1,20
 198 154 198 154 165.5 166.5 c 128,-1,21
 133 179 133 179 104.5 199 c 128,-1,22
 76 219 76 219 57.5 250.5 c 128,-1,23
 39 282 39 282 39 332 c 0,24,25
 39 443 39 443 124 479 c 1,26,27
 81 513 81 513 81 583 c 0,28,29
 81 616 81 616 90.5 646 c 128,-1,30
 100 676 100 676 120.5 699.5 c 128,-1,31
 141 723 141 723 173.5 736.5 c 128,-1,32
 206 750 206 750 253 750 c 0,33,34
 272 750 272 750 293.5 746.5 c 128,-1,35
 315 743 315 743 335.5 737 c 128,-1,36
 356 731 356 731 372 723.5 c 128,-1,37
 388 716 388 716 396 709 c 1,38,-1
 387 604 l 1,39,40
 317 654 317 654 258 654 c 0,41,42
 168 654 168 654 168 596 c 0,43,44
 168 568 168 568 186.5 551.5 c 128,-1,45
 205 535 205 535 233.5 522.5 c 128,-1,46
 262 510 262 510 294.5 497.5 c 128,-1,47
 327 485 327 485 355.5 465 c 128,-1,48
 384 445 384 445 402.5 414 c 128,-1,49
 421 383 421 383 421 333 c 0,50,51
 421 221 421 221 335 186 c 1,0,1
197 408 m 2,52,53
 188 408 188 408 177 403.5 c 128,-1,54
 166 399 166 399 156.5 391.5 c 128,-1,55
 147 384 147 384 140.5 374 c 128,-1,56
 134 364 134 364 134 354 c 0,57,58
 134 280 134 280 265 247 c 0,59,60
 274 247 274 247 285 253.5 c 128,-1,61
 296 260 296 260 305.5 269.5 c 128,-1,62
 315 279 315 279 321.5 290 c 128,-1,63
 328 301 328 301 328 311 c 0,64,65
 324 346 324 346 300 367 c 128,-1,66
 276 388 276 388 232 399 c 2,67,-1
 197 408 l 2,52,53
EndSplineSet
EndChar

StartChar: dieresis
Encoding: 168 168 104
Width: 422
Flags: W
LayerCount: 2
Back
Fore
SplineSet
335 594 m 1,0,-1
 238 594 l 1,1,-1
 238 700 l 1,2,-1
 335 700 l 1,3,-1
 335 594 l 1,0,-1
184 594 m 1,4,-1
 87 594 l 1,5,-1
 87 700 l 1,6,-1
 184 700 l 1,7,-1
 184 594 l 1,4,-1
EndSplineSet
EndChar

StartChar: copyright
Encoding: 169 169 105
Width: 701
Flags: W
LayerCount: 2
Back
Fore
SplineSet
40 365 m 0,0,1
 40 439 40 439 63.5 499.5 c 128,-1,2
 87 560 87 560 128.5 603 c 128,-1,3
 170 646 170 646 227 669.5 c 128,-1,4
 284 693 284 693 351 693 c 256,5,6
 418 693 418 693 475 669 c 128,-1,7
 532 645 532 645 573.5 602 c 128,-1,8
 615 559 615 559 638 498.5 c 128,-1,9
 661 438 661 438 661 365 c 256,10,11
 661 292 661 292 638 232 c 128,-1,12
 615 172 615 172 574 128.5 c 128,-1,13
 533 85 533 85 476 61 c 128,-1,14
 419 37 419 37 351 37 c 256,15,16
 283 37 283 37 226 61 c 128,-1,17
 169 85 169 85 127.5 128.5 c 128,-1,18
 86 172 86 172 63 232 c 128,-1,19
 40 292 40 292 40 365 c 0,0,1
351 623 m 256,20,21
 294 623 294 623 250 604 c 128,-1,22
 206 585 206 585 176.5 551 c 128,-1,23
 147 517 147 517 132 469.5 c 128,-1,24
 117 422 117 422 117 365 c 256,25,26
 117 308 117 308 132 260.5 c 128,-1,27
 147 213 147 213 176 178.5 c 128,-1,28
 205 144 205 144 249 125 c 128,-1,29
 293 106 293 106 351 106 c 0,30,31
 408 106 408 106 452 125 c 128,-1,32
 496 144 496 144 525 178.5 c 128,-1,33
 554 213 554 213 569 260.5 c 128,-1,34
 584 308 584 308 584 365 c 256,35,36
 584 422 584 422 569 469.5 c 128,-1,37
 554 517 554 517 524.5 551 c 128,-1,38
 495 585 495 585 451.5 604 c 128,-1,39
 408 623 408 623 351 623 c 256,20,21
359 190 m 0,40,41
 323 190 323 190 293 202.5 c 128,-1,42
 263 215 263 215 241 238 c 128,-1,43
 219 261 219 261 207 293 c 128,-1,44
 195 325 195 325 195 363 c 0,45,46
 195 402 195 402 207 434 c 128,-1,47
 219 466 219 466 240.5 489 c 128,-1,48
 262 512 262 512 292.5 524.5 c 128,-1,49
 323 537 323 537 359 537 c 0,50,51
 410 537 410 537 461 514 c 1,52,-1
 451 429 l 1,53,54
 394 452 394 452 359 452 c 256,55,56
 324 452 324 452 305 428.5 c 128,-1,57
 286 405 286 405 286 363 c 256,58,59
 286 321 286 321 305 297.5 c 128,-1,60
 324 274 324 274 359 274 c 0,61,62
 400 274 400 274 451 299 c 1,63,-1
 461 215 l 1,64,65
 418 190 418 190 359 190 c 0,40,41
EndSplineSet
EndChar

StartChar: ordfeminine
Encoding: 170 170 106
Width: 361
Flags: W
LayerCount: 2
Back
Fore
SplineSet
325 519 m 1,0,-1
 321 434 l 1,1,2
 231 434 231 434 206 454 c 1,3,4
 184 434 184 434 112 434 c 0,5,6
 79 434 79 434 54.5 457.5 c 128,-1,7
 30 481 30 481 30 526 c 0,8,9
 30 556 30 556 50 575.5 c 128,-1,10
 70 595 70 595 97 606.5 c 128,-1,11
 124 618 124 618 150.5 623 c 128,-1,12
 177 628 177 628 189 629 c 1,13,14
 188 629 188 629 186 632 c 128,-1,15
 184 635 184 635 179.5 638 c 128,-1,16
 175 641 175 641 168 644 c 128,-1,17
 161 647 161 647 149 647 c 0,18,19
 141 647 141 647 127 645 c 128,-1,20
 113 643 113 643 99 640 c 128,-1,21
 85 637 85 637 74 634.5 c 128,-1,22
 63 632 63 632 60 632 c 2,23,-1
 55 713 l 1,24,25
 116 732 116 732 178 732 c 0,26,27
 201 732 201 732 222 726 c 128,-1,28
 243 720 243 720 258.5 709.5 c 128,-1,29
 274 699 274 699 283.5 683.5 c 128,-1,30
 293 668 293 668 293 650 c 2,31,-1
 293 543 l 2,32,33
 293 519 293 519 309 519 c 2,34,-1
 325 519 l 1,0,-1
190 501 m 1,35,-1
 190 563 l 1,36,37
 140 552 140 552 140 528 c 0,38,39
 140 515 140 515 150.5 507 c 128,-1,40
 161 499 161 499 176 499 c 0,41,42
 178 499 178 499 181.5 499.5 c 128,-1,43
 185 500 185 500 190 501 c 1,35,-1
EndSplineSet
EndChar

StartChar: guillemotleft
Encoding: 171 171 107
Width: 607
Flags: W
LayerCount: 2
Back
Fore
SplineSet
570 78 m 1,0,-1
 423 78 l 1,1,-1
 271 284 l 1,2,-1
 423 490 l 1,3,-1
 570 490 l 1,4,-1
 418 284 l 1,5,-1
 570 78 l 1,0,-1
310 78 m 1,6,-1
 163 78 l 1,7,-1
 11 284 l 1,8,-1
 163 490 l 1,9,-1
 310 490 l 1,10,-1
 158 284 l 1,11,-1
 310 78 l 1,6,-1
EndSplineSet
EndChar

StartChar: logicalnot
Encoding: 172 172 108
Width: 588
Flags: W
LayerCount: 2
Back
Fore
SplineSet
520 151 m 1,0,-1
 426 151 l 1,1,-1
 426 312 l 1,2,-1
 60 312 l 1,3,-1
 60 406 l 1,4,-1
 520 406 l 1,5,-1
 520 151 l 1,0,-1
EndSplineSet
EndChar

StartChar: uni00AD
Encoding: 173 173 109
Width: 418
Flags: W
LayerCount: 2
Back
Fore
SplineSet
364 230 m 1,0,-1
 54 230 l 1,1,-1
 54 324 l 1,2,-1
 364 324 l 1,3,-1
 364 230 l 1,0,-1
EndSplineSet
EndChar

StartChar: registered
Encoding: 174 174 110
Width: 701
Flags: W
LayerCount: 2
Back
Fore
SplineSet
40 365 m 0,0,1
 40 439 40 439 63.5 499.5 c 128,-1,2
 87 560 87 560 128.5 603 c 128,-1,3
 170 646 170 646 227 669.5 c 128,-1,4
 284 693 284 693 351 693 c 256,5,6
 418 693 418 693 475 669 c 128,-1,7
 532 645 532 645 573.5 602 c 128,-1,8
 615 559 615 559 638 498.5 c 128,-1,9
 661 438 661 438 661 365 c 256,10,11
 661 292 661 292 638 232 c 128,-1,12
 615 172 615 172 574 128.5 c 128,-1,13
 533 85 533 85 476 61 c 128,-1,14
 419 37 419 37 351 37 c 256,15,16
 283 37 283 37 226 61 c 128,-1,17
 169 85 169 85 127.5 128.5 c 128,-1,18
 86 172 86 172 63 232 c 128,-1,19
 40 292 40 292 40 365 c 0,0,1
118 365 m 256,20,21
 118 308 118 308 133 261 c 128,-1,22
 148 214 148 214 177 179.5 c 128,-1,23
 206 145 206 145 250 126 c 128,-1,24
 294 107 294 107 351 107 c 256,25,26
 408 107 408 107 451.5 126 c 128,-1,27
 495 145 495 145 524.5 179.5 c 128,-1,28
 554 214 554 214 568.5 261.5 c 128,-1,29
 583 309 583 309 583 365 c 0,30,31
 583 422 583 422 568 469 c 128,-1,32
 553 516 553 516 524 550 c 128,-1,33
 495 584 495 584 451.5 603 c 128,-1,34
 408 622 408 622 351 622 c 256,35,36
 294 622 294 622 250.5 603 c 128,-1,37
 207 584 207 584 177.5 550.5 c 128,-1,38
 148 517 148 517 133 469.5 c 128,-1,39
 118 422 118 422 118 365 c 256,20,21
498 203 m 1,40,-1
 405 203 l 1,41,-1
 343 315 l 1,42,-1
 313 315 l 1,43,-1
 313 203 l 1,44,-1
 225 203 l 1,45,-1
 225 538 l 1,46,-1
 352 538 l 2,47,48
 471 538 471 538 471 428 c 0,49,50
 471 400 471 400 457 376.5 c 128,-1,51
 443 353 443 353 424 341 c 1,52,-1
 498 203 l 1,40,-1
339 463 m 2,53,-1
 313 463 l 1,54,-1
 313 396 l 1,55,-1
 337 396 l 2,56,57
 363 396 363 396 372 404.5 c 128,-1,58
 381 413 381 413 381 430 c 256,59,60
 381 447 381 447 373 455 c 128,-1,61
 365 463 365 463 339 463 c 2,53,-1
EndSplineSet
EndChar

StartChar: degree
Encoding: 176 176 111
Width: 325
Flags: W
LayerCount: 2
Back
Fore
SplineSet
162 482 m 256,0,1
 132 482 132 482 107.5 492.5 c 128,-1,2
 83 503 83 503 66 521 c 128,-1,3
 49 539 49 539 39.5 564 c 128,-1,4
 30 589 30 589 30 618 c 256,5,6
 30 647 30 647 39.5 672 c 128,-1,7
 49 697 49 697 66 715.5 c 128,-1,8
 83 734 83 734 107.5 744.5 c 128,-1,9
 132 755 132 755 162 755 c 256,10,11
 192 755 192 755 217 744.5 c 128,-1,12
 242 734 242 734 259 715.5 c 128,-1,13
 276 697 276 697 285.5 672 c 128,-1,14
 295 647 295 647 295 618 c 256,15,16
 295 589 295 589 285.5 564 c 128,-1,17
 276 539 276 539 259 521 c 128,-1,18
 242 503 242 503 217 492.5 c 128,-1,19
 192 482 192 482 162 482 c 256,0,1
162 704 m 0,20,21
 132 704 132 704 115 680.5 c 128,-1,22
 98 657 98 657 98 618 c 256,23,24
 98 579 98 579 115 556 c 128,-1,25
 132 533 132 533 162 533 c 0,26,27
 193 533 193 533 210 556 c 128,-1,28
 227 579 227 579 227 618 c 256,29,30
 227 657 227 657 210 680.5 c 128,-1,31
 193 704 193 704 162 704 c 0,20,21
EndSplineSet
EndChar

StartChar: plusminus
Encoding: 177 177 112
Width: 487
Flags: W
LayerCount: 2
Back
Fore
SplineSet
428 310 m 1,0,-1
 290 310 l 1,1,-1
 290 182 l 1,2,-1
 196 182 l 1,3,-1
 196 310 l 1,4,-1
 58 310 l 1,5,-1
 58 404 l 1,6,-1
 196 404 l 1,7,-1
 196 532 l 1,8,-1
 290 532 l 1,9,-1
 290 404 l 1,10,-1
 428 404 l 1,11,-1
 428 310 l 1,0,-1
428 30 m 1,12,-1
 58 30 l 1,13,-1
 58 124 l 1,14,-1
 428 124 l 1,15,-1
 428 30 l 1,12,-1
EndSplineSet
EndChar

StartChar: uni00B2
Encoding: 178 178 113
Width: 309
Flags: W
LayerCount: 2
Back
Fore
SplineSet
276 320 m 1,0,-1
 17 320 l 1,1,2
 173 534 173 534 173 590 c 0,3,4
 173 633 173 633 137 633 c 0,5,6
 117 633 117 633 101.5 623.5 c 128,-1,7
 86 614 86 614 74 602 c 128,-1,8
 62 590 62 590 55 578.5 c 128,-1,9
 48 567 48 567 45 563 c 2,10,-1
 33 650 l 1,11,12
 65 706 65 706 154 706 c 0,13,14
 183 706 183 706 203.5 698 c 128,-1,15
 224 690 224 690 237.5 676 c 128,-1,16
 251 662 251 662 257 644 c 128,-1,17
 263 626 263 626 263 607 c 0,18,19
 263 540 263 540 182 419 c 1,20,-1
 276 419 l 1,21,-1
 276 320 l 1,0,-1
EndSplineSet
EndChar

StartChar: uni00B3
Encoding: 179 179 114
Width: 305
Flags: W
LayerCount: 2
Back
Fore
SplineSet
124 312 m 0,0,1
 109 312 109 312 91.5 315 c 128,-1,2
 74 318 74 318 58.5 322.5 c 128,-1,3
 43 327 43 327 31.5 332 c 128,-1,4
 20 337 20 337 17 342 c 1,5,-1
 41 432 l 1,6,7
 72 410 72 410 117 410 c 0,8,9
 184 410 184 410 184 432 c 0,10,11
 184 489 184 489 140 489 c 2,12,-1
 74 489 l 1,13,-1
 81 561 l 1,14,-1
 115 561 l 2,15,16
 131 561 131 561 141 564.5 c 128,-1,17
 151 568 151 568 156.5 573.5 c 128,-1,18
 162 579 162 579 164 584 c 128,-1,19
 166 589 166 589 166 592 c 0,20,21
 166 629 166 629 103 629 c 0,22,23
 69 629 69 629 56 616 c 1,24,-1
 43 681 l 1,25,26
 55 692 55 692 81 699 c 128,-1,27
 107 706 107 706 131 706 c 0,28,29
 171 706 171 706 196.5 695 c 128,-1,30
 222 684 222 684 236 668 c 128,-1,31
 250 652 250 652 255 633.5 c 128,-1,32
 260 615 260 615 260 600 c 0,33,34
 260 571 260 571 251.5 551 c 128,-1,35
 243 531 243 531 240 530 c 1,36,37
 243 523 243 523 249 514.5 c 128,-1,38
 255 506 255 506 260.5 495 c 128,-1,39
 266 484 266 484 270.5 470.5 c 128,-1,40
 275 457 275 457 275 440 c 0,41,42
 275 410 275 410 263 386 c 128,-1,43
 251 362 251 362 230 345.5 c 128,-1,44
 209 329 209 329 181.5 320.5 c 128,-1,45
 154 312 154 312 124 312 c 0,0,1
EndSplineSet
EndChar

StartChar: acute
Encoding: 180 180 115
Width: 303
Flags: W
LayerCount: 2
Back
Fore
SplineSet
245 646 m 1,0,-1
 58 585 l 1,1,-1
 58 659 l 1,2,-1
 245 750 l 1,3,-1
 245 646 l 1,0,-1
EndSplineSet
EndChar

StartChar: uni00B5
Encoding: 181 181 116
Width: 609
Flags: W
LayerCount: 2
Back
Fore
SplineSet
570 92 m 1,0,-1
 559 -10 l 1,1,-1
 514 -10 l 2,2,3
 437 -10 437 -10 406 42 c 1,4,5
 384 21 384 21 349.5 6.5 c 128,-1,6
 315 -8 315 -8 282 -8 c 0,7,8
 233 -8 233 -8 193 6 c 1,9,-1
 193 -242 l 1,10,-1
 69 -242 l 1,11,-1
 69 500 l 1,12,-1
 193 500 l 1,13,-1
 193 231 l 2,14,15
 193 161 193 161 216.5 127.5 c 128,-1,16
 240 94 240 94 292 94 c 0,17,18
 350 94 350 94 386 136 c 1,19,-1
 386 500 l 1,20,-1
 510 500 l 1,21,-1
 510 172 l 2,22,23
 510 145 510 145 511.5 129 c 128,-1,24
 513 113 513 113 517.5 104.5 c 128,-1,25
 522 96 522 96 531 94 c 128,-1,26
 540 92 540 92 554 92 c 2,27,-1
 570 92 l 1,0,-1
EndSplineSet
EndChar

StartChar: paragraph
Encoding: 182 182 117
Width: 625
Flags: W
LayerCount: 2
Back
Fore
SplineSet
580 593 m 1,0,-1
 511 593 l 1,1,-1
 511 0 l 1,2,-1
 423 0 l 1,3,-1
 423 593 l 1,4,-1
 361 593 l 1,5,-1
 361 0 l 1,6,-1
 292 0 l 1,7,-1
 292 229 l 1,8,9
 231 233 231 233 183 253.5 c 128,-1,10
 135 274 135 274 101.5 306 c 128,-1,11
 68 338 68 338 50.5 379.5 c 128,-1,12
 33 421 33 421 33 466 c 0,13,14
 33 513 33 513 52.5 555.5 c 128,-1,15
 72 598 72 598 109 630 c 128,-1,16
 146 662 146 662 199 681 c 128,-1,17
 252 700 252 700 320 700 c 2,18,-1
 580 700 l 1,19,-1
 580 593 l 1,0,-1
EndSplineSet
EndChar

StartChar: periodcentered
Encoding: 183 183 118
Width: 232
Flags: W
LayerCount: 2
Back
Fore
SplineSet
178 213 m 1,0,-1
 54 213 l 1,1,-1
 54 343 l 1,2,-1
 178 343 l 1,3,-1
 178 213 l 1,0,-1
EndSplineSet
EndChar

StartChar: cedilla
Encoding: 184 184 119
Width: 303
Flags: W
LayerCount: 2
Back
Fore
SplineSet
303 -52 m 1,0,-1
 203 -185 l 1,1,-1
 129 -194 l 1,2,-1
 199 -61 l 1,3,-1
 303 -52 l 1,0,-1
EndSplineSet
EndChar

StartChar: uni00B9
Encoding: 185 185 120
Width: 221
Flags: W
LayerCount: 2
Back
Fore
SplineSet
163 320 m 1,0,-1
 67 320 l 1,1,-1
 67 573 l 1,2,-1
 28 565 l 1,3,-1
 28 639 l 1,4,5
 47 639 47 639 65 658 c 128,-1,6
 83 677 83 677 87 698 c 1,7,-1
 163 698 l 1,8,-1
 163 320 l 1,0,-1
EndSplineSet
EndChar

StartChar: ordmasculine
Encoding: 186 186 121
Width: 377
Flags: W
LayerCount: 2
Back
Fore
SplineSet
304 478 m 256,0,1
 260 434 260 434 188 434 c 0,2,3
 151 434 151 434 121.5 445.5 c 128,-1,4
 92 457 92 457 71 477.5 c 128,-1,5
 50 498 50 498 39 525 c 128,-1,6
 28 552 28 552 28 583 c 0,7,8
 28 613 28 613 39 640.5 c 128,-1,9
 50 668 50 668 71 688 c 128,-1,10
 92 708 92 708 121.5 720 c 128,-1,11
 151 732 151 732 188 732 c 0,12,13
 224 732 224 732 253.5 720 c 128,-1,14
 283 708 283 708 304 687.5 c 128,-1,15
 325 667 325 667 336.5 640 c 128,-1,16
 348 613 348 613 348 583 c 0,17,18
 348 522 348 522 304 478 c 256,0,1
228 633 m 0,19,20
 212 655 212 655 188 655 c 0,21,22
 163 655 163 655 148 633 c 128,-1,23
 133 611 133 611 133 583 c 256,24,25
 133 555 133 555 147.5 533 c 128,-1,26
 162 511 162 511 188 511 c 256,27,28
 214 511 214 511 228.5 533 c 128,-1,29
 243 555 243 555 243 583 c 0,30,31
 243 612 243 612 228 633 c 0,19,20
EndSplineSet
EndChar

StartChar: guillemotright
Encoding: 187 187 122
Width: 607
Flags: W
LayerCount: 2
Back
Fore
SplineSet
596 284 m 1,0,-1
 444 78 l 1,1,-1
 297 78 l 1,2,-1
 449 284 l 1,3,-1
 297 490 l 1,4,-1
 444 490 l 1,5,-1
 596 284 l 1,0,-1
336 284 m 1,6,-1
 184 78 l 1,7,-1
 37 78 l 1,8,-1
 189 284 l 1,9,-1
 37 490 l 1,10,-1
 184 490 l 1,11,-1
 336 284 l 1,6,-1
EndSplineSet
EndChar

StartChar: questiondown
Encoding: 191 191 126
Width: 438
Flags: W
LayerCount: 2
Back
Fore
SplineSet
201 300 m 1,0,-1
 285 300 l 1,1,2
 288 255 288 255 288 247 c 0,3,4
 288 200 288 200 268.5 161.5 c 128,-1,5
 249 123 249 123 225.5 88 c 128,-1,6
 202 53 202 53 182.5 17.5 c 128,-1,7
 163 -18 163 -18 163 -59 c 0,8,9
 163 -105 163 -105 191 -128.5 c 128,-1,10
 219 -152 219 -152 264 -152 c 0,11,12
 341 -152 341 -152 388 -87 c 1,13,-1
 416 -179 l 1,14,15
 368 -250 368 -250 256 -250 c 0,16,17
 206 -250 206 -250 167 -233 c 128,-1,18
 128 -216 128 -216 101 -189 c 128,-1,19
 74 -162 74 -162 60 -128 c 128,-1,20
 46 -94 46 -94 46 -60 c 0,21,22
 45 -26 45 -26 61.5 8 c 128,-1,23
 78 42 78 42 101 74 c 2,24,-1
 146 137 l 2,25,26
 169 169 169 169 184.5 208.5 c 128,-1,27
 200 248 200 248 201 287 c 2,28,-1
 201 300 l 1,0,-1
181 500 m 1,29,-1
 305 500 l 1,30,-1
 305 376 l 1,31,-1
 181 376 l 1,32,-1
 181 500 l 1,29,-1
EndSplineSet
EndChar

StartChar: AE
Encoding: 198 198 133
Width: 867
Flags: W
LayerCount: 2
Back
Fore
SplineSet
833 0 m 1,0,-1
 397 0 l 1,1,-1
 397 169 l 1,2,-1
 203 169 l 1,3,-1
 122 0 l 1,4,-1
 -11 0 l 1,5,-1
 330 700 l 1,6,-1
 824 700 l 1,7,-1
 824 576 l 1,8,-1
 528 576 l 1,9,-1
 528 427 l 1,10,-1
 756 427 l 1,11,-1
 756 303 l 1,12,-1
 528 303 l 1,13,-1
 528 124 l 1,14,-1
 833 124 l 1,15,-1
 833 0 l 1,0,-1
397 293 m 1,16,-1
 397 573 l 1,17,-1
 262 293 l 1,18,-1
 397 293 l 1,16,-1
EndSplineSet
EndChar

StartChar: Idieresis
Encoding: 207 207 142
Width: 282
Flags: W
LayerCount: 2
Back
Fore
SplineSet
205 0 m 1,0,-1
 77 0 l 1,1,-1
 77 700 l 1,2,-1
 205 700 l 1,3,-1
 205 0 l 1,0,-1
265 794 m 1,4,-1
 168 794 l 1,5,-1
 168 900 l 1,6,-1
 265 900 l 1,7,-1
 265 794 l 1,4,-1
114 794 m 1,8,-1
 17 794 l 1,9,-1
 17 900 l 1,10,-1
 114 900 l 1,11,-1
 114 794 l 1,8,-1
EndSplineSet
EndChar

StartChar: Eth
Encoding: 208 208 143
Width: 731
Flags: W
LayerCount: 2
Back
Fore
SplineSet
350 0 m 2,0,-1
 88 0 l 1,1,-1
 88 299 l 1,2,-1
 -4 299 l 1,3,-1
 -4 393 l 1,4,-1
 88 393 l 1,5,-1
 88 700 l 1,6,-1
 350 700 l 2,7,8
 426 700 426 700 489.5 675.5 c 128,-1,9
 553 651 553 651 598.5 605.5 c 128,-1,10
 644 560 644 560 669.5 495.5 c 128,-1,11
 695 431 695 431 695 350 c 256,12,13
 695 269 695 269 669.5 204 c 128,-1,14
 644 139 644 139 598.5 94 c 128,-1,15
 553 49 553 49 489.5 24.5 c 128,-1,16
 426 0 426 0 350 0 c 2,0,-1
350 577 m 2,17,-1
 216 577 l 1,18,-1
 216 393 l 1,19,-1
 338 393 l 1,20,-1
 338 299 l 1,21,-1
 216 299 l 1,22,-1
 216 123 l 1,23,-1
 350 123 l 2,24,25
 450 123 450 123 502.5 182.5 c 128,-1,26
 555 242 555 242 555 350 c 256,27,28
 555 458 555 458 502.5 517.5 c 128,-1,29
 450 577 450 577 350 577 c 2,17,-1
EndSplineSet
EndChar

StartChar: multiply
Encoding: 215 215 150
Width: 448
Flags: W
LayerCount: 2
Back
Fore
SplineSet
392 170 m 1,0,-1
 331 109 l 1,1,-1
 224 216 l 1,2,-1
 117 109 l 1,3,-1
 56 170 l 1,4,-1
 163 277 l 1,5,-1
 56 384 l 1,6,-1
 117 445 l 1,7,-1
 224 338 l 1,8,-1
 331 445 l 1,9,-1
 392 384 l 1,10,-1
 285 277 l 1,11,-1
 392 170 l 1,0,-1
EndSplineSet
EndChar

StartChar: Oslash
Encoding: 216 216 151
Width: 760
Flags: W
LayerCount: 2
Back
Fore
SplineSet
380 -14 m 0,0,1
 292 -14 292 -14 219 22 c 1,2,-1
 183 -31 l 1,3,-1
 49 -31 l 1,4,-1
 130 87 l 1,5,6
 35 188 35 188 35 350 c 0,7,8
 35 432 35 432 61 499 c 128,-1,9
 87 566 87 566 132.5 614 c 128,-1,10
 178 662 178 662 241.5 688 c 128,-1,11
 305 714 305 714 380 714 c 0,12,13
 467 714 467 714 536 680 c 1,14,-1
 561 716 l 1,15,-1
 695 716 l 1,16,-1
 626 615 l 1,17,18
 725 514 725 514 725 350 c 0,19,20
 725 269 725 269 699.5 202 c 128,-1,21
 674 135 674 135 628 87 c 128,-1,22
 582 39 582 39 519 12.5 c 128,-1,23
 456 -14 456 -14 380 -14 c 0,0,1
548 502 m 1,24,-1
 291 126 l 1,25,26
 331 109 331 109 380 109 c 256,27,28
 429 109 429 109 467.5 126.5 c 128,-1,29
 506 144 506 144 532 175.5 c 128,-1,30
 558 207 558 207 571.5 251.5 c 128,-1,31
 585 296 585 296 585 350 c 0,32,33
 585 441 585 441 548 502 c 1,24,-1
380 591 m 0,34,35
 330 591 330 591 292 573.5 c 128,-1,36
 254 556 254 556 228 524.5 c 128,-1,37
 202 493 202 493 188.5 448.5 c 128,-1,38
 175 404 175 404 175 350 c 0,39,40
 175 260 175 260 209 202 c 1,41,-1
 464 575 l 1,42,43
 428 591 428 591 380 591 c 0,34,35
EndSplineSet
EndChar

StartChar: Thorn
Encoding: 222 222 157
Width: 564
Flags: W
LayerCount: 2
Back
Fore
SplineSet
205 114 m 1,0,-1
 205 0 l 1,1,-1
 77 0 l 1,2,-1
 77 700 l 1,3,-1
 205 700 l 1,4,-1
 205 584 l 1,5,-1
 275 584 l 2,6,7
 348 584 348 584 404 576.5 c 128,-1,8
 460 569 460 569 498 545 c 128,-1,9
 536 521 536 521 555.5 477.5 c 128,-1,10
 575 434 575 434 575 362 c 0,11,12
 575 287 575 287 550.5 238.5 c 128,-1,13
 526 190 526 190 489.5 162.5 c 128,-1,14
 453 135 453 135 410 124.5 c 128,-1,15
 367 114 367 114 330 114 c 2,16,-1
 205 114 l 1,0,-1
205 477 m 1,17,-1
 205 234 l 1,18,-1
 313 234 l 2,19,20
 383 234 383 234 414 262 c 128,-1,21
 445 290 445 290 445 361 c 0,22,23
 445 391 445 391 439 413 c 128,-1,24
 433 435 433 435 417.5 449 c 128,-1,25
 402 463 402 463 376 470 c 128,-1,26
 350 477 350 477 310 477 c 2,27,-1
 205 477 l 1,17,-1
EndSplineSet
EndChar

StartChar: germandbls
Encoding: 223 223 158
Width: 565
Flags: W
LayerCount: 2
Back
Fore
SplineSet
323 -10 m 0,0,1
 309 -10 309 -10 294.5 -9 c 128,-1,2
 280 -8 280 -8 263 -5 c 1,3,-1
 263 92 l 1,4,5
 301 92 301 92 330 93 c 128,-1,6
 359 94 359 94 378.5 100 c 128,-1,7
 398 106 398 106 407.5 119 c 128,-1,8
 417 132 417 132 417 156 c 0,9,10
 417 196 417 196 395.5 223 c 128,-1,11
 374 250 374 250 347.5 272 c 128,-1,12
 321 294 321 294 299.5 314 c 128,-1,13
 278 334 278 334 278 360 c 0,14,15
 278 381 278 381 291.5 400 c 128,-1,16
 305 419 305 419 321.5 441.5 c 128,-1,17
 338 464 338 464 352 491.5 c 128,-1,18
 366 519 366 519 366 556 c 0,19,20
 366 581 366 581 359 598 c 128,-1,21
 352 615 352 615 341 625.5 c 128,-1,22
 330 636 330 636 316 641 c 128,-1,23
 302 646 302 646 287 646 c 0,24,25
 250 646 250 646 231 621.5 c 128,-1,26
 212 597 212 597 212 560 c 2,27,-1
 212 -136 l 1,28,-1
 88 -136 l 1,29,-1
 88 398 l 1,30,-1
 17 398 l 1,31,-1
 28 500 l 1,32,-1
 88 500 l 1,33,-1
 88 555 l 2,34,35
 88 600 88 600 104.5 636 c 128,-1,36
 121 672 121 672 149 697.5 c 128,-1,37
 177 723 177 723 213 736.5 c 128,-1,38
 249 750 249 750 288 750 c 0,39,40
 324 750 324 750 359.5 739.5 c 128,-1,41
 395 729 395 729 423 706.5 c 128,-1,42
 451 684 451 684 468 648.5 c 128,-1,43
 485 613 485 613 485 562 c 0,44,45
 485 521 485 521 473 489.5 c 128,-1,46
 461 458 461 458 447 434.5 c 128,-1,47
 433 411 433 411 421 394.5 c 128,-1,48
 409 378 409 378 409 367 c 0,49,50
 409 352 409 352 430 336.5 c 128,-1,51
 451 321 451 321 476.5 298 c 128,-1,52
 502 275 502 275 523 241 c 128,-1,53
 544 207 544 207 544 155 c 0,54,55
 544 109 544 109 526 77.5 c 128,-1,56
 508 46 508 46 477.5 26.5 c 128,-1,57
 447 7 447 7 407 -1.5 c 128,-1,58
 367 -10 367 -10 323 -10 c 0,0,1
EndSplineSet
EndChar

StartChar: ae
Encoding: 230 230 165
Width: 794
Flags: W
LayerCount: 2
Back
Fore
SplineSet
758 223 m 1,0,-1
 441 223 l 1,1,2
 451 157 451 157 490.5 124.5 c 128,-1,3
 530 92 530 92 584 92 c 0,4,5
 601 92 601 92 621 95 c 128,-1,6
 641 98 641 98 661.5 103.5 c 128,-1,7
 682 109 682 109 702 116.5 c 128,-1,8
 722 124 722 124 738 133 c 1,9,-1
 744 28 l 1,10,11
 671 -10 671 -10 578 -10 c 0,12,13
 430 -10 430 -10 378 84 c 1,14,15
 300 -15 300 -15 184 -15 c 0,16,17
 106 -15 106 -15 63 23 c 128,-1,18
 20 61 20 61 20 127 c 0,19,20
 20 185 20 185 50.5 221 c 128,-1,21
 81 257 81 257 125 277 c 128,-1,22
 169 297 169 297 217.5 304.5 c 128,-1,23
 266 312 266 312 302 314 c 1,24,25
 300 362 300 362 280 381.5 c 128,-1,26
 260 401 260 401 211 401 c 0,27,28
 152 401 152 401 74 363 c 1,29,-1
 63 464 l 1,30,31
 156 508 156 508 244 508 c 0,32,33
 304 508 304 508 341 488 c 128,-1,34
 378 468 378 468 395 419 c 1,35,36
 402 436 402 436 418.5 452 c 128,-1,37
 435 468 435 468 458 480.5 c 128,-1,38
 481 493 481 493 509.5 500.5 c 128,-1,39
 538 508 538 508 568 508 c 0,40,41
 612 508 612 508 648.5 492.5 c 128,-1,42
 685 477 685 477 711 449 c 128,-1,43
 737 421 737 421 751.5 381 c 128,-1,44
 766 341 766 341 766 293 c 0,45,46
 766 263 766 263 758 223 c 1,0,-1
564 406 m 0,47,48
 519 406 519 406 486 379 c 128,-1,49
 453 352 453 352 444 307 c 1,50,-1
 655 307 l 1,51,52
 655 347 655 347 633 376.5 c 128,-1,53
 611 406 611 406 564 406 c 0,47,48
310 230 m 1,54,55
 281 229 281 229 252.5 223.5 c 128,-1,56
 224 218 224 218 201 206.5 c 128,-1,57
 178 195 178 195 164 178 c 128,-1,58
 150 161 150 161 150 138 c 0,59,60
 150 112 150 112 167.5 96.5 c 128,-1,61
 185 81 185 81 210 81 c 0,62,63
 229 81 229 81 247 89.5 c 128,-1,64
 265 98 265 98 279 113.5 c 128,-1,65
 293 129 293 129 302 151.5 c 128,-1,66
 311 174 311 174 311 202 c 0,67,68
 311 210 311 210 311 217.5 c 128,-1,69
 311 225 311 225 310 230 c 1,54,55
EndSplineSet
Substitution2: "'smcp' Lowercase to Small Capitals in Latin lookup 1 subtable" AE.sc
Substitution2: "'aalt' Access All Alternates in Latin lookup 0 subtable" AE.sc
EndChar

StartChar: idieresis
Encoding: 239 239 174
Width: 240
Flags: W
LayerCount: 2
Back
Fore
SplineSet
182 0 m 1,0,-1
 58 0 l 1,1,-1
 58 500 l 1,2,-1
 182 500 l 1,3,-1
 182 0 l 1,0,-1
244 594 m 1,4,-1
 147 594 l 1,5,-1
 147 700 l 1,6,-1
 244 700 l 1,7,-1
 244 594 l 1,4,-1
93 594 m 1,8,-1
 -4 594 l 1,9,-1
 -4 700 l 1,10,-1
 93 700 l 1,11,-1
 93 594 l 1,8,-1
EndSplineSet
EndChar

StartChar: eth
Encoding: 240 240 175
Width: 501
Flags: W
LayerCount: 2
Back
Fore
SplineSet
242 -13 m 0,0,1
 193 -13 193 -13 151.5 3 c 128,-1,2
 110 19 110 19 80 48 c 128,-1,3
 50 77 50 77 33 117 c 128,-1,4
 16 157 16 157 16 205 c 0,5,6
 16 248 16 248 30.5 288 c 128,-1,7
 45 328 45 328 72 359 c 128,-1,8
 99 390 99 390 138.5 408 c 128,-1,9
 178 426 178 426 228 426 c 0,10,11
 295 426 295 426 345 387 c 1,12,13
 343 402 343 402 336 425 c 128,-1,14
 329 448 329 448 319.5 470.5 c 128,-1,15
 310 493 310 493 299 511.5 c 128,-1,16
 288 530 288 530 277 538 c 1,17,18
 211 489 211 489 140 481 c 1,19,-1
 101 554 l 1,20,21
 153 554 153 554 221 598 c 1,22,23
 164 646 164 646 103 648 c 1,24,-1
 144 701 l 1,25,26
 217 700 217 700 289 649 c 1,27,28
 326 683 326 683 345 711 c 1,29,-1
 412 695 l 1,30,31
 374 635 374 635 343 601 c 1,32,33
 403 538 403 538 437.5 449 c 128,-1,34
 472 360 472 360 472 258 c 0,35,36
 472 181 472 181 451.5 129 c 128,-1,37
 431 77 431 77 398 45.5 c 128,-1,38
 365 14 365 14 324 0.5 c 128,-1,39
 283 -13 283 -13 242 -13 c 0,0,1
241 329 m 0,40,41
 215 329 215 329 195.5 320 c 128,-1,42
 176 311 176 311 162 295.5 c 128,-1,43
 148 280 148 280 141 260.5 c 128,-1,44
 134 241 134 241 134 220 c 0,45,46
 134 193 134 193 141 169 c 128,-1,47
 148 145 148 145 162 127 c 128,-1,48
 176 109 176 109 196.5 98.5 c 128,-1,49
 217 88 217 88 244 88 c 0,50,51
 289 88 289 88 320.5 117.5 c 128,-1,52
 352 147 352 147 352 207 c 0,53,54
 352 265 352 265 323.5 297 c 128,-1,55
 295 329 295 329 241 329 c 0,40,41
EndSplineSet
EndChar

StartChar: divide
Encoding: 247 247 182
Width: 561
Flags: W
LayerCount: 2
Back
Fore
SplineSet
338 404 m 1,0,-1
 214 404 l 1,1,-1
 214 534 l 1,2,-1
 338 534 l 1,3,-1
 338 404 l 1,0,-1
510 230 m 1,4,-1
 50 230 l 1,5,-1
 50 324 l 1,6,-1
 510 324 l 1,7,-1
 510 230 l 1,4,-1
338 20 m 1,8,-1
 214 20 l 1,9,-1
 214 150 l 1,10,-1
 338 150 l 1,11,-1
 338 20 l 1,8,-1
EndSplineSet
EndChar

StartChar: oslash
Encoding: 248 248 183
Width: 562
Flags: W
LayerCount: 2
Back
Fore
SplineSet
281 -10 m 0,0,1
 248 -10 248 -10 211 -2 c 1,2,-1
 195 -36 l 1,3,-1
 89 -36 l 1,4,-1
 125 39 l 1,5,6
 77 74 77 74 52.5 128.5 c 128,-1,7
 28 183 28 183 28 249 c 0,8,9
 28 303 28 303 46 350.5 c 128,-1,10
 64 398 64 398 97 433 c 128,-1,11
 130 468 130 468 176.5 488 c 128,-1,12
 223 508 223 508 281 508 c 0,13,14
 298 508 298 508 314.5 506 c 128,-1,15
 331 504 331 504 348 500 c 1,16,-1
 364 534 l 1,17,-1
 473 534 l 1,18,-1
 436 459 l 1,19,20
 534 384 534 384 534 249 c 0,21,22
 534 195 534 195 516.5 148 c 128,-1,23
 499 101 499 101 466 66 c 128,-1,24
 433 31 433 31 386 10.5 c 128,-1,25
 339 -10 339 -10 281 -10 c 0,0,1
383 349 m 1,26,-1
 258 94 l 1,27,28
 265 93 265 93 270.5 92.5 c 128,-1,29
 276 92 276 92 281 92 c 0,30,31
 341 92 341 92 374 134.5 c 128,-1,32
 407 177 407 177 407 249 c 0,33,34
 407 305 407 305 383 349 c 1,26,-1
281 406 m 0,35,36
 221 406 221 406 188 363.5 c 128,-1,37
 155 321 155 321 155 249 c 0,38,39
 155 190 155 190 178 149 c 1,40,-1
 301 404 l 1,41,42
 295 405 295 405 290 405.5 c 128,-1,43
 285 406 285 406 281 406 c 0,35,36
EndSplineSet
EndChar

StartChar: thorn
Encoding: 254 254 189
Width: 571
Flags: W
LayerCount: 2
Back
Fore
SplineSet
298 -10 m 0,0,1
 231 -10 231 -10 181 24 c 1,2,-1
 181 -242 l 1,3,-1
 57 -242 l 1,4,-1
 57 750 l 1,5,-1
 181 750 l 1,6,-1
 181 475 l 1,7,8
 230 508 230 508 298 508 c 0,9,10
 355 508 355 508 400.5 488 c 128,-1,11
 446 468 446 468 477.5 433 c 128,-1,12
 509 398 509 398 526 350.5 c 128,-1,13
 543 303 543 303 543 249 c 256,14,15
 543 195 543 195 526.5 148 c 128,-1,16
 510 101 510 101 479 65.5 c 128,-1,17
 448 30 448 30 402 10 c 128,-1,18
 356 -10 356 -10 298 -10 c 0,0,1
290 406 m 0,19,20
 232 406 232 406 203.5 364 c 128,-1,21
 175 322 175 322 175 249 c 256,22,23
 175 176 175 176 203.5 134 c 128,-1,24
 232 92 232 92 290 92 c 0,25,26
 350 92 350 92 383 134.5 c 128,-1,27
 416 177 416 177 416 249 c 256,28,29
 416 321 416 321 383 363.5 c 128,-1,30
 350 406 350 406 290 406 c 0,19,20
EndSplineSet
EndChar

StartChar: dotlessi
Encoding: 305 305 193
Width: 240
Flags: W
LayerCount: 2
Back
Fore
SplineSet
182 0 m 1,0,-1
 58 0 l 1,1,-1
 58 500 l 1,2,-1
 182 500 l 1,3,-1
 182 0 l 1,0,-1
EndSplineSet
EndChar

StartChar: OE
Encoding: 338 338 194
Width: 1063
Flags: W
LayerCount: 2
Back
Fore
SplineSet
1029 0 m 1,0,-1
 593 0 l 1,1,-1
 593 55 l 1,2,3
 501 -14 501 -14 380 -14 c 0,4,5
 305 -14 305 -14 241.5 12 c 128,-1,6
 178 38 178 38 132 86 c 128,-1,7
 86 134 86 134 60.5 201 c 128,-1,8
 35 268 35 268 35 350 c 256,9,10
 35 432 35 432 61 499 c 128,-1,11
 87 566 87 566 132.5 614 c 128,-1,12
 178 662 178 662 241.5 688 c 128,-1,13
 305 714 305 714 380 714 c 0,14,15
 501 714 501 714 593 645 c 1,16,-1
 593 700 l 1,17,-1
 1020 700 l 1,18,-1
 1020 576 l 1,19,-1
 724 576 l 1,20,-1
 724 427 l 1,21,-1
 952 427 l 1,22,-1
 952 303 l 1,23,-1
 724 303 l 1,24,-1
 724 124 l 1,25,-1
 1029 124 l 1,26,-1
 1029 0 l 1,0,-1
532 525 m 0,27,28
 479 591 479 591 380 591 c 0,29,30
 330 591 330 591 292 573.5 c 128,-1,31
 254 556 254 556 228 524.5 c 128,-1,32
 202 493 202 493 188.5 448.5 c 128,-1,33
 175 404 175 404 175 350 c 256,34,35
 175 296 175 296 188.5 251.5 c 128,-1,36
 202 207 202 207 228 175.5 c 128,-1,37
 254 144 254 144 292 126.5 c 128,-1,38
 330 109 330 109 380 109 c 256,39,40
 430 109 430 109 468 126.5 c 128,-1,41
 506 144 506 144 532 175.5 c 128,-1,42
 558 207 558 207 571.5 251.5 c 128,-1,43
 585 296 585 296 585 350 c 0,44,45
 585 458 585 458 532 525 c 0,27,28
EndSplineSet
EndChar

StartChar: oe
Encoding: 339 339 195
Width: 895
Flags: W
LayerCount: 2
Back
Fore
SplineSet
860 223 m 1,0,-1
 537 223 l 1,1,2
 547 158 547 158 589.5 125 c 128,-1,3
 632 92 632 92 686 92 c 0,4,5
 703 92 703 92 723 95 c 128,-1,6
 743 98 743 98 763.5 103.5 c 128,-1,7
 784 109 784 109 804 116.5 c 128,-1,8
 824 124 824 124 840 133 c 1,9,-1
 846 28 l 1,10,11
 773 -10 773 -10 679 -10 c 0,12,13
 544 -10 544 -10 471 71 c 1,14,15
 400 -10 400 -10 281 -10 c 0,16,17
 223 -10 223 -10 176.5 10 c 128,-1,18
 130 30 130 30 97 65 c 128,-1,19
 64 100 64 100 46 147 c 128,-1,20
 28 194 28 194 28 249 c 0,21,22
 28 303 28 303 46 350.5 c 128,-1,23
 64 398 64 398 97 433 c 128,-1,24
 130 468 130 468 176.5 488 c 128,-1,25
 223 508 223 508 281 508 c 0,26,27
 399 508 399 508 469 429 c 1,28,29
 536 508 536 508 648 508 c 0,30,31
 695 508 695 508 735.5 492.5 c 128,-1,32
 776 477 776 477 805.5 448.5 c 128,-1,33
 835 420 835 420 851.5 380 c 128,-1,34
 868 340 868 340 868 291 c 0,35,36
 868 263 868 263 860 223 c 1,0,-1
540 307 m 1,37,-1
 742 307 l 1,38,39
 742 346 742 346 720 376 c 128,-1,40
 698 406 698 406 652 406 c 256,41,42
 606 406 606 406 578 379 c 128,-1,43
 550 352 550 352 540 307 c 1,37,-1
373 363 m 0,44,45
 340 406 340 406 281 406 c 0,46,47
 221 406 221 406 188 363 c 128,-1,48
 155 320 155 320 155 249 c 256,49,50
 155 178 155 178 188 135 c 128,-1,51
 221 92 221 92 281 92 c 256,52,53
 341 92 341 92 374 136 c 128,-1,54
 407 180 407 180 407 249 c 0,55,56
 407 320 407 320 373 363 c 0,44,45
EndSplineSet
Substitution2: "'smcp' Lowercase to Small Capitals in Latin lookup 1 subtable" OE.sc
Substitution2: "'aalt' Access All Alternates in Latin lookup 0 subtable" OE.sc
EndChar

StartChar: florin
Encoding: 402 402 201
Width: 355
Flags: W
LayerCount: 2
Back
Fore
SplineSet
378 702 m 1,0,-1
 367 608 l 1,1,2
 338 615 338 615 319 615 c 0,3,4
 298 615 298 615 283 609.5 c 128,-1,5
 268 604 268 604 257.5 590.5 c 128,-1,6
 247 577 247 577 240.5 555 c 128,-1,7
 234 533 234 533 228 500 c 1,8,-1
 355 500 l 1,9,-1
 347 418 l 1,10,-1
 215 418 l 1,11,-1
 137 -81 l 2,12,13
 131 -122 131 -122 117.5 -152.5 c 128,-1,14
 104 -183 104 -183 87 -203 c 128,-1,15
 70 -223 70 -223 51 -232.5 c 128,-1,16
 32 -242 32 -242 16 -242 c 2,17,-1
 -15 -242 l 1,18,-1
 -35 -140 l 1,19,20
 -20 -140 -20 -140 -8.5 -136.5 c 128,-1,21
 3 -133 3 -133 11 -124 c 128,-1,22
 19 -115 19 -115 24.5 -99.5 c 128,-1,23
 30 -84 30 -84 34 -60 c 2,24,-1
 104 418 l 1,25,-1
 26 418 l 1,26,-1
 35 500 l 1,27,-1
 116 500 l 1,28,-1
 122 539 l 2,29,30
 135 620 135 620 185.5 667 c 128,-1,31
 236 714 236 714 308 714 c 0,32,33
 342 714 342 714 378 702 c 1,0,-1
EndSplineSet
EndChar

StartChar: uni0237
Encoding: 567 567 202
Width: 240
Flags: W
LayerCount: 2
Back
Fore
SplineSet
54 -242 m 2,0,-1
 9 -242 l 1,1,-1
 -2 -140 l 1,2,3
 18 -140 18 -140 30 -138.5 c 128,-1,4
 42 -137 42 -137 48 -129.5 c 128,-1,5
 54 -122 54 -122 56 -106 c 128,-1,6
 58 -90 58 -90 58 -60 c 2,7,-1
 58 500 l 1,8,-1
 182 500 l 1,9,-1
 182 -111 l 2,10,11
 182 -169 182 -169 150 -205.5 c 128,-1,12
 118 -242 118 -242 54 -242 c 2,0,-1
EndSplineSet
EndChar

StartChar: circumflex
Encoding: 710 710 203
Width: 446
Flags: W
LayerCount: 2
Back
Fore
SplineSet
370 585 m 1,0,-1
 223 656 l 1,1,-1
 76 585 l 1,2,-1
 76 659 l 1,3,-1
 223 750 l 1,4,-1
 370 659 l 1,5,-1
 370 585 l 1,0,-1
EndSplineSet
EndChar

StartChar: caron
Encoding: 711 711 204
Width: 446
Flags: W
LayerCount: 2
Back
Fore
SplineSet
370 676 m 1,0,-1
 223 585 l 1,1,-1
 76 676 l 1,2,-1
 76 750 l 1,3,-1
 223 679 l 1,4,-1
 370 750 l 1,5,-1
 370 676 l 1,0,-1
EndSplineSet
EndChar

StartChar: ring
Encoding: 730 730 205
Width: 292
Flags: W
LayerCount: 2
Back
Fore
SplineSet
221 601 m 0,0,1
 193 576 193 576 146 576 c 0,2,3
 98 576 98 576 70 601.5 c 128,-1,4
 42 627 42 627 42 665 c 0,5,6
 42 702 42 702 70 728.5 c 128,-1,7
 98 755 98 755 146 755 c 0,8,9
 170 755 170 755 189 747.5 c 128,-1,10
 208 740 208 740 221.5 727.5 c 128,-1,11
 235 715 235 715 242.5 699 c 128,-1,12
 250 683 250 683 250 665 c 0,13,14
 250 648 250 648 242.5 631 c 128,-1,15
 235 614 235 614 221 601 c 0,0,1
177 694 m 0,16,17
 165 706 165 706 146 706 c 0,18,19
 128 706 128 706 115 694.5 c 128,-1,20
 102 683 102 683 102 665 c 0,21,22
 102 646 102 646 114.5 635 c 128,-1,23
 127 624 127 624 146 624 c 256,24,25
 165 624 165 624 177.5 636 c 128,-1,26
 190 648 190 648 190 665 c 0,27,28
 190 681 190 681 177 694 c 0,16,17
EndSplineSet
EndChar

StartChar: tilde
Encoding: 732 732 206
Width: 528
Flags: W
LayerCount: 2
Back
Fore
SplineSet
334 599 m 0,0,1
 321 599 321 599 302 605.5 c 128,-1,2
 283 612 283 612 264.5 620 c 128,-1,3
 246 628 246 628 230 634.5 c 128,-1,4
 214 641 214 641 207 641 c 0,5,6
 187 641 187 641 175 626.5 c 128,-1,7
 163 612 163 612 159 594 c 1,8,-1
 76 614 l 1,9,10
 78 638 78 638 89.5 656.5 c 128,-1,11
 101 675 101 675 118.5 688.5 c 128,-1,12
 136 702 136 702 157.5 709 c 128,-1,13
 179 716 179 716 201 716 c 0,14,15
 216 716 216 716 233.5 709.5 c 128,-1,16
 251 703 251 703 267.5 695 c 128,-1,17
 284 687 284 687 297.5 680.5 c 128,-1,18
 311 674 311 674 319 674 c 0,19,20
 341 674 341 674 357 689 c 128,-1,21
 373 704 373 704 376 721 c 1,22,-1
 452 701 l 1,23,24
 449 680 449 680 439 661.5 c 128,-1,25
 429 643 429 643 413.5 629 c 128,-1,26
 398 615 398 615 378 607 c 128,-1,27
 358 599 358 599 334 599 c 0,0,1
EndSplineSet
EndChar

StartChar: endash
Encoding: 8211 8211 207
Width: 496
Flags: W
LayerCount: 2
Back
Fore
SplineSet
442 230 m 1,0,-1
 54 230 l 1,1,-1
 54 324 l 1,2,-1
 442 324 l 1,3,-1
 442 230 l 1,0,-1
EndSplineSet
EndChar

StartChar: emdash
Encoding: 8212 8212 208
Width: 588
Flags: W
LayerCount: 2
Back
Fore
SplineSet
534 230 m 1,0,-1
 54 230 l 1,1,-1
 54 324 l 1,2,-1
 534 324 l 1,3,-1
 534 230 l 1,0,-1
EndSplineSet
EndChar

StartChar: quoteleft
Encoding: 8216 8216 209
Width: 210
Flags: W
LayerCount: 2
Back
Fore
SplineSet
43 640 m 1,0,-1
 141 750 l 1,1,-1
 167 736 l 1,2,-1
 134 650 l 1,3,-1
 167 640 l 1,4,-1
 167 510 l 1,5,-1
 43 510 l 1,6,-1
 43 640 l 1,0,-1
EndSplineSet
EndChar

StartChar: quoteright
Encoding: 8217 8217 210
Width: 192
Flags: W
LayerCount: 2
Back
Fore
SplineSet
165 620 m 1,0,-1
 67 510 l 1,1,-1
 41 524 l 1,2,-1
 74 610 l 1,3,-1
 41 620 l 1,4,-1
 41 750 l 1,5,-1
 165 750 l 1,6,-1
 165 620 l 1,0,-1
EndSplineSet
EndChar

StartChar: quotesinglbase
Encoding: 8218 8218 211
Width: 232
Flags: W
LayerCount: 2
Back
Fore
SplineSet
178 0 m 1,0,-1
 80 -110 l 1,1,-1
 54 -96 l 1,2,-1
 87 -10 l 1,3,-1
 54 0 l 1,4,-1
 54 130 l 1,5,-1
 178 130 l 1,6,-1
 178 0 l 1,0,-1
EndSplineSet
EndChar

StartChar: quotedblleft
Encoding: 8220 8220 212
Width: 420
Flags: W
LayerCount: 2
Back
Fore
SplineSet
43 640 m 1,0,-1
 141 750 l 1,1,-1
 167 736 l 1,2,-1
 134 650 l 1,3,-1
 167 640 l 1,4,-1
 167 510 l 1,5,-1
 43 510 l 1,6,-1
 43 640 l 1,0,-1
253 640 m 1,7,-1
 351 750 l 1,8,-1
 377 736 l 1,9,-1
 344 650 l 1,10,-1
 377 640 l 1,11,-1
 377 510 l 1,12,-1
 253 510 l 1,13,-1
 253 640 l 1,7,-1
EndSplineSet
EndChar

StartChar: quotedblright
Encoding: 8221 8221 213
Width: 402
Flags: W
LayerCount: 2
Back
Fore
SplineSet
375 620 m 1,0,-1
 277 510 l 1,1,-1
 251 524 l 1,2,-1
 284 610 l 1,3,-1
 251 620 l 1,4,-1
 251 750 l 1,5,-1
 375 750 l 1,6,-1
 375 620 l 1,0,-1
165 620 m 1,7,-1
 67 510 l 1,8,-1
 41 524 l 1,9,-1
 74 610 l 1,10,-1
 41 620 l 1,11,-1
 41 750 l 1,12,-1
 165 750 l 1,13,-1
 165 620 l 1,7,-1
EndSplineSet
EndChar

StartChar: quotedblbase
Encoding: 8222 8222 214
Width: 462
Flags: W
LayerCount: 2
Back
Fore
SplineSet
178 0 m 1,0,-1
 80 -110 l 1,1,-1
 54 -96 l 1,2,-1
 87 -10 l 1,3,-1
 54 0 l 1,4,-1
 54 130 l 1,5,-1
 178 130 l 1,6,-1
 178 0 l 1,0,-1
408 0 m 1,7,-1
 310 -110 l 1,8,-1
 284 -96 l 1,9,-1
 317 -10 l 1,10,-1
 284 0 l 1,11,-1
 284 130 l 1,12,-1
 408 130 l 1,13,-1
 408 0 l 1,7,-1
EndSplineSet
EndChar

StartChar: dagger
Encoding: 8224 8224 215
Width: 426
Flags: W
LayerCount: 2
Back
Fore
SplineSet
390 349 m 1,0,-1
 259 375 l 1,1,-1
 288 257 l 1,2,-1
 258 0 l 1,3,-1
 168 0 l 1,4,-1
 138 257 l 1,5,-1
 167 375 l 1,6,-1
 36 349 l 1,7,-1
 36 481 l 1,8,-1
 167 454 l 1,9,-1
 138 607 l 1,10,-1
 288 607 l 1,11,-1
 259 454 l 1,12,-1
 390 481 l 1,13,-1
 390 349 l 1,0,-1
EndSplineSet
EndChar

StartChar: daggerdbl
Encoding: 8225 8225 216
Width: 472
Flags: W
LayerCount: 2
Back
Fore
SplineSet
413 67 m 1,0,-1
 282 94 l 1,1,-1
 311 -59 l 1,2,-1
 161 -59 l 1,3,-1
 190 94 l 1,4,-1
 59 67 l 1,5,-1
 59 199 l 1,6,-1
 190 173 l 1,7,-1
 161 274 l 1,8,-1
 190 375 l 1,9,-1
 59 349 l 1,10,-1
 59 481 l 1,11,-1
 190 454 l 1,12,-1
 161 607 l 1,13,-1
 311 607 l 1,14,-1
 282 454 l 1,15,-1
 413 481 l 1,16,-1
 413 349 l 1,17,-1
 282 375 l 1,18,-1
 311 274 l 1,19,-1
 282 173 l 1,20,-1
 413 199 l 1,21,-1
 413 67 l 1,0,-1
EndSplineSet
EndChar

StartChar: bullet
Encoding: 8226 8226 217
Width: 298
Flags: W
LayerCount: 2
Back
Fore
SplineSet
226 201 m 0,0,1
 209 184 209 184 189.5 176.5 c 128,-1,2
 170 169 170 169 149 169 c 0,3,4
 127 169 127 169 107.5 178 c 128,-1,5
 88 187 88 187 73 202 c 128,-1,6
 58 217 58 217 49 236.5 c 128,-1,7
 40 256 40 256 40 278 c 256,8,9
 40 300 40 300 49 319.5 c 128,-1,10
 58 339 58 339 73 354 c 128,-1,11
 88 369 88 369 107.5 378 c 128,-1,12
 127 387 127 387 149 387 c 256,13,14
 171 387 171 387 190.5 378 c 128,-1,15
 210 369 210 369 225 354 c 128,-1,16
 240 339 240 339 249 319.5 c 128,-1,17
 258 300 258 300 258 278 c 0,18,19
 258 257 258 257 250 237 c 128,-1,20
 242 217 242 217 226 201 c 0,0,1
EndSplineSet
EndChar

StartChar: ellipsis
Encoding: 8230 8230 218
Width: 704
Flags: W
LayerCount: 2
Back
Fore
SplineSet
178 0 m 1,0,-1
 54 0 l 1,1,-1
 54 130 l 1,2,-1
 178 130 l 1,3,-1
 178 0 l 1,0,-1
414 0 m 1,4,-1
 290 0 l 1,5,-1
 290 130 l 1,6,-1
 414 130 l 1,7,-1
 414 0 l 1,4,-1
650 0 m 1,8,-1
 526 0 l 1,9,-1
 526 130 l 1,10,-1
 650 130 l 1,11,-1
 650 0 l 1,8,-1
EndSplineSet
EndChar

StartChar: perthousand
Encoding: 8240 8240 219
Width: 1204
Flags: W
LayerCount: 2
Back
Fore
SplineSet
655 -9 m 0,0,1
 586 -9 586 -9 545.5 40.5 c 128,-1,2
 505 90 505 90 505 172 c 0,3,4
 505 214 505 214 516.5 249 c 128,-1,5
 528 284 528 284 549 308.5 c 128,-1,6
 570 333 570 333 598.5 346.5 c 128,-1,7
 627 360 627 360 660 360 c 256,8,9
 693 360 693 360 720.5 347 c 128,-1,10
 748 334 748 334 768 310.5 c 128,-1,11
 788 287 788 287 799 254 c 128,-1,12
 810 221 810 221 810 180 c 0,13,14
 810 137 810 137 799 102 c 128,-1,15
 788 67 788 67 767.5 42.5 c 128,-1,16
 747 18 747 18 718.5 4.5 c 128,-1,17
 690 -9 690 -9 655 -9 c 0,0,1
674 700 m 1,18,-1
 252 -12 l 1,19,-1
 148 -12 l 1,20,-1
 570 700 l 1,21,-1
 674 700 l 1,18,-1
185 335 m 0,22,23
 116 335 116 335 75.5 384.5 c 128,-1,24
 35 434 35 434 35 516 c 0,25,26
 35 558 35 558 46.5 593 c 128,-1,27
 58 628 58 628 79 652.5 c 128,-1,28
 100 677 100 677 128.5 690.5 c 128,-1,29
 157 704 157 704 190 704 c 256,30,31
 223 704 223 704 250.5 691 c 128,-1,32
 278 678 278 678 298 654.5 c 128,-1,33
 318 631 318 631 329 598 c 128,-1,34
 340 565 340 565 340 524 c 0,35,36
 340 481 340 481 329 446 c 128,-1,37
 318 411 318 411 297.5 386.5 c 128,-1,38
 277 362 277 362 248.5 348.5 c 128,-1,39
 220 335 220 335 185 335 c 0,22,23
659 288 m 0,40,41
 628 288 628 288 606 259 c 128,-1,42
 584 230 584 230 584 172 c 0,43,44
 584 117 584 117 604 90 c 128,-1,45
 624 63 624 63 656 63 c 0,46,47
 731 63 731 63 731 180 c 0,48,49
 731 234 731 234 710 261 c 128,-1,50
 689 288 689 288 659 288 c 0,40,41
189 632 m 0,51,52
 158 632 158 632 136 603 c 128,-1,53
 114 574 114 574 114 516 c 0,54,55
 114 461 114 461 134 434 c 128,-1,56
 154 407 154 407 186 407 c 0,57,58
 261 407 261 407 261 524 c 0,59,60
 261 578 261 578 240 605 c 128,-1,61
 219 632 219 632 189 632 c 0,51,52
1016 -9 m 0,62,63
 947 -9 947 -9 906.5 40.5 c 128,-1,64
 866 90 866 90 866 172 c 0,65,66
 866 214 866 214 877.5 249 c 128,-1,67
 889 284 889 284 910 308.5 c 128,-1,68
 931 333 931 333 959.5 346.5 c 128,-1,69
 988 360 988 360 1021 360 c 256,70,71
 1054 360 1054 360 1081.5 347 c 128,-1,72
 1109 334 1109 334 1129 310.5 c 128,-1,73
 1149 287 1149 287 1160 254 c 128,-1,74
 1171 221 1171 221 1171 180 c 0,75,76
 1171 137 1171 137 1160 102 c 128,-1,77
 1149 67 1149 67 1128.5 42.5 c 128,-1,78
 1108 18 1108 18 1079.5 4.5 c 128,-1,79
 1051 -9 1051 -9 1016 -9 c 0,62,63
1020 288 m 0,80,81
 989 288 989 288 967 259 c 128,-1,82
 945 230 945 230 945 172 c 0,83,84
 945 117 945 117 965 90 c 128,-1,85
 985 63 985 63 1017 63 c 0,86,87
 1092 63 1092 63 1092 180 c 0,88,89
 1092 234 1092 234 1071 261 c 128,-1,90
 1050 288 1050 288 1020 288 c 0,80,81
EndSplineSet
EndChar

StartChar: guilsinglleft
Encoding: 8249 8249 220
Width: 347
Flags: W
LayerCount: 2
Back
Fore
SplineSet
310 78 m 1,0,-1
 163 78 l 1,1,-1
 11 284 l 1,2,-1
 163 490 l 1,3,-1
 310 490 l 1,4,-1
 158 284 l 1,5,-1
 310 78 l 1,0,-1
EndSplineSet
EndChar

StartChar: guilsinglright
Encoding: 8250 8250 221
Width: 347
Flags: W
LayerCount: 2
Back
Fore
SplineSet
336 284 m 1,0,-1
 184 78 l 1,1,-1
 37 78 l 1,2,-1
 189 284 l 1,3,-1
 37 490 l 1,4,-1
 184 490 l 1,5,-1
 336 284 l 1,0,-1
EndSplineSet
EndChar

StartChar: uni2070
Encoding: 8304 8304 222
Width: 399
Flags: W
LayerCount: 2
Back
Fore
SplineSet
196 312 m 0,0,1
 158 312 158 312 127 326 c 128,-1,2
 96 340 96 340 74.5 365.5 c 128,-1,3
 53 391 53 391 41 426.5 c 128,-1,4
 29 462 29 462 29 504 c 0,5,6
 29 547 29 547 42.5 584 c 128,-1,7
 56 621 56 621 79 648 c 128,-1,8
 102 675 102 675 134 690.5 c 128,-1,9
 166 706 166 706 203 706 c 0,10,11
 239 706 239 706 270 691 c 128,-1,12
 301 676 301 676 323 649.5 c 128,-1,13
 345 623 345 623 357.5 587.5 c 128,-1,14
 370 552 370 552 370 511 c 0,15,16
 370 468 370 468 358 431.5 c 128,-1,17
 346 395 346 395 323.5 368.5 c 128,-1,18
 301 342 301 342 268.5 327 c 128,-1,19
 236 312 236 312 196 312 c 0,0,1
202 622 m 0,20,21
 172 622 172 622 148 592 c 128,-1,22
 124 562 124 562 124 504 c 0,23,24
 124 449 124 449 144.5 424 c 128,-1,25
 165 399 165 399 197 399 c 0,26,27
 276 399 276 399 276 511 c 0,28,29
 276 566 276 566 253.5 594 c 128,-1,30
 231 622 231 622 202 622 c 0,20,21
EndSplineSet
EndChar

StartChar: uni2074
Encoding: 8308 8308 223
Width: 348
Flags: W
LayerCount: 2
Back
Fore
SplineSet
322 423 m 1,0,-1
 273 423 l 1,1,-1
 273 320 l 1,2,-1
 177 320 l 1,3,-1
 177 423 l 1,4,-1
 2 423 l 1,5,-1
 189 698 l 1,6,-1
 273 698 l 1,7,-1
 273 494 l 1,8,-1
 322 494 l 1,9,-1
 322 423 l 1,0,-1
177 494 m 1,10,-1
 177 570 l 1,11,-1
 123 494 l 1,12,-1
 177 494 l 1,10,-1
EndSplineSet
EndChar

StartChar: uni2075
Encoding: 8309 8309 224
Width: 307
Flags: W
LayerCount: 2
Back
Fore
SplineSet
141 314 m 0,0,1
 132 314 132 314 115 318 c 128,-1,2
 98 322 98 322 79.5 328 c 128,-1,3
 61 334 61 334 45.5 342 c 128,-1,4
 30 350 30 350 24 358 c 1,5,-1
 47 444 l 1,6,7
 68 405 68 405 165 405 c 0,8,9
 179 405 179 405 185 413 c 128,-1,10
 191 421 191 421 191 444 c 0,11,12
 191 480 191 480 123 480 c 2,13,-1
 44 480 l 1,14,-1
 71 698 l 1,15,-1
 259 698 l 1,16,-1
 249 599 l 1,17,-1
 142 599 l 1,18,-1
 135 556 l 1,19,20
 278 554 278 554 278 441 c 0,21,22
 278 408 278 408 267.5 384 c 128,-1,23
 257 360 257 360 238.5 344.5 c 128,-1,24
 220 329 220 329 195 321.5 c 128,-1,25
 170 314 170 314 141 314 c 0,0,1
EndSplineSet
EndChar

StartChar: uni2076
Encoding: 8310 8310 225
Width: 318
Flags: W
LayerCount: 2
Back
Fore
SplineSet
155 312 m 0,0,1
 98 312 98 312 63.5 350.5 c 128,-1,2
 29 389 29 389 29 468 c 0,3,4
 29 515 29 515 48 556.5 c 128,-1,5
 67 598 67 598 94 629 c 128,-1,6
 121 660 121 660 151 678.5 c 128,-1,7
 181 697 181 697 203 698 c 1,8,-1
 267 661 l 1,9,10
 255 661 255 661 232 644 c 128,-1,11
 209 627 209 627 185.5 605.5 c 128,-1,12
 162 584 162 584 144.5 564.5 c 128,-1,13
 127 545 127 545 127 540 c 1,14,15
 141 548 141 548 179 548 c 0,16,17
 230 548 230 548 263.5 519 c 128,-1,18
 297 490 297 490 297 439 c 0,19,20
 297 414 297 414 286.5 391 c 128,-1,21
 276 368 276 368 257 350.5 c 128,-1,22
 238 333 238 333 212 322.5 c 128,-1,23
 186 312 186 312 155 312 c 0,0,1
172 473 m 0,24,25
 145 473 145 473 132.5 464.5 c 128,-1,26
 120 456 120 456 120 431 c 0,27,28
 120 419 120 419 135.5 409.5 c 128,-1,29
 151 400 151 400 163 400 c 0,30,31
 182 400 182 400 197 412.5 c 128,-1,32
 212 425 212 425 212 445 c 0,33,34
 212 456 212 456 199 464.5 c 128,-1,35
 186 473 186 473 172 473 c 0,24,25
EndSplineSet
EndChar

StartChar: uni2077
Encoding: 8311 8311 226
Width: 298
Flags: W
LayerCount: 2
Back
Fore
SplineSet
300 698 m 1,0,-1
 140 320 l 1,1,-1
 35 320 l 1,2,-1
 155 599 l 1,3,-1
 28 599 l 1,4,-1
 28 698 l 1,5,-1
 300 698 l 1,0,-1
EndSplineSet
EndChar

StartChar: uni2078
Encoding: 8312 8312 227
Width: 341
Flags: W
LayerCount: 2
Back
Fore
SplineSet
164 312 m 0,0,1
 98 312 98 312 63.5 340.5 c 128,-1,2
 29 369 29 369 29 417 c 0,3,4
 29 470 29 470 71 524 c 1,5,6
 66 527 66 527 62.5 536 c 128,-1,7
 59 545 59 545 56 556.5 c 128,-1,8
 53 568 53 568 51.5 581.5 c 128,-1,9
 50 595 50 595 50 607 c 0,10,11
 50 706 50 706 173 706 c 0,12,13
 292 706 292 706 292 616 c 0,14,15
 292 607 292 607 289 593.5 c 128,-1,16
 286 580 286 580 282 567 c 128,-1,17
 278 554 278 554 273.5 543 c 128,-1,18
 269 532 269 532 266 528 c 1,19,20
 273 520 273 520 281.5 509 c 128,-1,21
 290 498 290 498 297 485.5 c 128,-1,22
 304 473 304 473 308.5 460 c 128,-1,23
 313 447 313 447 313 435 c 0,24,25
 313 411 313 411 303.5 388.5 c 128,-1,26
 294 366 294 366 275 349 c 128,-1,27
 256 332 256 332 228 322 c 128,-1,28
 200 312 200 312 164 312 c 0,0,1
171 640 m 0,29,30
 143 640 143 640 137 625.5 c 128,-1,31
 131 611 131 611 131 594 c 0,32,33
 131 553 131 553 166 553 c 0,34,35
 205 553 205 553 205 597 c 0,36,37
 205 604 205 604 204.5 611.5 c 128,-1,38
 204 619 204 619 201 625.5 c 128,-1,39
 198 632 198 632 191 636 c 128,-1,40
 184 640 184 640 171 640 c 0,29,30
114 430 m 0,41,42
 114 409 114 409 128.5 395 c 128,-1,43
 143 381 143 381 167 381 c 0,44,45
 197 381 197 381 208.5 393 c 128,-1,46
 220 405 220 405 220 429 c 0,47,48
 220 459 220 459 206 476.5 c 128,-1,49
 192 494 192 494 174 494 c 0,50,51
 165 494 165 494 154.5 489 c 128,-1,52
 144 484 144 484 135 475.5 c 128,-1,53
 126 467 126 467 120 455 c 128,-1,54
 114 443 114 443 114 430 c 0,41,42
EndSplineSet
EndChar

StartChar: uni2079
Encoding: 8313 8313 228
Width: 317
Flags: W
LayerCount: 2
Back
Fore
SplineSet
161 706 m 0,0,1
 221 706 221 706 254.5 665.5 c 128,-1,2
 288 625 288 625 288 550 c 0,3,4
 288 511 288 511 272.5 470 c 128,-1,5
 257 429 257 429 231.5 396 c 128,-1,6
 206 363 206 363 173 341.5 c 128,-1,7
 140 320 140 320 106 320 c 1,8,-1
 53 357 l 1,9,10
 68 357 68 357 93 370 c 128,-1,11
 118 383 118 383 142 402.5 c 128,-1,12
 166 422 166 422 183.5 444 c 128,-1,13
 201 466 201 466 201 483 c 1,14,15
 181 471 181 471 142 471 c 0,16,17
 121 471 121 471 99.5 478.5 c 128,-1,18
 78 486 78 486 60 500 c 128,-1,19
 42 514 42 514 30.5 533 c 128,-1,20
 19 552 19 552 19 576 c 0,21,22
 19 602 19 602 29.5 625.5 c 128,-1,23
 40 649 40 649 59 667 c 128,-1,24
 78 685 78 685 104 695.5 c 128,-1,25
 130 706 130 706 161 706 c 0,0,1
150 545 m 0,26,27
 176 545 176 545 189 553 c 128,-1,28
 202 561 202 561 202 584 c 0,29,30
 202 622 202 622 160 622 c 0,31,32
 140 622 140 622 127 607.5 c 128,-1,33
 114 593 114 593 114 578 c 0,34,35
 114 562 114 562 124.5 553.5 c 128,-1,36
 135 545 135 545 150 545 c 0,26,27
EndSplineSet
EndChar

StartChar: Euro
Encoding: 8364 8364 239
Width: 703
Flags: W
LayerCount: 2
Back
Fore
SplineSet
469 17 m 0,0,1
 367 17 367 17 289.5 67.5 c 128,-1,2
 212 118 212 118 176 209 c 1,3,-1
 32 209 l 1,4,-1
 62 295 l 1,5,-1
 154 295 l 1,6,7
 152 307 152 307 151.5 326 c 128,-1,8
 151 345 151 345 151 358 c 1,9,-1
 58 358 l 1,10,-1
 89 445 l 1,11,-1
 162 445 l 1,12,13
 175 500 175 500 203.5 544 c 128,-1,14
 232 588 232 588 272 619 c 128,-1,15
 312 650 312 650 362 666.5 c 128,-1,16
 412 683 412 683 469 683 c 0,17,18
 517 683 517 683 564.5 674 c 128,-1,19
 612 665 612 665 650 646 c 1,20,-1
 636 533 l 1,21,22
 595 550 595 550 556 561.5 c 128,-1,23
 517 573 517 573 469 573 c 0,24,25
 398 573 398 573 355.5 538.5 c 128,-1,26
 313 504 313 504 295 445 c 1,27,-1
 546 445 l 1,28,-1
 514 358 l 1,29,-1
 282 358 l 1,30,31
 282 344 282 344 282.5 325 c 128,-1,32
 283 306 283 306 286 295 c 1,33,-1
 527 295 l 1,34,-1
 497 209 l 1,35,-1
 314 209 l 1,36,37
 337 170 337 170 375 148.5 c 128,-1,38
 413 127 413 127 469 127 c 0,39,40
 517 127 517 127 556 138.5 c 128,-1,41
 595 150 595 150 636 167 c 1,42,-1
 650 54 l 1,43,44
 612 35 612 35 564.5 26 c 128,-1,45
 517 17 517 17 469 17 c 0,0,1
EndSplineSet
EndChar

StartChar: trademark
Encoding: 8482 8482 240
Width: 739
Flags: W
LayerCount: 2
Back
Fore
SplineSet
501 425 m 1,0,-1
 490 425 l 1,1,-1
 415 549 l 1,2,-1
 388 337 l 1,3,-1
 306 337 l 1,4,-1
 355 700 l 1,5,-1
 405 700 l 1,6,-1
 496 552 l 1,7,-1
 586 700 l 1,8,-1
 637 700 l 1,9,-1
 686 337 l 1,10,-1
 603 337 l 1,11,-1
 577 549 l 1,12,-1
 501 425 l 1,0,-1
313 700 m 1,13,-1
 303 622 l 1,14,-1
 209 622 l 1,15,-1
 209 337 l 1,16,-1
 129 337 l 1,17,-1
 129 622 l 1,18,-1
 32 622 l 1,19,-1
 32 700 l 1,20,-1
 313 700 l 1,13,-1
EndSplineSet
EndChar

StartChar: B.sc
Encoding: 65537 -1 241
Width: 571
Flags: W
LayerCount: 2
Back
Fore
SplineSet
318 0 m 2,0,-1
 71 0 l 1,1,-1
 71 581 l 1,2,-1
 247 581 l 2,3,4
 303 581 303 581 347 575 c 128,-1,5
 391 569 391 569 421.5 552 c 128,-1,6
 452 535 452 535 468 505.5 c 128,-1,7
 484 476 484 476 484 428 c 0,8,9
 484 388 484 388 470 356 c 128,-1,10
 456 324 456 324 432 311 c 1,11,12
 486 292 486 292 513.5 259.5 c 128,-1,13
 541 227 541 227 541 170 c 0,14,15
 541 126 541 126 522.5 94 c 128,-1,16
 504 62 504 62 473.5 41 c 128,-1,17
 443 20 443 20 402.5 10 c 128,-1,18
 362 0 362 0 318 0 c 2,0,-1
301 480 m 2,19,-1
 194 480 l 1,20,-1
 194 352 l 1,21,-1
 306 352 l 2,22,23
 318 352 318 352 329.5 355.5 c 128,-1,24
 341 359 341 359 351 366 c 128,-1,25
 361 373 361 373 367 383.5 c 128,-1,26
 373 394 373 394 373 407 c 0,27,28
 373 446 373 446 355 463 c 128,-1,29
 337 480 337 480 301 480 c 2,19,-1
306 262 m 2,30,-1
 194 262 l 1,31,-1
 194 101 l 1,32,-1
 314 101 l 2,33,34
 414 101 414 101 414 183 c 0,35,36
 414 262 414 262 306 262 c 2,30,-1
EndSplineSet
EndChar

StartChar: C.sc
Encoding: 65538 -1 242
Width: 545
Flags: W
LayerCount: 2
Back
Fore
SplineSet
336 -12 m 0,0,1
 270 -12 270 -12 215 10 c 128,-1,2
 160 32 160 32 119.5 72 c 128,-1,3
 79 112 79 112 56.5 168 c 128,-1,4
 34 224 34 224 34 291 c 256,5,6
 34 358 34 358 56.5 414 c 128,-1,7
 79 470 79 470 119.5 509.5 c 128,-1,8
 160 549 160 549 215.5 571 c 128,-1,9
 271 593 271 593 336 593 c 0,10,11
 441 593 441 593 513 559 c 1,12,-1
 499 442 l 1,13,14
 418 474 418 474 336 474 c 256,15,16
 254 474 254 474 211.5 425 c 128,-1,17
 169 376 169 376 169 291 c 256,18,19
 169 206 169 206 211.5 156.5 c 128,-1,20
 254 107 254 107 335 107 c 0,21,22
 418 107 418 107 499 139 c 1,23,-1
 513 23 l 1,24,25
 440 -12 440 -12 336 -12 c 0,0,1
EndSplineSet
EndChar

StartChar: D.sc
Encoding: 65539 -1 243
Width: 641
Flags: W
LayerCount: 2
Back
Fore
SplineSet
303 0 m 2,0,-1
 71 0 l 1,1,-1
 71 581 l 1,2,-1
 303 581 l 2,3,4
 369 581 369 581 424.5 561 c 128,-1,5
 480 541 480 541 520 503.5 c 128,-1,6
 560 466 560 466 582.5 412 c 128,-1,7
 605 358 605 358 605 291 c 0,8,9
 605 223 605 223 582.5 169 c 128,-1,10
 560 115 560 115 520 77.5 c 128,-1,11
 480 40 480 40 424.5 20 c 128,-1,12
 369 0 369 0 303 0 c 2,0,-1
303 462 m 2,13,-1
 194 462 l 1,14,-1
 194 119 l 1,15,-1
 303 119 l 2,16,17
 387 119 387 119 428.5 163 c 128,-1,18
 470 207 470 207 470 291 c 0,19,20
 470 373 470 373 428.5 417.5 c 128,-1,21
 387 462 387 462 303 462 c 2,13,-1
EndSplineSet
EndChar

StartChar: E.sc
Encoding: 65540 -1 244
Width: 512
Flags: W
LayerCount: 2
Back
Fore
SplineSet
481 0 m 1,0,-1
 71 0 l 1,1,-1
 71 581 l 1,2,-1
 472 581 l 1,3,-1
 472 461 l 1,4,-1
 198 461 l 1,5,-1
 198 362 l 1,6,-1
 409 362 l 1,7,-1
 409 243 l 1,8,-1
 198 243 l 1,9,-1
 198 120 l 1,10,-1
 481 120 l 1,11,-1
 481 0 l 1,0,-1
EndSplineSet
EndChar

StartChar: F.sc
Encoding: 65541 -1 245
Width: 472
Flags: W
LayerCount: 2
Back
Fore
SplineSet
452 461 m 1,0,-1
 194 461 l 1,1,-1
 194 362 l 1,2,-1
 393 362 l 1,3,-1
 393 243 l 1,4,-1
 194 243 l 1,5,-1
 194 0 l 1,6,-1
 71 0 l 1,7,-1
 71 581 l 1,8,-1
 452 581 l 1,9,-1
 452 461 l 1,0,-1
EndSplineSet
EndChar

StartChar: G.sc
Encoding: 65542 -1 246
Width: 591
Flags: W
LayerCount: 2
Back
Fore
SplineSet
335 -12 m 0,0,1
 270 -12 270 -12 215 10 c 128,-1,2
 160 32 160 32 119.5 72 c 128,-1,3
 79 112 79 112 56.5 167.5 c 128,-1,4
 34 223 34 223 34 291 c 0,5,6
 34 358 34 358 56.5 414 c 128,-1,7
 79 470 79 470 119.5 509.5 c 128,-1,8
 160 549 160 549 216.5 571 c 128,-1,9
 273 593 273 593 340 593 c 0,10,11
 362 593 362 593 388.5 590.5 c 128,-1,12
 415 588 415 588 440.5 583 c 128,-1,13
 466 578 466 578 488.5 571.5 c 128,-1,14
 511 565 511 565 526 558 c 1,15,-1
 512 439 l 1,16,17
 431 474 431 474 343 474 c 256,18,19
 255 474 255 474 212 425 c 128,-1,20
 169 376 169 376 169 294 c 0,21,22
 169 207 169 207 214.5 157 c 128,-1,23
 260 107 260 107 345 107 c 0,24,25
 364 107 364 107 423 113 c 1,26,-1
 423 194 l 1,27,-1
 366 194 l 1,28,-1
 366 291 l 1,29,-1
 546 291 l 1,30,-1
 546 32 l 1,31,32
 531 23 531 23 505.5 15 c 128,-1,33
 480 7 480 7 450.5 1 c 128,-1,34
 421 -5 421 -5 390.5 -8.5 c 128,-1,35
 360 -12 360 -12 335 -12 c 0,0,1
EndSplineSet
EndChar

StartChar: H.sc
Encoding: 65543 -1 247
Width: 658
Flags: W
LayerCount: 2
Back
Fore
SplineSet
587 0 m 1,0,-1
 463 0 l 1,1,-1
 463 243 l 1,2,-1
 194 243 l 1,3,-1
 194 0 l 1,4,-1
 71 0 l 1,5,-1
 71 581 l 1,6,-1
 194 581 l 1,7,-1
 194 362 l 1,8,-1
 463 362 l 1,9,-1
 463 581 l 1,10,-1
 587 581 l 1,11,-1
 587 0 l 1,0,-1
EndSplineSet
EndChar

StartChar: I.sc
Encoding: 65544 -1 248
Width: 265
Flags: W
LayerCount: 2
Back
Fore
SplineSet
194 0 m 1,0,-1
 71 0 l 1,1,-1
 71 581 l 1,2,-1
 194 581 l 1,3,-1
 194 0 l 1,0,-1
EndSplineSet
EndChar

StartChar: J.sc
Encoding: 65545 -1 249
Width: 265
Flags: W
LayerCount: 2
Back
Fore
SplineSet
53 -143 m 2,0,-1
 15 -143 l 1,1,-1
 6 -45 l 1,2,-1
 37 -45 l 2,3,4
 71 -45 71 -45 71 6 c 2,5,-1
 71 581 l 1,6,-1
 194 581 l 1,7,-1
 194 -16 l 2,8,9
 194 -80 194 -80 156.5 -111.5 c 128,-1,10
 119 -143 119 -143 53 -143 c 2,0,-1
EndSplineSet
EndChar

StartChar: K.sc
Encoding: 65546 -1 250
Width: 570
Flags: W
LayerCount: 2
Back
Fore
SplineSet
562 0 m 1,0,-1
 422 0 l 1,1,-1
 212 307 l 1,2,-1
 422 581 l 1,3,-1
 562 581 l 1,4,-1
 352 307 l 1,5,-1
 562 0 l 1,0,-1
194 0 m 1,6,-1
 71 0 l 1,7,-1
 71 581 l 1,8,-1
 194 581 l 1,9,-1
 194 0 l 1,6,-1
EndSplineSet
EndChar

StartChar: A.sc
Encoding: 65547 -1 251
Width: 558
Flags: W
LayerCount: 2
Back
Fore
SplineSet
554 0 m 1,0,-1
 427 0 l 1,1,-1
 376 131 l 1,2,-1
 182 131 l 1,3,-1
 132 0 l 1,4,-1
 4 0 l 1,5,-1
 222 581 l 1,6,-1
 336 581 l 1,7,-1
 554 0 l 1,0,-1
333 251 m 1,8,-1
 278 382 l 1,9,-1
 225 251 l 1,10,-1
 333 251 l 1,8,-1
EndSplineSet
EndChar

StartChar: M.sc
Encoding: 65548 -1 252
Width: 750
Flags: W
LayerCount: 2
Back
Fore
SplineSet
708 0 m 1,0,-1
 580 0 l 1,1,-1
 529 362 l 1,2,-1
 375 113 l 1,3,-1
 221 361 l 1,4,-1
 171 0 l 1,5,-1
 43 0 l 1,6,-1
 129 581 l 1,7,-1
 229 581 l 1,8,-1
 376 329 l 1,9,-1
 521 581 l 1,10,-1
 621 581 l 1,11,-1
 708 0 l 1,0,-1
EndSplineSet
EndChar

StartChar: N.sc
Encoding: 65549 -1 253
Width: 632
Flags: W
LayerCount: 2
Back
Fore
SplineSet
561 0 m 1,0,-1
 460 0 l 1,1,-1
 194 366 l 1,2,-1
 194 0 l 1,3,-1
 71 0 l 1,4,-1
 71 581 l 1,5,-1
 189 581 l 1,6,-1
 438 238 l 1,7,-1
 438 581 l 1,8,-1
 561 581 l 1,9,-1
 561 0 l 1,0,-1
EndSplineSet
EndChar

StartChar: O.sc
Encoding: 65550 -1 254
Width: 676
Flags: W
LayerCount: 2
Back
Fore
SplineSet
556 72 m 0,0,1
 470 -12 470 -12 338 -12 c 0,2,3
 271 -12 271 -12 215.5 10 c 128,-1,4
 160 32 160 32 119.5 72 c 128,-1,5
 79 112 79 112 56.5 168 c 128,-1,6
 34 224 34 224 34 291 c 256,7,8
 34 358 34 358 56.5 414 c 128,-1,9
 79 470 79 470 119.5 509.5 c 128,-1,10
 160 549 160 549 216 571 c 128,-1,11
 272 593 272 593 338 593 c 256,12,13
 404 593 404 593 459.5 571 c 128,-1,14
 515 549 515 549 555.5 509.5 c 128,-1,15
 596 470 596 470 618.5 414 c 128,-1,16
 641 358 641 358 641 291 c 0,17,18
 641 156 641 156 556 72 c 0,0,1
169 291 m 256,19,20
 169 206 169 206 212.5 156.5 c 128,-1,21
 256 107 256 107 338 107 c 256,22,23
 420 107 420 107 463 156.5 c 128,-1,24
 506 206 506 206 506 291 c 256,25,26
 506 376 506 376 463 425 c 128,-1,27
 420 474 420 474 338 474 c 256,28,29
 256 474 256 474 212.5 425 c 128,-1,30
 169 376 169 376 169 291 c 256,19,20
EndSplineSet
EndChar

StartChar: AE.sc
Encoding: 65551 -1 255
Width: 768
Flags: W
LayerCount: 2
Back
Fore
SplineSet
736 0 m 1,0,-1
 352 0 l 1,1,-1
 352 135 l 1,2,-1
 188 135 l 1,3,-1
 120 0 l 1,4,-1
 -10 0 l 1,5,-1
 290 581 l 1,6,-1
 728 581 l 1,7,-1
 728 461 l 1,8,-1
 473 461 l 1,9,-1
 473 362 l 1,10,-1
 669 362 l 1,11,-1
 669 243 l 1,12,-1
 473 243 l 1,13,-1
 473 120 l 1,14,-1
 736 120 l 1,15,-1
 736 0 l 1,0,-1
352 253 m 1,16,-1
 352 459 l 1,17,-1
 245 253 l 1,18,-1
 352 253 l 1,16,-1
EndSplineSet
EndChar

StartChar: P.sc
Encoding: 65552 -1 256
Width: 542
Flags: W
LayerCount: 2
Back
Fore
SplineSet
294 184 m 2,0,-1
 193 184 l 1,1,-1
 193 0 l 1,2,-1
 71 0 l 1,3,-1
 71 581 l 1,4,-1
 237 581 l 2,5,6
 312 581 312 581 365 573.5 c 128,-1,7
 418 566 418 566 452.5 546 c 128,-1,8
 487 526 487 526 503 489.5 c 128,-1,9
 519 453 519 453 519 395 c 0,10,11
 519 332 519 332 497.5 291 c 128,-1,12
 476 250 476 250 443 226 c 128,-1,13
 410 202 410 202 370 193 c 128,-1,14
 330 184 330 184 294 184 c 2,0,-1
285 482 m 2,15,-1
 193 482 l 1,16,-1
 193 299 l 1,17,-1
 279 299 l 2,18,19
 311 299 311 299 333 303.5 c 128,-1,20
 355 308 355 308 369 318.5 c 128,-1,21
 383 329 383 329 389 347.5 c 128,-1,22
 395 366 395 366 395 395 c 0,23,24
 395 441 395 441 372 461.5 c 128,-1,25
 349 482 349 482 285 482 c 2,15,-1
EndSplineSet
EndChar

StartChar: Q.sc
Encoding: 65553 -1 257
Width: 676
Flags: W
LayerCount: 2
Back
Fore
SplineSet
646 73 m 1,0,-1
 573 -14 l 1,1,-1
 511 35 l 1,2,3
 441 -12 441 -12 338 -12 c 0,4,5
 271 -12 271 -12 215.5 10 c 128,-1,6
 160 32 160 32 119.5 72 c 128,-1,7
 79 112 79 112 56.5 168 c 128,-1,8
 34 224 34 224 34 291 c 256,9,10
 34 358 34 358 56.5 414 c 128,-1,11
 79 470 79 470 119.5 509.5 c 128,-1,12
 160 549 160 549 216 571 c 128,-1,13
 272 593 272 593 338 593 c 256,14,15
 404 593 404 593 459.5 571 c 128,-1,16
 515 549 515 549 555.5 509.5 c 128,-1,17
 596 470 596 470 618.5 414 c 128,-1,18
 641 358 641 358 641 291 c 0,19,20
 641 185 641 185 590 116 c 1,21,-1
 646 73 l 1,0,-1
338 474 m 0,22,23
 256 474 256 474 212.5 425 c 128,-1,24
 169 376 169 376 169 291 c 256,25,26
 169 206 169 206 212.5 156.5 c 128,-1,27
 256 107 256 107 338 107 c 0,28,29
 362 107 362 107 409 119 c 1,30,-1
 341 172 l 1,31,-1
 414 258 l 1,32,-1
 486 205 l 1,33,34
 503 242 503 242 503 291 c 0,35,36
 503 376 503 376 461 425 c 128,-1,37
 419 474 419 474 338 474 c 0,22,23
EndSplineSet
EndChar

StartChar: R.sc
Encoding: 65554 -1 258
Width: 569
Flags: W
LayerCount: 2
Back
Fore
SplineSet
553 0 m 1,0,-1
 426 0 l 1,1,-1
 302 210 l 1,2,-1
 193 210 l 1,3,-1
 193 0 l 1,4,-1
 71 0 l 1,5,-1
 71 581 l 1,6,-1
 306 581 l 2,7,8
 354 581 354 581 392.5 571.5 c 128,-1,9
 431 562 431 562 459 541.5 c 128,-1,10
 487 521 487 521 502 489.5 c 128,-1,11
 517 458 517 458 517 415 c 0,12,13
 517 376 517 376 508 348.5 c 128,-1,14
 499 321 499 321 484.5 301.5 c 128,-1,15
 470 282 470 282 452 268.5 c 128,-1,16
 434 255 434 255 415 242 c 1,17,-1
 553 0 l 1,0,-1
271 479 m 2,18,-1
 193 479 l 1,19,-1
 193 322 l 1,20,-1
 257 322 l 2,21,22
 302 322 302 322 328 329 c 128,-1,23
 354 336 354 336 367.5 347.5 c 128,-1,24
 381 359 381 359 384.5 373.5 c 128,-1,25
 388 388 388 388 388 403 c 0,26,27
 388 423 388 423 383 437.5 c 128,-1,28
 378 452 378 452 365 461 c 128,-1,29
 352 470 352 470 329.5 474.5 c 128,-1,30
 307 479 307 479 271 479 c 2,18,-1
EndSplineSet
EndChar

StartChar: S.sc
Encoding: 65555 -1 259
Width: 520
Flags: W
LayerCount: 2
Back
Fore
SplineSet
252 -12 m 0,0,1
 185 -12 185 -12 130 1 c 128,-1,2
 75 14 75 14 46 33 c 1,3,-1
 60 170 l 1,4,5
 86 143 86 143 137 125 c 128,-1,6
 188 107 188 107 255 107 c 0,7,8
 304 107 304 107 327.5 118 c 128,-1,9
 351 129 351 129 351 156 c 0,10,11
 351 168 351 168 346.5 178.5 c 128,-1,12
 342 189 342 189 330 198 c 2,13,-1
 309 214 l 2,14,15
 298 221 298 221 279 228 c 2,16,-1
 213 252 l 1,17,-1
 162 270 l 2,18,19
 141 279 141 279 119 289.5 c 128,-1,20
 97 300 97 300 79 316.5 c 128,-1,21
 61 333 61 333 49.5 356.5 c 128,-1,22
 38 380 38 380 38 415 c 0,23,24
 38 449 38 449 51.5 481.5 c 128,-1,25
 65 514 65 514 93 538.5 c 128,-1,26
 121 563 121 563 162.5 578 c 128,-1,27
 204 593 204 593 261 593 c 0,28,29
 290 593 290 593 320 588.5 c 128,-1,30
 350 584 350 584 376.5 577.5 c 128,-1,31
 403 571 403 571 424.5 562.5 c 128,-1,32
 446 554 446 554 458 545 c 1,33,-1
 446 423 l 1,34,35
 351 475 351 475 264 475 c 0,36,37
 161 475 161 475 161 427 c 0,38,39
 161 403 161 403 179.5 390 c 128,-1,40
 198 377 198 377 229.5 367 c 128,-1,41
 261 357 261 357 303.5 345 c 128,-1,42
 346 333 346 333 393 310 c 0,43,44
 438 288 438 288 462 254.5 c 128,-1,45
 486 221 486 221 489 162 c 0,46,47
 489 136 489 136 481 105.5 c 128,-1,48
 473 75 473 75 447.5 49 c 128,-1,49
 422 23 422 23 375.5 5.5 c 128,-1,50
 329 -12 329 -12 252 -12 c 0,0,1
EndSplineSet
EndChar

StartChar: T.sc
Encoding: 65556 -1 260
Width: 500
Flags: W
LayerCount: 2
Back
Fore
SplineSet
484 461 m 1,0,-1
 312 461 l 1,1,-1
 312 0 l 1,2,-1
 188 0 l 1,3,-1
 188 461 l 1,4,-1
 16 461 l 1,5,-1
 16 581 l 1,6,-1
 484 581 l 1,7,-1
 484 461 l 1,0,-1
EndSplineSet
EndChar

StartChar: U.sc
Encoding: 65557 -1 261
Width: 638
Flags: W
LayerCount: 2
Back
Fore
SplineSet
319 -12 m 0,0,1
 193 -12 193 -12 128.5 58.5 c 128,-1,2
 64 129 64 129 64 250 c 2,3,-1
 64 581 l 1,4,-1
 187 581 l 1,5,-1
 187 285 l 2,6,7
 187 241 187 241 193.5 208 c 128,-1,8
 200 175 200 175 215 152.5 c 128,-1,9
 230 130 230 130 255.5 118.5 c 128,-1,10
 281 107 281 107 319 107 c 256,11,12
 357 107 357 107 382.5 118.5 c 128,-1,13
 408 130 408 130 423 152.5 c 128,-1,14
 438 175 438 175 444.5 208 c 128,-1,15
 451 241 451 241 451 285 c 2,16,-1
 451 581 l 1,17,-1
 574 581 l 1,18,-1
 574 250 l 2,19,20
 574 129 574 129 510 58.5 c 128,-1,21
 446 -12 446 -12 319 -12 c 0,0,1
EndSplineSet
EndChar

StartChar: V.sc
Encoding: 65558 -1 262
Width: 585
Flags: W
LayerCount: 2
Back
Fore
SplineSet
581 581 m 1,0,-1
 372 0 l 1,1,-1
 217 0 l 1,2,-1
 0 581 l 1,3,-1
 128 581 l 1,4,-1
 293 167 l 1,5,-1
 455 581 l 1,6,-1
 581 581 l 1,0,-1
EndSplineSet
EndChar

StartChar: W.sc
Encoding: 65559 -1 263
Width: 852
Flags: W
LayerCount: 2
Back
Fore
SplineSet
844 581 m 1,0,-1
 664 0 l 1,1,-1
 562 0 l 1,2,-1
 428 340 l 1,3,-1
 296 0 l 1,4,-1
 185 0 l 1,5,-1
 11 581 l 1,6,-1
 139 581 l 1,7,-1
 257 211 l 1,8,-1
 388 587 l 1,9,-1
 467 587 l 1,10,-1
 605 227 l 1,11,-1
 717 581 l 1,12,-1
 844 581 l 1,0,-1
EndSplineSet
EndChar

StartChar: X.sc
Encoding: 65560 -1 264
Width: 572
Flags: W
LayerCount: 2
Back
Fore
SplineSet
570 0 m 1,0,-1
 424 0 l 1,1,-1
 285 200 l 1,2,-1
 145 0 l 1,3,-1
 1 0 l 1,4,-1
 222 290 l 1,5,-1
 14 581 l 1,6,-1
 157 581 l 1,7,-1
 293 389 l 1,8,-1
 409 581 l 1,9,-1
 553 581 l 1,10,-1
 357 302 l 1,11,-1
 570 0 l 1,0,-1
EndSplineSet
EndChar

StartChar: Y.sc
Encoding: 65561 -1 265
Width: 537
Flags: W
LayerCount: 2
Back
Fore
SplineSet
544 581 m 1,0,-1
 329 251 l 1,1,-1
 329 0 l 1,2,-1
 208 0 l 1,3,-1
 208 251 l 1,4,-1
 -7 581 l 1,5,-1
 124 581 l 1,6,-1
 269 359 l 1,7,-1
 413 581 l 1,8,-1
 544 581 l 1,0,-1
EndSplineSet
EndChar

StartChar: Z.sc
Encoding: 65562 -1 266
Width: 492
Flags: W
LayerCount: 2
Back
Fore
SplineSet
481 581 m 1,0,-1
 215 120 l 1,1,-1
 441 120 l 1,2,-1
 441 0 l 1,3,-1
 12 0 l 1,4,-1
 278 461 l 1,5,-1
 52 461 l 1,6,-1
 52 581 l 1,7,-1
 481 581 l 1,0,-1
EndSplineSet
EndChar

StartChar: OE.sc
Encoding: 65563 -1 267
Width: 941
Flags: W
LayerCount: 2
Back
Fore
SplineSet
909 0 m 1,0,-1
 517 0 l 1,1,-1
 517 33 l 1,2,3
 442 -12 442 -12 340 -12 c 0,4,5
 273 -12 273 -12 217 10 c 128,-1,6
 161 32 161 32 120.5 72 c 128,-1,7
 80 112 80 112 57 168 c 128,-1,8
 34 224 34 224 34 291 c 256,9,10
 34 358 34 358 57 414 c 128,-1,11
 80 470 80 470 121 509.5 c 128,-1,12
 162 549 162 549 218 571 c 128,-1,13
 274 593 274 593 340 593 c 0,14,15
 442 593 442 593 517 548 c 1,16,-1
 517 581 l 1,17,-1
 901 581 l 1,18,-1
 901 461 l 1,19,-1
 645 461 l 1,20,-1
 645 362 l 1,21,-1
 842 362 l 1,22,-1
 842 243 l 1,23,-1
 645 243 l 1,24,-1
 645 120 l 1,25,-1
 909 120 l 1,26,-1
 909 0 l 1,0,-1
170 291 m 0,27,28
 170 206 170 206 214 156.5 c 128,-1,29
 258 107 258 107 340 107 c 256,30,31
 422 107 422 107 466 156.5 c 128,-1,32
 510 206 510 206 510 291 c 0,33,34
 510 375 510 375 466 424.5 c 128,-1,35
 422 474 422 474 340 474 c 256,36,37
 258 474 258 474 214 424.5 c 128,-1,38
 170 375 170 375 170 291 c 0,27,28
EndSplineSet
EndChar

StartChar: L.sc
Encoding: 65564 -1 268
Width: 449
Flags: W
LayerCount: 2
Back
Fore
SplineSet
437 0 m 1,0,-1
 71 0 l 1,1,-1
 71 581 l 1,2,-1
 194 581 l 1,3,-1
 194 120 l 1,4,-1
 437 120 l 1,5,-1
 437 0 l 1,0,-1
EndSplineSet
EndChar
